<svg width="342" height="675" viewBox="0 0 342 675" fill="none" xmlns="http://www.w3.org/2000/svg">
<ellipse cx="274.146" cy="335.595" rx="90.145" ry="27.7769" transform="rotate(-90 274.146 335.595)" fill="#BE9526"/>
<rect x="315.812" y="522.54" width="366.63" height="124.996" transform="rotate(-90 315.812 522.54)" fill="#BE9526"/>
<path d="M545.844 335.063C545.808 359.82 543.67 384.976 538.097 409.085C534.305 425.48 524.691 456.868 510.519 466.711C495.435 477.184 480.109 469.198 467.996 458.58C459.609 451.229 452.429 442.602 444.47 434.84L456.088 454.181C472.447 483.826 480.725 530.95 450.165 554.382C429.984 569.851 410.039 578.872 384.273 580.868C350.778 583.458 310.097 570.438 290.043 542.269C269.971 514.076 282.374 478.133 296.576 450.358L303.563 438.167C295.339 448.936 286.613 459.947 274.107 465.943C261.155 472.15 252.296 474.219 239.29 466.753C226.283 459.288 220.462 439.202 216.525 425.771C203.922 382.791 201.519 334.289 207.062 289.912C209.937 266.928 215.939 239.376 227.182 219.066C242.526 191.345 263.033 193.735 284.415 213.519C291.957 220.494 298.702 228.377 305.978 235.595L296.576 220.379C277.7 189.325 268.141 136.696 302.868 112.901C346.913 82.7175 417.998 77.9441 457.755 117.82C488.092 148.245 478.401 184.684 460.913 218.976L453.516 231.971C461.74 221.202 470.466 210.191 482.972 204.195C496.54 197.692 506.968 195.659 519.981 204.813C528.683 210.935 533.689 223.537 537.088 233.32C548.404 265.881 552.547 300.626 552.77 335.063H545.832H545.844ZM265.321 392.592C267.242 404.705 287.259 398.461 280.393 386.561C275.744 378.502 263.872 383.427 265.321 392.592ZM266.559 324.584C262.894 328.142 268.298 334.083 272.054 330.241C273.66 328.596 273.123 324.717 275.979 324.191C280.907 323.284 281.704 330.931 276.432 330.84L276.42 332.643C284.771 332.232 282.458 320.126 274.91 322.824C271.239 324.137 272.362 329.43 269.518 329.775C266.281 330.163 266.143 324.881 269.748 325.056L269.778 323.574C268.739 323.483 267.314 323.852 266.559 324.584ZM269.778 310.573C264.699 310.161 263.667 317.911 268.715 318.444C274.119 319.012 272.374 312.739 275.387 311.51C280.538 309.417 282.09 318.002 276.414 317.827V319.642C283.998 319.345 283.346 308.389 275.375 309.683C271.414 310.325 272.38 316.635 269.597 316.919C266.251 317.258 266.064 312.14 269.735 312.043L269.778 310.573ZM265.321 294.026C267.242 306.138 287.259 299.894 280.393 287.994C275.744 279.935 263.872 284.86 265.321 294.026ZM265.853 377.395V378.907H279.88C280.786 378.907 281.571 377.225 281.571 376.336C281.571 375.447 280.786 373.462 279.88 373.462H265.853V375.277H279.276C280.122 375.277 280.297 377.395 278.672 377.395H265.847H265.853ZM265.853 369.53H281.239V367.715H274.904L280.949 365.755L281.239 363.782C279.62 364.115 275.864 365.948 274.439 365.87C273.92 365.839 272.58 364.726 271.607 364.52C268.208 363.807 265.176 365.858 265.859 369.524L265.853 369.53ZM265.853 348.367V351.694L281.245 352.602C281.233 352.015 281.444 351.059 280.75 350.829L267.664 350.031L280.961 348.234C281.414 347.925 281.498 345.62 280.75 345.384C276.897 344.906 272.869 344.791 269.053 344.102C268.727 344.041 267.924 343.999 267.966 343.533L281.239 342.928V341.113L265.847 342.021V345.348C269.796 345.88 273.83 346.014 277.773 346.552C278.226 346.612 278.703 346.594 278.823 347.163L265.847 348.373L265.853 348.367ZM265.853 335.971V337.483H281.239V335.971H265.853ZM265.853 304.226V306.041H281.239V304.226H265.853ZM265.853 280.341H281.239V278.828H267.966L281.227 276.396L281.245 273.389H265.859V275.204H279.131L267.477 277.279L265.853 277.316V280.341ZM328.007 447.539C328.218 447.399 332.36 447.539 333.133 447.539V446.026H328.007V444.514H326.497V446.026C325.005 446.214 324.649 445.802 324.196 444.495C322.336 444.072 322.669 445.469 323.405 446.552C324.281 447.829 325.175 447.26 326.28 447.551C326.545 447.623 326.376 448.095 326.938 448.168C328.357 448.355 327.94 447.581 328.001 447.539H328.007ZM323.182 458.725V460.238H333.139V458.725H323.182ZM323.182 411.257H333.139C332.741 408.97 334.468 406.417 331.599 405.092C328.272 403.555 325.018 406.411 326.805 409.744H323.182V411.257ZM323.182 398.86V400.373H333.139V398.86H323.182ZM323.182 368.023H333.139V366.813C331.557 366.741 327.318 367.473 327.699 364.865C327.747 364.539 328.254 363.788 328.459 363.788H333.133V362.578H327.856C326.847 362.578 325.869 365.954 327.101 366.807H323.176V368.017L323.182 368.023ZM333.133 352.904H323.629C323.309 352.904 323.055 353.764 323.176 354.114H333.133V352.904ZM323.182 321.463V322.673H327.107C323.919 329.406 335.754 329.491 332.535 322.812L333.139 322.473V321.457H323.182V321.463ZM323.635 313.598H333.139L333.103 312.575L332.644 312.127C330.513 312 326.237 312.805 328.164 309.363H332.686L333.139 307.85H328.466C326.636 307.85 326.056 310.669 326.805 312.079C326.437 312.394 321.787 311.232 323.641 313.592L323.635 313.598ZM323.635 278.526H332.686C333.254 278.526 333.254 277.013 332.686 277.013H323.635C323.182 277.013 322.922 278.32 323.635 278.526ZM328.007 258.573C328.224 258.434 332.36 258.573 333.133 258.573V257.363H328.007C328.115 255.221 326.533 255.312 326.328 257.381C324.003 257.817 324.589 256.171 323.931 255.85C322.693 255.251 322.977 257.817 324.154 258.349C324.975 258.718 325.646 258.416 326.286 258.567C326.63 258.645 326.642 259.378 326.956 259.474C327.946 259.795 327.922 258.627 328.007 258.573ZM323.635 252.523H332.686L333.139 251.01H328.767C327.487 251.01 327.276 247.985 328.767 247.985H333.139V246.775H328.164C326.799 246.775 325.76 250.03 327.107 251.004L323.689 251.059L323.194 251.47C323.079 251.833 323.315 252.432 323.641 252.523H323.635ZM323.182 220.476C323.061 220.827 323.315 221.686 323.635 221.686H333.139V220.476H323.182ZM326.497 472.023L325.44 470.523C322.01 472.422 323.743 479.241 327.693 476.706C329.136 475.78 328.84 474.007 329.673 472.943C331.141 471.055 332.777 473.511 331.171 475.659C330.814 476.137 329.927 476.179 330.126 476.706L331.219 477.752C333.918 476.651 334.293 470.934 330.881 470.795C326.473 470.613 328.816 476.409 325.356 475.296C324.987 474.153 325.096 472.295 326.503 472.029L326.497 472.023ZM324.172 428.711C324.969 429.679 326.805 429.8 327.825 429.062C329.299 427.991 328.761 424.543 330.863 424.857C332.964 425.172 331.346 428.239 330.132 428.947C331.134 430.351 331.781 430.151 332.674 428.784C334.48 426.013 332.608 421.596 329.244 423.532C327.493 424.543 327.632 428.07 326.056 427.912C324.48 427.755 325.265 424.621 326.503 424.113C325.416 422.673 324.867 422.855 324.082 424.403C323.484 425.583 323.309 427.658 324.178 428.717L324.172 428.711ZM323.828 496.864L323.786 498.032L333.109 495.884V494.432L326.805 492.738L333.115 491.05L333.012 489.846L323.792 487.45L323.967 488.691L330.428 490.324C330.44 490.778 325.229 491.716 324.547 491.988C323.435 492.436 323.454 493.029 324.522 493.519C325.827 494.118 328.091 494.311 329.589 494.795C329.903 494.898 330.5 494.874 330.428 495.309L323.834 496.864H323.828ZM324.124 401.928C323.429 403.047 324.999 404.487 325.76 403.416C326.594 402.248 324.673 401.05 324.124 401.928ZM324.088 397.348L325.766 397.069V395.817L324.365 395.66L324.088 397.342V397.348ZM328.007 469.609H333.133V468.096H328.007L328.188 466.245C329.595 466.082 331.485 464.654 332.759 464.527C333.822 464.424 334.576 465.277 335.555 465.368C335.537 464.896 335.681 464.243 335.416 463.843C335.066 463.317 327.705 461 326.503 460.528L326.539 461.998L330.718 463.704C328.206 464.872 325.73 464.46 326.497 468.09H324.685V469.603L326.479 469.633L326.521 470.468H327.988L328.013 469.597L328.007 469.609ZM328.007 421.838H333.133V420.326H328.007V419.116H326.497V420.332H324.685V421.669L326.497 421.838V423.054H328.007V421.844V421.838ZM328.007 394.02H333.133V392.508H328.007L327.705 390.699C330.621 390.185 332.608 387.752 335.549 389.791C335.543 389.301 335.663 388.702 335.404 388.273C335.072 387.71 327.753 385.248 326.497 384.951L326.533 386.428L330.416 387.674C330.543 388.364 330.374 388.152 330.029 388.345C329.347 388.727 326.938 389.283 326.636 389.779L326.491 392.508H324.679V394.02L326.473 394.051L326.515 394.885H327.982L328.007 394.014V394.02ZM328.007 381.321H333.133L332.68 379.809H328.007V378.599H326.497V379.815L324.685 379.984V381.321L326.485 381.352L326.666 382.247L327.988 382.186L328.013 381.321H328.007ZM328.007 316.925H333.133L332.68 315.413H328.007V314.203H326.497V315.419L324.685 315.588V316.925L326.485 316.955L326.666 317.851L327.988 317.79L328.013 316.925H328.007ZM330.422 456.305V451.465C326.757 450.914 324.45 455.664 328.097 457.569C332.24 459.735 335.718 453.849 331.473 451.465C330.066 453.359 331.044 452.639 331.599 453.443C332.735 455.101 330.76 456.68 330.422 456.299V456.305ZM326.255 441.87C326.932 445.736 333.725 445.264 333.429 441.077C333.091 436.322 325.476 437.399 326.255 441.87ZM326.497 437.26H333.133V435.747C331.086 435.832 326.859 436.171 328.007 433.031C325.7 432.68 325.76 434.301 327.101 435.602C326.189 435.85 326.509 436.425 326.497 437.266V437.26ZM326.497 412.467C327.004 414.209 325.772 415.461 326.569 417.083C327.831 419.654 331.805 419.648 333.067 417.083C333.864 415.461 332.632 414.209 333.139 412.467H326.503H326.497ZM330.12 481.4C325.205 480.868 325.126 487.922 330.271 487.463C333.58 487.166 334.172 483.264 331.775 481.406C330.036 481.951 331.678 482.816 331.871 483.427C332.324 484.885 331.648 486.095 330.12 486.24V481.4ZM326.497 401.885V403.398H333.133V401.885H326.497ZM326.497 397.348H333.133L333.115 395.853C330.899 395.406 328.719 395.412 326.509 395.853L326.491 397.348H326.497ZM327.197 372.954C324.317 376.221 329.722 380.523 332.535 377.165C335.349 373.807 329.885 369.905 327.197 372.954ZM330.12 355.324C325.205 354.792 325.126 361.846 330.271 361.387C333.58 361.09 334.172 357.188 331.775 355.331C330.036 355.875 331.678 356.74 331.871 357.351C332.324 358.809 331.648 360.019 330.12 360.164V355.324ZM326.497 351.392H335.549V350.182H332.831C335.265 344.356 325.893 343.333 326.473 348.833C326.582 349.885 327.234 349.928 326.497 351.392ZM330.12 335.366C326.757 334.918 324.939 339.588 328.031 341.234C331.98 343.345 335.41 337.81 331.473 335.366C330.482 336.467 331.66 336.721 331.871 337.392C332.3 338.747 331.769 340.441 330.12 340.206V335.366ZM326.497 334.458H333.133V333.248C331.678 333.188 327.318 333.835 327.693 331.3C327.741 330.973 328.248 330.223 328.453 330.223H333.127L333.091 329.201C332.777 328.263 328.653 328.704 327.723 329.188C326.225 329.969 326.062 331.875 327.095 333.103L326.491 333.442V334.458H326.497ZM330.12 300.596C323.985 300.778 326.412 309.254 331.799 306.344C333.834 305.243 333.55 302.097 331.775 300.899L331.026 301.358C332.125 302.962 332.807 305.412 330.12 305.436V300.596ZM326.563 294.939C327.01 296.894 329.643 297.535 331.328 296.815C334.317 295.538 333.055 291.255 331.787 291.527C330.863 292.138 331.823 292.743 331.932 293.518C332.451 297.384 325.253 296.004 328.562 292.283L327.572 291.533C326.582 292.489 326.255 293.572 326.569 294.945L326.563 294.939ZM331.026 287.903C329.957 289.428 326.135 288.895 326.503 291.225C329.655 290.825 332.318 287.619 335.398 289.718C335.754 289.718 335.615 288.29 335.041 288.26L326.497 285.181L326.539 286.348L331.02 287.903H331.026ZM326.563 282.845C327.01 284.8 329.643 285.441 331.328 284.721C334.317 283.444 333.055 279.161 331.787 279.433C330.863 280.044 331.823 280.649 331.932 281.424C332.451 285.29 325.253 283.91 328.562 280.19L327.572 279.439C326.582 280.395 326.255 281.478 326.569 282.852L326.563 282.845ZM330.12 269.759C323.985 269.941 326.412 278.417 331.799 275.507C333.834 274.406 333.55 271.26 331.775 270.062L331.026 270.522C332.125 272.125 332.807 274.575 330.12 274.599V269.759ZM326.563 264.103C327.185 266.837 332.203 266.898 333 264.332C334.739 258.712 325.253 258.361 326.563 264.103ZM326.563 243.545C327.433 247.308 334.522 246.14 333 241.324C332.113 238.511 325.458 238.759 326.563 243.545ZM333.133 229.847H327.856C327.693 229.847 326.968 230.416 326.829 230.634C325.676 232.467 327.348 233.387 327.354 233.623C327.354 233.738 326.582 234.452 326.497 235.165C326.382 236.127 326.98 237.077 326.521 238.124L326.95 238.614H332.68L333.133 237.101H328.761C327.367 237.101 327.578 234.681 328.459 234.681H333.133V233.471C331.593 233.314 327.149 234.252 327.681 231.554C327.717 231.378 328.393 231.051 328.459 231.051H333.133V229.841V229.847ZM330.12 222.594C326.757 222.146 324.939 226.816 328.031 228.462C331.98 230.573 335.41 225.038 331.473 222.594C330.482 223.695 331.66 223.949 331.871 224.62C332.3 225.975 331.769 227.669 330.12 227.434V222.594ZM330.12 213.222C325.205 212.69 325.126 219.744 330.271 219.284C333.58 218.988 334.172 215.085 331.775 213.228C330.036 213.773 331.678 214.638 331.871 215.249C332.324 216.707 331.648 217.917 330.12 218.062V213.222ZM327.197 207.571C325.809 208.806 326.527 212.442 328.381 212.26C330.814 212.03 330.054 208.654 330.881 208.382C332.046 207.995 332.119 209.774 331.871 210.584C331.805 210.802 329.999 212.811 332.034 212.266C334.069 211.722 333.544 205.587 330.114 207.317C329.045 207.965 329.486 210.905 328.466 211.02C326.207 210.584 329.299 207.904 328.302 207.166C328.133 207.039 327.403 207.378 327.191 207.565L327.197 207.571ZM327.197 201.527C325.809 202.762 326.527 206.398 328.381 206.216C330.814 205.986 330.054 202.61 330.881 202.338C332.046 201.951 332.119 203.73 331.871 204.54C331.805 204.758 329.999 206.767 332.034 206.222C334.069 205.678 333.544 199.543 330.114 201.273C329.045 201.921 329.486 204.861 328.466 204.976C326.207 204.54 329.299 201.86 328.302 201.122C328.133 200.995 327.403 201.334 327.191 201.521L327.197 201.527ZM326.497 199.918H333.133V198.708C331.551 198.636 327.312 199.368 327.693 196.76C327.741 196.433 328.248 195.683 328.453 195.683H333.127V194.473H327.85C326.926 194.473 325.766 197.807 327.095 198.563L326.491 198.902V199.918H326.497ZM330.12 187.219C325.205 186.687 325.126 193.741 330.271 193.281C333.58 192.985 334.172 189.083 331.775 187.225C330.036 187.77 331.678 188.635 331.871 189.246C332.324 190.704 331.648 191.914 330.12 192.059V187.219ZM328.309 181.175C326.05 181.496 325.748 185.864 327.928 186.263C330.247 186.687 330.036 184.188 330.482 182.899C330.929 181.611 332.288 182.567 331.926 184.339C331.787 185.017 330.174 186.112 331.769 186.608C334.281 185.289 333.212 179.675 330.247 181.454C329.021 182.192 329.468 183.577 329.051 184.491C328.417 185.888 327.155 184.672 327.862 182.99C328.103 182.409 328.961 182.385 328.302 181.169L328.309 181.175ZM328.309 175.125C326.05 175.446 325.748 179.814 327.928 180.213C330.247 180.637 330.036 178.138 330.482 176.849C330.929 175.561 332.288 176.517 331.926 178.289C331.787 178.967 330.174 180.062 331.769 180.558C334.281 179.239 333.212 173.625 330.247 175.404C329.021 176.142 329.468 177.527 329.051 178.441C328.417 179.838 327.155 178.622 327.862 176.94C328.103 176.359 328.961 176.335 328.302 175.119L328.309 175.125ZM331.37 173.413C331.75 174.829 333.435 173.927 333.133 172.869C332.922 172.124 331.032 172.155 331.37 173.413ZM339.021 492.284H348.072L348.525 490.772H344.153C342.873 490.772 342.662 487.747 344.153 487.747H348.525V486.537H343.55C342.185 486.537 341.146 489.792 342.493 490.766L339.075 490.82L338.58 491.232C338.465 491.595 338.701 492.194 339.027 492.284H339.021ZM338.568 459.633H348.525V458.423C347.07 458.362 342.71 459.009 343.085 456.474C343.133 456.148 343.64 455.398 343.845 455.398H348.519L348.483 454.375C348.181 453.468 344.232 453.867 343.32 454.266C341.551 455.047 341.497 456.94 342.487 458.416H338.562V459.626L338.568 459.633ZM343.393 394.625C343.61 394.486 347.746 394.625 348.519 394.625V393.415H343.393C343.513 391.28 341.907 391.364 341.726 393.427L339.818 393.064L339.776 391.903C338.212 391.449 338.278 392.816 338.858 393.809C339.437 394.801 340.929 394.45 341.678 394.619C342.028 394.698 342.022 395.424 342.342 395.527C343.332 395.847 343.308 394.68 343.393 394.625ZM338.568 357.139V358.349H342.493C339.305 365.083 351.14 365.168 347.921 358.489L348.525 358.15V357.133H338.568V357.139ZM338.568 346.854V348.064H342.493C339.305 354.798 351.14 354.883 347.921 348.204L348.525 347.865V346.848H338.568V346.854ZM343.393 261.295H348.519V260.085H343.393V258.875H341.883V260.091L340.053 259.952L339.606 258.857L338.574 258.875C338.302 261.223 339.908 261.471 341.871 261.326L342.052 262.221L343.374 262.161L343.399 261.295H343.393ZM338.568 233.78H348.525V232.57C347.07 232.509 342.71 233.157 343.085 230.622C343.133 230.295 343.64 229.545 343.845 229.545H348.519L348.483 228.523C348.181 227.615 344.232 228.014 343.32 228.414C341.551 229.194 341.497 231.088 342.487 232.564H338.562V233.774L338.568 233.78ZM339.172 492.889V499.387C339.172 499.702 340.029 499.968 340.379 499.841C340.597 499.629 339.957 497.227 340.832 496.822H348.525V495.612H340.379V492.889H339.172ZM339.474 404.747C339.685 405.491 341.575 405.461 341.237 404.202C340.856 402.787 339.172 403.688 339.474 404.747ZM339.474 331.881C339.685 332.625 341.575 332.595 341.237 331.336C340.856 329.921 339.172 330.822 339.474 331.881ZM339.474 190.087C339.715 190.892 341.641 190.698 341.279 189.488C341.038 188.683 339.111 188.877 339.474 190.087ZM343.393 449.354H348.519V448.144H343.393C343.604 446.081 341.708 446.038 341.871 448.131L340.071 448.295V449.348L341.865 449.384L342.046 450.279L343.368 450.219L343.393 449.354ZM343.393 289.712H348.519V288.502H343.393V287.292H341.883V288.508L340.071 288.66V289.712L341.841 289.761C341.955 291.418 343.417 291.364 343.393 289.718V289.712ZM343.393 179.959H348.519V178.749H343.393V177.539H341.883V178.755L340.071 178.906V179.959L341.841 180.008C341.955 181.665 343.417 181.611 343.393 179.965V179.959ZM341.889 481.098C341.533 482.55 342.879 483.421 341.883 484.583L342.185 485.194L348.398 485.055L348.531 483.826C346.146 483.718 342.571 484.692 343.097 481.104H341.895L341.889 481.098ZM341.949 479.071C342.523 481.606 347.324 481.782 348.296 479.513C349.751 476.101 345.856 473.372 343.079 475.496C341.943 476.367 341.635 477.686 341.949 479.071ZM341.883 472.634V473.844H346.859C348.229 473.844 349.359 470.68 347.915 469.76C348.876 469.778 348.562 468.103 348.066 468.103H342.336C342.088 468.103 341.732 468.853 341.889 469.155C342.227 470.232 346.424 468.95 347.167 470.214C347.686 470.994 347.167 472.64 346.261 472.64H341.889L341.883 472.634ZM348.676 460.843C347.257 460.558 344.015 460.843 342.342 460.843C341.913 460.843 341.515 462.119 342.493 462.198C339.214 468.574 350.609 469.167 348.223 462.355L349.576 462.96L350.011 466.451L350.929 466.584C351.007 464.473 351.369 461.387 348.67 460.843H348.676ZM341.883 446.026H348.519V444.816C346.007 444.756 342.928 445.524 342.94 442.088H341.889C341.418 443.086 342.487 444.163 342.505 444.659C342.505 444.743 341.448 444.949 341.889 446.02L341.883 446.026ZM341.949 439.764C342.596 442.578 347.837 442.565 348.459 439.764C348.725 438.579 348.241 437.012 348.398 435.729L342.179 435.59L341.877 436.201C342.777 437.417 341.551 438.028 341.949 439.77V439.764ZM341.883 433.025V434.235H346.859C348.229 434.235 349.359 431.07 347.915 430.151C348.876 430.169 348.562 428.493 348.066 428.493H342.336C342.088 428.493 341.732 429.243 341.889 429.546C342.227 430.623 346.424 429.34 347.167 430.605C347.686 431.385 347.167 433.031 346.261 433.031H341.889L341.883 433.025ZM348.525 418.511H343.55C343.151 418.511 341.98 419.642 341.889 420.193C341.66 421.602 342.753 422.395 342.753 422.6C342.753 422.776 342.004 423.163 341.889 423.817C341.72 424.809 342.312 426.152 341.889 427.283H348.525V426.073C347.185 425.976 343.284 426.642 343.085 424.7C343.048 424.343 343.254 423.653 343.55 423.653H348.525C349.159 420.459 342.813 423.708 343.073 420.785C343.211 419.243 347.45 419.83 348.525 419.721V418.511ZM348.525 411.257H342.342C341.913 411.257 341.515 412.533 342.493 412.612C340.434 415.843 343.471 418.638 346.835 417.276C349.673 416.127 347.903 413.483 348.525 411.263V411.257ZM348.525 403.7H342.342C342.022 403.7 341.768 404.559 341.889 404.91H348.525V403.7ZM341.883 401.885H348.519V400.675C346.937 400.603 342.698 401.335 343.079 398.727C343.127 398.4 343.634 397.65 343.839 397.65H348.513V396.44H343.236C342.312 396.44 341.152 399.774 342.481 400.53L341.877 400.869V401.885H341.883ZM341.949 389.574C342.523 392.108 347.324 392.284 348.296 390.015C349.751 386.603 345.856 383.874 343.079 385.998C341.943 386.869 341.635 388.188 341.949 389.574ZM341.883 384.346H348.519V383.136C346.128 383.027 342.559 383.995 343.085 380.414H341.883C341.412 381.412 342.481 382.489 342.499 382.985C342.499 383.07 341.442 383.275 341.883 384.346ZM348.525 371.345H343.248C343.085 371.345 342.36 371.914 342.221 372.131C341.068 373.965 342.74 374.884 342.746 375.12C342.746 375.235 341.974 375.949 341.889 376.663C341.774 377.625 342.372 378.575 341.913 379.621L342.342 380.111H348.072L348.525 378.599H344.153C342.759 378.599 342.97 376.179 343.852 376.179H348.525V374.969C346.985 374.812 342.541 375.749 343.073 373.051C343.109 372.876 343.785 372.549 343.852 372.549H348.525V371.339V371.345ZM345.506 364.091C342.143 363.643 340.325 368.314 343.417 369.959C347.366 372.071 350.796 366.535 346.859 364.091C345.868 365.192 347.046 365.446 347.257 366.118C347.686 367.473 347.155 369.167 345.506 368.931V364.091ZM345.506 339.601C339.371 339.782 341.798 348.258 347.185 345.348C349.22 344.247 348.936 341.101 347.161 339.903L346.412 340.363C347.511 341.966 348.193 344.416 345.506 344.441V339.601ZM343.688 333.865C341.243 333.75 341.195 338.566 343.544 338.723C345.772 338.868 345.554 337.017 345.947 335.359L347.318 335.069C347.275 336.333 347.758 337.404 346.394 337.979C346.539 339.794 348.169 338.778 348.441 337.568C349.262 333.956 345.989 332.274 344.878 334.894C344.588 335.583 344.697 337.979 343.544 337.483C342.68 337.108 342.922 335.093 344.015 334.882L343.682 333.865H343.688ZM348.525 330.834H342.342C342.022 330.834 341.768 331.693 341.889 332.044H348.525V330.834ZM350.935 328.717C351.055 325.111 351.212 323.302 347.173 322.957C346.321 322.884 342.046 322.751 341.883 323.429C341.744 323.992 342.378 324.385 342.378 324.627C342.378 324.814 341.943 325.165 341.895 325.546C341.183 331.409 350.596 330.302 348.217 324.482C350.506 324.022 349.437 328.438 349.727 328.717H350.929H350.935ZM341.883 321.765H348.519V320.555C347.064 320.495 342.704 321.142 343.079 318.607C343.127 318.28 343.634 317.53 343.839 317.53H348.513L348.477 316.508C348.163 315.57 344.039 316.012 343.109 316.496C341.611 317.276 341.448 319.182 342.481 320.41L341.877 320.749V321.765H341.883ZM346.11 307.245C345.246 307.457 342.771 307.814 342.185 308.304C341.853 308.582 341.756 309.526 341.889 309.665C342.125 309.913 348.199 307.85 348.386 307.566C348.549 307.324 348.628 306.501 348.513 306.356C348.35 306.162 344.842 305.751 344.606 304.831C345.79 304.474 348.519 304.323 348.543 302.859C348.555 302.205 348.453 302.514 348.109 302.369C347.372 302.06 342.131 300.36 341.895 300.59C341.768 302.708 345.168 302 346.116 303.307C345.234 303.391 341.49 304.014 341.895 305.267C342.143 306.029 345.699 306.217 346.11 307.233V307.245ZM345.506 294.25C340.591 293.717 340.512 300.772 345.657 300.312C348.966 300.015 349.558 296.113 347.161 294.256C345.422 294.8 347.064 295.665 347.257 296.276C347.71 297.734 347.034 298.945 345.506 299.09V294.25ZM341.889 282.458C341.533 283.91 342.879 284.781 341.883 285.943L342.185 286.554L348.398 286.415L348.531 285.187C346.146 285.078 342.571 286.052 343.097 282.464H341.895L341.889 282.458ZM348.525 276.106H341.889V277.122C342.976 277.485 342.034 277.709 341.901 278.695C341.11 284.431 351.237 283.094 347.921 277.461L348.525 277.122V276.106ZM348.525 269.154H343.852C341.273 269.154 342.179 272.911 341.913 274.406L342.342 274.896H348.525L348.489 273.873L348.03 273.426C345.899 273.299 341.623 274.103 343.55 270.661H348.072L348.525 269.148V269.154ZM343.695 262.808C341.436 263.129 341.134 267.497 343.314 267.896C345.633 268.319 345.421 265.821 345.868 264.532C346.315 263.243 347.674 264.199 347.312 265.972C347.173 266.65 345.56 267.745 347.155 268.241C349.667 266.922 348.598 261.307 345.633 263.086C344.407 263.824 344.854 265.21 344.437 266.123C343.803 267.521 342.541 266.305 343.248 264.623C343.489 264.042 344.347 264.018 343.688 262.802L343.695 262.808ZM341.949 256.244C342.819 260.007 349.908 258.839 348.386 254.023C347.499 251.21 340.844 251.458 341.949 256.244ZM341.889 247.084C341.533 248.536 342.879 249.407 341.883 250.569L342.185 251.18L348.398 251.041L348.531 249.812C346.146 249.704 342.571 250.678 343.097 247.09H341.895L341.889 247.084ZM342.336 246.781H348.519C349.153 243.587 342.807 246.836 343.067 243.914C343.205 242.371 347.444 242.958 348.519 242.849V241.639H344.141C342.746 241.639 342.958 239.219 343.839 239.219H348.513V238.009H343.236C343.169 238.009 342.209 238.753 342.161 238.826C341.116 240.562 342.74 241.79 342.734 242.099C342.734 242.292 342.161 242.577 342.034 242.855C341.545 243.908 342.312 245.13 341.907 246.285L342.33 246.781H342.336ZM341.949 225.098C342.523 227.633 347.324 227.809 348.296 225.54C349.751 222.128 345.856 219.399 343.079 221.523C341.943 222.394 341.635 223.713 341.949 225.098ZM346.865 218.359H342.342C342.094 218.359 341.738 219.109 341.895 219.411C342.155 220.24 346.726 219.968 347.607 219.399C348.821 218.619 348.851 216.477 347.927 215.479L348.531 215.14V214.124H342.348C342.028 214.124 341.768 214.995 341.895 215.334C344.015 215.327 348.9 214.964 346.871 218.359H346.865ZM343.688 208.086C341.243 207.971 341.195 212.786 343.544 212.944C345.772 213.089 345.554 211.238 345.947 209.58L347.318 209.29C347.275 210.554 347.758 211.625 346.394 212.2C346.539 214.015 348.169 212.998 348.441 211.788C349.262 208.176 345.989 206.494 344.878 209.114C344.588 209.804 344.697 212.2 343.544 211.704C342.68 211.328 342.922 209.314 344.015 209.102L343.682 208.086H343.688ZM345.506 200.826C339.371 201.007 341.798 209.483 347.185 206.573C349.22 205.472 348.936 202.326 347.161 201.128L346.412 201.588C347.511 203.191 348.193 205.641 345.506 205.666V200.826ZM342.583 195.477C341.195 196.712 341.913 200.348 343.767 200.166C346.2 199.936 345.44 196.56 346.267 196.288C347.432 195.901 347.505 197.68 347.257 198.49C347.191 198.708 345.385 200.717 347.42 200.172C349.455 199.628 348.93 193.493 345.5 195.223C344.431 195.871 344.872 198.811 343.852 198.926C341.593 198.49 344.685 195.81 343.688 195.072C343.519 194.945 342.789 195.284 342.577 195.471L342.583 195.477ZM348.525 190.547L348.072 189.034H342.342C341.774 189.034 341.774 190.547 342.342 190.547H348.525ZM348.525 181.774H343.852C341.273 181.774 342.179 185.531 341.913 187.026L342.342 187.516H348.525L348.489 186.493L348.03 186.045C345.899 185.918 341.623 186.723 343.55 183.281H348.072L348.525 181.768V181.774ZM341.949 174.913C342.819 178.677 349.908 177.509 348.386 172.693C347.499 169.88 340.844 170.128 341.949 174.913ZM344.6 406.719V410.047H345.5V406.719H344.6ZM349.636 313.991C348.966 313.235 346.684 312.811 346.702 314.051C347.408 316.278 348.489 313.567 349.582 315.104C350.113 314.783 350.017 314.414 349.636 313.991ZM354.407 480.493H363.911L363.875 479.47L363.416 479.023C361.285 478.896 357.009 479.7 358.936 476.258H363.458L363.911 474.745H359.238C357.408 474.745 356.828 477.565 357.577 478.974C357.209 479.289 352.559 478.127 354.413 480.487L354.407 480.493ZM358.785 440.285H363.911V439.075H358.785V437.865H357.275V439.081L355.445 438.942L354.999 437.846L353.966 437.865C353.694 440.212 355.3 440.46 357.263 440.315L357.444 441.21L358.767 441.15L358.791 440.285H358.785ZM363.911 406.114H354.407C354.087 406.114 353.827 406.985 353.954 407.324H357.873C355.856 410.634 358.754 413.538 362.214 412.134C365.053 410.984 363.283 408.341 363.905 406.12L363.911 406.114ZM353.954 385.859V387.069H357.879C354.691 393.802 366.526 393.887 363.307 387.208L363.911 386.869V385.853H353.954V385.859ZM353.954 368.931V370.141H363.911V368.931H353.954ZM363.458 338.088H354.407C354.159 338.088 353.803 338.838 353.96 339.141L354.455 339.552L357.873 339.607C355.784 342.813 359.02 345.548 362.323 344.211C364.66 343.267 363.543 340.671 363.911 338.844C363.935 338.572 363.676 338.155 363.458 338.088ZM358.785 333.557C359.002 333.417 363.138 333.557 363.911 333.557V332.347H358.785C358.893 330.205 357.311 330.296 357.106 332.365C354.781 332.8 355.367 331.155 354.709 330.834C353.471 330.235 353.755 332.8 354.932 333.333C355.753 333.702 356.424 333.399 357.064 333.551C357.408 333.629 357.42 334.361 357.734 334.458C358.724 334.779 358.7 333.611 358.785 333.557ZM353.954 308.159V309.369H363.911V308.159H353.954ZM358.785 212.92H363.911V211.71H358.785V210.5H357.275V211.716L355.445 211.576L354.999 210.481L353.966 210.5C353.694 212.847 355.3 213.095 357.263 212.95L357.444 213.845L358.767 213.785L358.791 212.92H358.785ZM354.86 421.983C355.071 422.728 356.961 422.697 356.623 421.439C356.242 420.023 354.558 420.925 354.86 421.983ZM354.884 404.118C355.156 404.959 356.937 404.801 356.623 403.597C356.309 402.393 354.383 402.569 354.884 404.118ZM354.902 394.426C355.282 395.841 356.967 394.94 356.665 393.881C356.454 393.137 354.564 393.167 354.902 394.426ZM354.86 312.23C355.071 312.974 356.961 312.944 356.623 311.686C356.242 310.27 354.558 311.172 354.86 312.23ZM354.86 305.884C355.101 306.689 357.027 306.495 356.665 305.285C356.424 304.48 354.497 304.674 354.86 305.884ZM354.86 258.107C355.071 258.851 356.961 258.821 356.623 257.562C356.242 256.147 354.558 257.048 354.86 258.107ZM354.86 250.859C355.101 251.664 357.027 251.47 356.665 250.26C356.424 249.456 354.497 249.649 354.86 250.859ZM354.86 233.32C355.101 234.125 357.027 233.931 356.665 232.721C356.424 231.917 354.497 232.11 354.86 233.32ZM358.785 286.99H363.911V285.78H358.785C358.996 283.717 357.1 283.674 357.263 285.768L355.463 285.931V286.984L357.257 287.02L357.438 287.915L358.76 287.855L358.785 286.99ZM358.785 254.943H363.911V253.733H358.785C358.996 251.67 357.1 251.627 357.263 253.721L355.463 253.884V254.937L357.233 254.985C357.347 256.643 358.809 256.588 358.785 254.943ZM357.969 468.496C355.089 471.763 360.493 476.064 363.307 472.707C366.121 469.349 360.657 465.447 357.969 468.496ZM363.911 457.818H358.936C358.537 457.818 357.366 458.949 357.275 459.499C357.046 460.909 358.139 461.702 358.139 461.907C358.139 462.083 357.39 462.47 357.275 463.123C357.106 464.116 357.698 465.459 357.275 466.59H363.911V465.38C362.571 465.283 358.67 465.949 358.471 464.007C358.434 463.65 358.64 462.96 358.936 462.96H363.911C364.545 459.766 358.199 463.014 358.459 460.092C358.597 458.55 362.836 459.136 363.911 459.028V457.818ZM360.892 450.866C355.977 450.334 355.898 457.388 361.043 456.928C364.352 456.632 364.944 452.729 362.547 450.872C360.808 451.417 362.45 452.282 362.643 452.893C363.096 454.351 362.42 455.561 360.892 455.706V450.866ZM357.969 445.215C356.581 446.45 357.299 450.086 359.153 449.904C361.586 449.674 360.826 446.298 361.653 446.026C362.818 445.639 362.891 447.418 362.643 448.228C362.577 448.446 360.771 450.455 362.806 449.91C364.841 449.366 364.316 443.231 360.886 444.961C359.817 445.609 360.258 448.549 359.238 448.664C356.979 448.228 360.071 445.548 359.074 444.81C358.905 444.683 358.175 445.022 357.963 445.209L357.969 445.215ZM357.335 435.233C357.957 437.967 362.975 438.028 363.772 435.463C365.511 429.842 356.025 429.491 357.335 435.233ZM357.275 426.073C356.919 427.525 358.265 428.396 357.269 429.558L357.571 430.169L363.784 430.03L363.917 428.802C361.532 428.693 357.957 429.667 358.483 426.079H357.281L357.275 426.073ZM363.911 420.931H357.728C357.408 420.931 357.154 421.79 357.275 422.141H363.911V420.931ZM357.275 419.116H363.911V417.906C362.329 417.833 358.09 418.565 358.471 415.958C358.519 415.631 359.026 414.881 359.231 414.881H363.905V413.671H358.628C357.704 413.671 356.544 417.004 357.873 417.76L357.269 418.099V419.116H357.275ZM357.275 403.095V404.305H363.911V403.095H357.275ZM361.798 399.157C360.904 399.598 358.181 400.016 357.571 400.518C357.239 400.796 357.142 401.74 357.275 401.879C357.498 402.121 362.83 400.101 363.489 399.798C364.28 399.435 364.044 398.721 363.434 398.279C363.169 398.086 357.492 395.896 357.281 396.138L357.577 397.499L361.804 399.157H361.798ZM357.275 393.718C357.154 394.069 357.408 394.928 357.728 394.928H363.911V393.718H357.275ZM357.275 383.136V384.346H362.553C363.519 384.346 364.745 380.989 363.307 380.263L363.911 379.924V378.907H357.269C357.021 380.801 359.63 379.972 361.013 380.148C363.893 380.517 362.492 383.142 361.949 383.142H357.275V383.136ZM357.275 371.647C357.058 372.222 357.752 372.706 357.764 373.015C357.776 373.281 357.299 373.904 357.251 374.527C356.846 379.948 366.472 378.29 363.307 373.009L363.911 372.67V371.653H357.275V371.647ZM357.969 362.978C356.581 364.212 357.299 367.848 359.153 367.666C361.586 367.437 360.826 364.061 361.653 363.788C362.818 363.401 362.891 365.18 362.643 365.991C362.577 366.208 360.771 368.217 362.806 367.673C364.841 367.128 364.316 360.993 360.886 362.724C359.817 363.371 360.258 366.311 359.238 366.426C356.979 365.991 360.071 363.31 359.074 362.572C358.905 362.445 358.175 362.784 357.963 362.972L357.969 362.978ZM357.275 352.602C357.058 353.177 357.752 353.661 357.764 353.969C357.776 354.235 357.299 354.859 357.251 355.482C356.846 360.903 366.472 359.245 363.307 353.963L363.911 353.624V352.608H357.275V352.602ZM357.275 351.089H363.911V349.879C362.329 349.807 358.09 350.539 358.471 347.931C358.519 347.605 359.026 346.854 359.231 346.854H363.905V345.644H358.628C357.704 345.644 356.544 348.978 357.873 349.734L357.269 350.073V351.089H357.275ZM357.341 328.505C357.988 331.318 363.229 331.306 363.851 328.505C364.117 327.319 363.634 325.752 363.791 324.469L357.571 324.33L357.269 324.941C358.169 326.157 356.943 326.768 357.341 328.511V328.505ZM363.911 314.203H358.936C358.537 314.203 357.366 315.334 357.275 315.885C357.046 317.294 358.139 318.087 358.139 318.292C358.139 318.468 357.39 318.855 357.275 319.508C357.106 320.501 357.698 321.844 357.275 322.975H363.911V321.765C362.571 321.668 358.67 322.334 358.471 320.392C358.434 320.035 358.64 319.345 358.936 319.345H363.911C364.545 316.151 358.199 319.4 358.459 316.477C358.597 314.935 362.836 315.522 363.911 315.413V314.203ZM363.911 311.178H357.728C357.408 311.178 357.154 312.037 357.275 312.388H363.911V311.178ZM363.911 306.344L363.458 304.831H357.728C357.16 304.831 357.16 306.344 357.728 306.344H363.911ZM360.892 297.275C357.529 296.827 355.711 301.498 358.803 303.143C362.752 305.255 366.182 299.719 362.245 297.275C361.254 298.376 362.432 298.63 362.643 299.301C363.072 300.657 362.541 302.351 360.892 302.115V297.275ZM359.08 291.225C356.152 291.939 356.858 297.613 359.986 296.204C361.164 295.671 360.868 293.923 361.369 293.058C362.607 290.934 363.543 295.048 361.786 295.641L362.547 296.664C366.212 294.425 361.943 288.448 360.27 292.562C359.986 293.258 360.077 295.641 358.936 295.151C357.305 294.449 359.962 291.963 359.08 291.225ZM357.275 283.668H363.911V282.458C361.399 282.398 358.32 283.166 358.332 279.73H357.281C356.81 280.728 357.879 281.805 357.897 282.301C357.897 282.386 356.84 282.591 357.281 283.662L357.275 283.668ZM357.341 277.406C357.988 280.22 363.229 280.208 363.851 277.406C364.117 276.221 363.634 274.654 363.791 273.371L357.571 273.232L357.269 273.843C358.169 275.059 356.943 275.67 357.341 277.413V277.406ZM357.275 271.877H363.911V270.667C362.456 270.606 358.096 271.254 358.471 268.719C358.519 268.392 359.026 267.642 359.231 267.642H363.905L363.869 266.619C363.555 265.682 359.431 266.123 358.501 266.607C357.003 267.388 356.84 269.293 357.873 270.522L357.269 270.86V271.877H357.275ZM359.074 260.091C356.629 259.976 356.581 264.792 358.93 264.95C361.158 265.095 360.94 263.243 361.333 261.586L362.704 261.295C362.661 262.56 363.144 263.631 361.78 264.205C361.925 266.02 363.555 265.004 363.827 263.794C364.648 260.182 361.375 258.5 360.264 261.12C359.974 261.81 360.083 264.205 358.93 263.709C358.066 263.334 358.308 261.32 359.401 261.108L359.068 260.091H359.074ZM363.911 257.06H357.728C357.408 257.06 357.154 257.919 357.275 258.27H363.911V257.06ZM363.911 251.313L363.458 249.8H357.728C357.16 249.8 357.16 251.313 357.728 251.313H363.911ZM357.335 246.267C358.205 250.03 365.294 248.863 363.772 244.047C362.885 241.234 356.23 241.482 357.335 246.267ZM363.911 235.595H358.936C358.44 235.595 357.468 236.757 357.341 237.325C356.967 238.971 358.205 239.4 357.269 240.592L357.571 241.203L363.422 241.306L363.917 239.836H359.545C358.265 239.836 358.054 236.811 359.545 236.811H363.917V235.601L363.911 235.595ZM363.911 233.78L363.458 232.267H357.728C357.16 232.267 357.16 233.78 357.728 233.78H363.911ZM363.911 225.014H359.238C356.659 225.014 357.565 228.771 357.299 230.265L357.728 230.755H363.911L363.875 229.733L363.416 229.285C361.285 229.158 357.009 229.962 358.936 226.52H363.458L363.911 225.007V225.014ZM357.275 217.754C357.058 218.328 357.752 218.812 357.764 219.121C357.776 219.387 357.299 220.01 357.251 220.633C356.84 226.066 366.52 224.415 363.307 218.97C365.819 218.824 364.998 221.474 365.119 223.199H366.321C366.218 221.553 366.767 219.98 365.584 218.649C365.403 218.449 364.509 217.754 364.364 217.754H357.275ZM357.275 205.66C356.919 207.112 358.265 207.983 357.269 209.144L357.571 209.755L363.784 209.616L363.917 208.388C361.532 208.279 357.957 209.253 358.483 205.666H357.281L357.275 205.66ZM357.335 203.633C357.957 206.367 362.975 206.428 363.772 203.863C365.511 198.242 356.025 197.891 357.335 203.633ZM363.911 189.639H359.238C358.64 189.639 357.414 190.607 357.281 191.315C356.961 193.003 358.132 193.511 358.132 193.717C358.132 193.832 357.36 194.546 357.275 195.26C357.16 196.167 357.655 197.365 357.275 198.406H363.911V197.196H359.539C358.145 197.196 358.356 194.776 359.238 194.776H363.911V193.566C362.619 193.535 358.271 194.044 358.459 191.908C358.483 191.642 358.748 191.146 358.936 191.146H363.458L363.911 189.633V189.639ZM369.34 482.913H379.297V481.703C377.842 481.642 373.482 482.29 373.857 479.755C373.905 479.428 374.412 478.678 374.617 478.678H379.291L379.255 477.655C378.953 476.748 375.004 477.147 374.092 477.547C372.323 478.327 372.269 480.221 373.259 481.697H369.334V482.907L369.34 482.913ZM369.34 450.866V452.076H379.297V450.866H369.34ZM369.793 252.523H379.297L379.261 251.5L378.802 251.053C376.671 250.926 372.395 251.73 374.322 248.288H378.844L379.297 246.775H374.624C372.794 246.775 372.214 249.595 372.963 251.004C372.595 251.319 367.945 250.157 369.799 252.517L369.793 252.523ZM370.397 199.313H378.844C379.805 198.024 379.394 194.376 378.084 193.426C377.021 192.658 374.726 192.646 374.454 194.171C370.668 191.484 368.99 196.421 370.397 199.313ZM370.246 400.814C370.457 401.559 372.347 401.528 372.009 400.27C371.628 398.854 369.944 399.756 370.246 400.814ZM370.276 270.788C370.548 271.629 372.329 271.471 372.015 270.268C371.701 269.064 369.775 269.239 370.276 270.788ZM370.294 224.505C370.674 225.921 372.359 225.02 372.057 223.961C371.846 223.217 369.956 223.247 370.294 224.505ZM374.171 390.699H379.297V389.489H374.171C374.382 387.426 372.486 387.383 372.649 389.477L370.849 389.64V390.693L372.643 390.729L372.824 391.624L374.146 391.564L374.171 390.699ZM374.171 320.555H379.297L378.844 319.043H374.171V317.833H372.661V319.049L370.849 319.218V320.555L372.649 320.585L372.83 321.481L374.153 321.42L374.177 320.555H374.171ZM374.171 274.896H379.297L378.844 273.383H374.171L373.995 272.167H372.661V273.383H370.849V274.896H372.661C372.214 276.499 373.615 277.763 372.655 278.98L372.8 279.439C373.09 279.833 377.806 279.869 378.542 279.73C379.279 279.591 379.297 279.343 379.303 278.671C379.309 277.951 379.11 278.26 378.555 278.217C375.88 278.005 372.987 278.992 374.165 274.89L374.171 274.896ZM372.727 474.231C373.301 476.766 378.102 476.942 379.074 474.673C380.529 471.261 376.634 468.532 373.857 470.656C372.721 471.527 372.413 472.846 372.727 474.231ZM379.297 460.238H374.322C373.923 460.238 372.752 461.369 372.661 461.919C372.432 463.329 373.525 464.122 373.525 464.327C373.525 464.503 372.776 464.89 372.661 465.543C372.492 466.536 373.084 467.879 372.661 469.01H379.297V467.8C377.957 467.703 374.056 468.369 373.857 466.427C373.82 466.07 374.026 465.38 374.322 465.38H379.297C379.931 462.186 373.585 465.434 373.845 462.512C373.983 460.97 378.222 461.556 379.297 461.448V460.238ZM376.284 453.28C371.369 452.748 371.29 459.802 376.435 459.342C379.744 459.046 380.336 455.143 377.939 453.286C376.2 453.831 377.842 454.696 378.035 455.307C378.488 456.765 377.812 457.975 376.284 458.12V453.28ZM376.284 443.606C372.921 443.158 371.103 447.829 374.195 449.475C378.144 451.586 381.574 446.05 377.637 443.606C376.646 444.707 377.824 444.961 378.035 445.633C378.464 446.988 377.933 448.682 376.284 448.446V443.606ZM374.467 437.562C371.538 438.276 372.244 443.951 375.372 442.541C376.55 442.009 376.254 440.26 376.755 439.395C377.993 437.272 378.929 441.386 377.172 441.979L377.933 443.001C381.598 440.763 377.329 434.785 375.656 438.899C375.372 439.595 375.463 441.979 374.322 441.489C372.691 440.787 375.348 438.3 374.467 437.562ZM374.467 431.512C371.538 432.226 372.244 437.901 375.372 436.491C376.55 435.959 376.254 434.21 376.755 433.345C377.993 431.222 378.929 435.336 377.172 435.929L377.933 436.951C381.598 434.713 377.329 428.735 375.656 432.849C375.372 433.545 375.463 435.929 374.322 435.439C372.691 434.737 375.348 432.25 374.467 431.512ZM379.297 424.863H374.624C372.045 424.863 372.951 428.62 372.685 430.115L373.114 430.605H379.297L379.261 429.582L378.802 429.134C376.671 429.007 372.395 429.812 374.322 426.37H378.844L379.297 424.857V424.863ZM376.284 417.603C372.921 417.155 371.103 421.826 374.195 423.472C378.144 425.583 381.574 420.047 377.637 417.603C376.646 418.704 377.824 418.958 378.035 419.63C378.464 420.985 377.933 422.679 376.284 422.443V417.603ZM374.467 411.559C371.538 412.273 372.244 417.948 375.372 416.538C376.55 416.006 376.254 414.258 376.755 413.392C377.993 411.269 378.929 415.383 377.172 415.976L377.933 416.998C381.598 414.76 377.329 408.782 375.656 412.896C375.372 413.592 375.463 415.976 374.322 415.486C372.691 414.784 375.348 412.297 374.467 411.559ZM374.467 405.515C371.538 406.229 372.244 411.904 375.372 410.494C376.55 409.962 376.254 408.214 376.755 407.348C377.993 405.225 378.929 409.339 377.172 409.932L377.933 410.954C381.598 408.716 377.329 402.738 375.656 406.852C375.372 407.548 375.463 409.932 374.322 409.442C372.691 408.74 375.348 406.253 374.467 405.515ZM379.297 399.768H373.114C372.794 399.768 372.54 400.627 372.661 400.978H379.297V399.768ZM372.661 397.953H379.297V396.743C377.715 396.67 373.476 397.402 373.857 394.795C373.905 394.468 374.412 393.718 374.617 393.718H379.291V392.508H374.014C373.09 392.508 371.93 395.841 373.259 396.598L372.655 396.936V397.953H372.661ZM372.727 385.647C373.301 388.182 378.102 388.357 379.074 386.089C380.529 382.677 376.634 379.948 373.857 382.072C372.721 382.943 372.413 384.262 372.727 385.647ZM372.661 377.395H381.713V376.185H378.693C381.942 369.518 370.191 369.379 373.265 376.046L372.661 376.385V377.401V377.395ZM376.284 364.393C371.387 364.127 371.194 370.819 376.447 370.456C379.774 370.226 380.312 366.251 377.939 364.393C376.351 364.877 377.878 365.918 378.035 366.414C378.494 367.854 377.8 369.088 376.284 369.227V364.387V364.393ZM372.661 359.251C372.305 360.703 373.651 361.574 372.655 362.736L372.957 363.347L379.17 363.208L379.303 361.979C376.918 361.871 373.343 362.845 373.869 359.257H372.667L372.661 359.251ZM373.114 358.948H379.297C379.931 355.754 373.585 359.003 373.845 356.081C373.983 354.538 378.222 355.125 379.297 355.016V353.806H374.919C373.525 353.806 373.736 351.386 374.617 351.386H379.291V350.176H374.014C373.947 350.176 372.987 350.92 372.939 350.993C371.894 352.729 373.518 353.957 373.512 354.266C373.512 354.459 372.939 354.744 372.812 355.022C372.323 356.075 373.09 357.297 372.685 358.452L373.108 358.948H373.114ZM379.297 342.928H372.661V343.944C373.748 344.307 372.806 344.531 372.673 345.517C371.882 351.253 382.009 349.916 378.693 344.283L379.297 343.944V342.928ZM379.297 335.971H374.322C373.826 335.971 372.854 337.132 372.727 337.701C372.353 339.346 373.591 339.776 372.655 340.968L372.957 341.579L378.808 341.682L379.303 340.212H374.931C373.651 340.212 373.44 337.187 374.931 337.187H379.303V335.977L379.297 335.971ZM376.284 328.717C372.921 328.269 371.103 332.939 374.195 334.585C378.144 336.697 381.574 331.161 377.637 328.717C376.646 329.818 377.824 330.072 378.035 330.743C378.464 332.099 377.933 333.792 376.284 333.557V328.717ZM379.297 322.062H374.624C372.045 322.062 372.951 325.819 372.685 327.313L373.114 327.803H379.297L379.261 326.781L378.802 326.333C376.671 326.206 372.395 327.01 374.322 323.568H378.844L379.297 322.056V322.062ZM374.467 309.066C371.538 309.78 372.244 315.455 375.372 314.045C376.55 313.513 376.254 311.764 376.755 310.899C377.993 308.776 378.929 312.89 377.172 313.483L377.933 314.505C381.598 312.267 377.329 306.289 375.656 310.403C375.372 311.099 375.463 313.483 374.322 312.993C372.691 312.291 375.348 309.804 374.467 309.066ZM377.637 306.646H373.114C372.794 306.646 372.54 307.505 372.661 307.856H377.939C379.237 307.856 379.949 304.535 378.693 303.772L379.297 303.434V302.417H372.655V303.627C374.913 303.579 379.563 303.059 377.631 306.652L377.637 306.646ZM373.114 301.201H381.713V299.689H378.995C380.626 296.034 376.809 293.385 373.76 295.502C371.731 296.918 373.229 298.769 372.679 300.711L373.108 301.201H373.114ZM372.661 293.645H381.713V292.435H378.995C381.429 286.609 372.057 285.586 372.637 291.086C372.746 292.138 373.398 292.181 372.661 293.645ZM372.727 284.66C373.349 287.395 378.367 287.456 379.164 284.89C380.904 279.27 371.417 278.919 372.727 284.66ZM372.661 269.759V270.969H379.297V269.759H372.661ZM377.184 265.827C376.314 265.93 371.477 267.212 372.661 268.549C374.092 267.872 377.721 267.212 378.82 266.408C379.225 266.111 379.352 265.887 379.321 265.373C379.34 264.835 379.237 265.004 378.923 264.841C378.392 264.568 372.884 262.566 372.661 262.808C372.148 265.065 376.151 264.284 377.184 265.827ZM376.284 256.455C371.369 255.923 371.29 262.977 376.435 262.517C379.744 262.221 380.336 258.319 377.939 256.461C376.2 257.006 377.842 257.871 378.035 258.482C378.488 259.94 377.812 261.15 376.284 261.295V256.455ZM373.355 240.526C370.475 243.793 375.88 248.094 378.693 244.737C381.507 241.379 376.043 237.477 373.355 240.526ZM377.637 237.107H373.114C372.794 237.107 372.54 237.967 372.661 238.317H377.939C379.237 238.317 379.949 234.996 378.693 234.234L379.297 233.895V232.879H372.655V234.089C374.913 234.04 379.563 233.52 377.631 237.114L377.637 237.107ZM374.467 226.526C372.208 226.847 371.906 231.215 374.086 231.614C376.405 232.038 376.194 229.539 376.64 228.25C377.087 226.962 378.446 227.918 378.084 229.69C377.945 230.368 376.332 231.463 377.927 231.959C380.439 230.64 379.37 225.026 376.405 226.804C375.179 227.542 375.626 228.928 375.209 229.841C374.575 231.239 373.313 230.023 374.02 228.341C374.261 227.76 375.119 227.736 374.46 226.52L374.467 226.526ZM372.661 223.804C372.54 224.154 372.794 225.014 373.114 225.014H379.297V223.804H372.661ZM379.297 216.241H374.624C372.045 216.241 372.951 219.998 372.685 221.492L373.114 221.982H379.297L379.261 220.96L378.802 220.512C376.671 220.385 372.395 221.19 374.322 217.747H378.844L379.297 216.235V216.241ZM379.75 208.987C377.872 208.582 374.696 209.284 372.661 208.987V210.003C373.748 210.366 372.806 210.59 372.673 211.576C371.882 217.318 382.057 216.005 378.699 210.197C381.115 210.451 380.469 212.635 380.511 214.426H381.713C381.864 212.708 381.93 209.453 379.75 208.981V208.987ZM377.184 189.633C376.405 189.954 371.429 191.291 372.661 192.658C375.789 191.944 378.561 189.01 381.707 191.146L381.731 189.821L372.661 186.614L372.969 187.667L377.184 189.633ZM379.273 206.295C378.826 205.666 377.19 206.228 377.492 207.317C377.818 208.491 380.094 207.444 379.273 206.295ZM394.683 446.631H385.179C384.859 446.631 384.599 447.502 384.726 447.841H388.645C386.628 451.15 389.526 454.054 392.986 452.651C395.825 451.501 394.055 448.857 394.677 446.637L394.683 446.631ZM389.557 398.255C389.774 398.116 393.91 398.255 394.683 398.255V397.045H389.557C389.665 394.904 388.083 394.994 387.878 397.063C385.553 397.499 386.139 395.853 385.481 395.533C384.243 394.934 384.527 397.499 385.704 398.031C386.525 398.4 387.196 398.098 387.836 398.249C388.18 398.328 388.192 399.06 388.506 399.157C389.496 399.477 389.472 398.31 389.557 398.255ZM394.23 327.809H385.179C384.931 327.809 384.575 328.559 384.732 328.862L385.227 329.273L388.645 329.328C386.556 332.534 389.792 335.269 393.095 333.932C395.432 332.988 394.315 330.392 394.683 328.565C394.707 328.293 394.448 327.876 394.23 327.809ZM394.683 276.408H385.179C384.859 276.408 384.605 277.267 384.726 277.618H394.683V276.408ZM394.683 253.128H385.179C384.859 253.128 384.599 253.999 384.726 254.338H388.645C386.628 257.647 389.526 260.551 392.986 259.148C395.825 257.998 394.055 255.354 394.677 253.134L394.683 253.128ZM394.23 207.475H385.179C384.931 207.475 384.575 208.225 384.732 208.527L385.227 208.939L388.645 208.993C386.556 212.2 389.792 214.934 393.095 213.597C395.432 212.653 394.315 210.058 394.683 208.231C394.707 207.959 394.448 207.541 394.23 207.475ZM385.662 455.519C385.934 456.359 387.715 456.202 387.401 454.998C387.087 453.794 385.161 453.97 385.662 455.519ZM385.662 444.635C385.934 445.476 387.715 445.318 387.401 444.114C387.087 442.91 385.161 443.086 385.662 444.635ZM385.638 375.725C385.879 376.53 387.805 376.336 387.443 375.126C387.202 374.321 385.275 374.515 385.638 375.725ZM385.68 274.091C386.06 275.507 387.745 274.605 387.443 273.547C387.232 272.802 385.342 272.833 385.68 274.091ZM385.638 205.508C385.879 206.313 387.805 206.119 387.443 204.909C387.202 204.105 385.275 204.298 385.638 205.508ZM389.557 372.555H394.683V371.345H389.557V370.135H388.047V371.351L386.235 371.502V372.555L388.005 372.603C388.119 374.261 389.581 374.207 389.557 372.561V372.555ZM388.047 480.493H397.099V479.283H394.079C397.455 472.398 385.45 472.489 388.651 479.144L388.047 479.483V480.499V480.493ZM388.5 473.239H394.683L394.188 471.769C391.797 471.557 389.212 472.61 389.104 469.306H388.047C387.926 470.807 388.892 471.345 388.047 472.779L388.5 473.239ZM388.113 466.977C388.983 470.74 396.072 469.573 394.55 464.757C393.663 461.944 387.008 462.192 388.113 466.977ZM392.57 459.929C391.676 460.371 388.953 460.788 388.343 461.29C388.011 461.569 387.914 462.512 388.047 462.651C388.27 462.893 393.602 460.873 394.261 460.57C395.052 460.207 394.816 459.493 394.206 459.052C393.941 458.858 388.264 456.668 388.053 456.91L388.349 458.271L392.576 459.929H392.57ZM388.047 454.49V455.7H394.683V454.49H388.047ZM388.047 443.606V444.816H394.683V443.606H388.047ZM388.047 441.791H394.683V440.581C393.228 440.521 388.868 441.168 389.243 438.633C389.291 438.306 389.798 437.556 390.003 437.556H394.677L394.641 436.534C394.327 435.596 390.203 436.038 389.273 436.522C387.775 437.302 387.612 439.208 388.645 440.436L388.041 440.775V441.791H388.047ZM394.834 428.79C393.415 428.505 390.173 428.79 388.5 428.79C388.071 428.79 387.673 430.066 388.651 430.145C385.372 436.522 396.767 437.114 394.381 430.302L395.734 430.907L396.169 434.398L397.087 434.531C397.165 432.42 397.527 429.334 394.828 428.79H394.834ZM388.047 424.561H394.683V423.351C393.228 423.29 388.868 423.938 389.243 421.403C389.291 421.076 389.798 420.326 390.003 420.326H394.677L394.641 419.303C394.327 418.365 390.203 418.807 389.273 419.291C387.775 420.072 387.612 421.977 388.645 423.205L388.041 423.544V424.561H388.047ZM391.67 411.559C385.535 411.741 387.962 420.217 393.349 417.307C395.384 416.206 395.1 413.06 393.325 411.862L392.576 412.322C393.675 413.925 394.357 416.375 391.67 416.399V411.559ZM392.274 409.139C391.41 409.351 388.935 409.708 388.349 410.198C388.017 410.476 387.92 411.42 388.053 411.559C388.289 411.807 394.363 409.744 394.55 409.46C394.713 409.218 394.792 408.395 394.677 408.25C394.514 408.056 391.006 407.645 390.77 406.725C391.954 406.368 394.683 406.217 394.707 404.753C394.719 404.1 394.617 404.408 394.273 404.263C393.536 403.954 388.295 402.254 388.059 402.484C387.932 404.602 391.332 403.894 392.28 405.201C391.398 405.285 387.655 405.909 388.059 407.161C388.307 407.923 391.863 408.111 392.274 409.127V409.139ZM388.047 393.718V394.928H393.023C394.393 394.928 395.523 391.764 394.079 390.844C395.04 390.862 394.726 389.186 394.23 389.186H388.5C388.252 389.186 387.896 389.937 388.053 390.239C388.391 391.316 392.588 390.033 393.331 391.298C393.85 392.078 393.331 393.724 392.425 393.724H388.053L388.047 393.718ZM388.047 387.976H394.683V386.766C392.292 386.657 388.723 387.625 389.249 384.044H388.047C387.576 385.042 388.645 386.119 388.663 386.615C388.663 386.7 387.606 386.905 388.047 387.976ZM394.683 378H389.708C389.212 378 388.24 379.161 388.113 379.73C387.739 381.376 388.977 381.805 388.041 382.997L388.343 383.608L394.194 383.711L394.689 382.241H390.317C389.037 382.241 388.826 379.216 390.317 379.216H394.689V378.006L394.683 378ZM394.683 376.185L394.23 374.672H388.5C387.932 374.672 387.932 376.185 388.5 376.185H394.683ZM388.047 368.023V369.233H393.325C394.291 369.233 395.517 365.876 394.079 365.15L394.683 364.811V363.794H388.041C387.793 365.688 390.402 364.859 391.785 365.035C394.665 365.404 393.264 368.029 392.721 368.029H388.047V368.023ZM388.047 358.343C387.691 359.795 389.037 360.667 388.041 361.828L388.343 362.439L394.556 362.3L394.689 361.072C392.304 360.963 388.729 361.937 389.255 358.349H388.053L388.047 358.343ZM391.67 352.299C386.755 351.767 386.676 358.821 391.821 358.362C395.13 358.065 395.722 354.163 393.325 352.306C391.586 352.85 393.228 353.715 393.421 354.326C393.874 355.784 393.198 356.994 391.67 357.139V352.299ZM388.047 342.323C387.83 342.898 388.524 343.382 388.536 343.69C388.548 343.956 388.071 344.58 388.023 345.203C387.618 350.624 397.244 348.966 394.079 343.684L394.683 343.345V342.329H388.047V342.323ZM394.683 335.366H389.708C389.212 335.366 388.24 336.527 388.113 337.096C387.739 338.741 388.977 339.171 388.041 340.363L388.343 340.974L394.194 341.077L394.689 339.607H390.317C389.037 339.607 388.826 336.582 390.317 336.582H394.689V335.372L394.683 335.366ZM388.047 323.574H397.099V322.364H394.079C397.328 315.697 385.577 315.558 388.651 322.225L388.047 322.564V323.58V323.574ZM391.67 310.573C386.773 310.306 386.58 316.998 391.833 316.635C395.16 316.405 395.698 312.43 393.325 310.573C391.737 311.057 393.264 312.097 393.421 312.593C393.88 314.033 393.186 315.267 391.67 315.407V310.567V310.573ZM388.047 305.436C387.691 306.888 389.037 307.759 388.041 308.921L388.343 309.532L394.556 309.393L394.689 308.165C392.304 308.056 388.729 309.03 389.255 305.442H388.053L388.047 305.436ZM389.853 299.991C386.924 300.705 387.63 306.38 390.758 304.97C391.936 304.438 391.64 302.689 392.141 301.824C393.379 299.701 394.315 303.815 392.558 304.408L393.319 305.43C396.984 303.192 392.715 297.214 391.042 301.328C390.758 302.024 390.849 304.408 389.708 303.918C388.077 303.216 390.734 300.729 389.853 299.991ZM388.747 294.038C385.867 297.305 391.272 301.607 394.085 298.249C396.899 294.891 391.435 290.989 388.747 294.038ZM394.683 286.391H390.01C387.431 286.391 388.337 290.148 388.071 291.642L388.5 292.132H394.683L394.647 291.11L394.188 290.662C392.057 290.535 387.781 291.34 389.708 287.897H394.23L394.683 286.385V286.391ZM394.683 279.131H388.047V280.147C389.134 280.51 388.192 280.734 388.059 281.72C387.268 287.456 397.395 286.119 394.079 280.486L394.683 280.147V279.131ZM388.047 273.389C387.926 273.74 388.18 274.599 388.5 274.599H394.683V273.389H388.047ZM388.047 267.037V271.423C388.047 271.726 388.989 272.204 389.412 271.58L389.702 268.852C391.326 269.814 392.685 271.955 394.683 271.871V267.031H393.476L393.319 270.056C392.383 270.032 389.659 266.323 388.041 267.031L388.047 267.037ZM391.67 260.085C385.535 260.267 387.962 268.743 393.349 265.833C395.384 264.732 395.1 261.586 393.325 260.388L392.576 260.848C393.675 262.451 394.357 264.901 391.67 264.925V260.085ZM394.834 240.126C393.415 239.842 390.173 240.126 388.5 240.126C388.071 240.126 387.673 241.403 388.651 241.482C385.372 247.858 396.767 248.451 394.381 241.639L395.734 242.244L396.169 245.735L397.087 245.868C397.165 243.756 397.527 240.671 394.828 240.126H394.834ZM388.5 238.922H394.683L394.188 237.452C391.797 237.241 389.212 238.293 389.104 234.99H388.047C387.926 236.49 388.892 237.029 388.047 238.463L388.5 238.922ZM388.113 232.661C388.983 236.424 396.072 235.256 394.55 230.44C393.663 227.627 387.008 227.875 388.113 232.661ZM393.029 226.224H388.506C388.186 226.224 387.932 227.083 388.053 227.434H393.331C394.629 227.434 395.341 224.112 394.085 223.35L394.689 223.011V221.995H388.047V223.205C390.305 223.156 394.955 222.636 393.023 226.23L393.029 226.224ZM394.683 215.037H389.708C389.212 215.037 388.24 216.199 388.113 216.767C387.739 218.413 388.977 218.843 388.041 220.034L388.343 220.645L394.194 220.748L394.689 219.278H390.317C389.037 219.278 388.826 216.253 390.317 216.253H394.689V215.043L394.683 215.037ZM394.683 205.962L394.23 204.45H388.5C387.932 204.45 387.932 205.962 388.5 205.962H394.683ZM394.683 197.196H389.708C389.212 197.196 388.24 198.357 388.113 198.926C387.739 200.572 388.977 201.001 388.041 202.193L388.343 202.804L394.194 202.907L394.689 201.437H390.317C389.037 201.437 388.826 198.412 390.317 198.412H394.689V197.202L394.683 197.196ZM397.099 195.381C397.219 191.775 397.376 189.966 393.337 189.621C392.485 189.548 388.21 189.415 388.047 190.093C387.908 190.656 388.542 191.049 388.542 191.291C388.542 191.478 388.107 191.829 388.059 192.21C387.347 198.073 396.761 196.966 394.381 191.146C396.67 190.686 395.601 195.102 395.891 195.381H397.093H397.099ZM396.193 251.918C396.851 251.301 393.409 249.25 392.902 250.895C392.34 252.723 394.701 251.428 394.834 251.428C395.1 251.428 395.631 252.154 396.187 251.924L396.193 251.918ZM404.943 358.646C405.311 358.404 409.224 358.827 410.069 358.646L409.616 357.133H404.943V355.923H403.433V357.139H401.32V355.923H400.118C399.822 358.567 401.591 358.162 403.21 358.664C403.481 358.749 403.324 359.203 403.88 359.275C405.299 359.463 404.882 358.688 404.943 358.646ZM400.118 307.554V309.066H403.741C401.942 312.363 405.039 315.213 408.391 313.87C411.742 312.527 409.659 309.943 410.081 307.554H400.124H400.118ZM403.735 273.994C401.223 278.26 408.119 280.909 409.997 277.098C410.721 275.628 410.051 275.434 409.924 274.339C409.858 273.746 410.389 272.736 409.779 272.312L400.601 272.222C399.907 272.452 400.118 273.407 400.106 273.994H403.729H403.735ZM403.735 234.082C401.223 238.348 408.119 240.998 409.997 237.186C410.721 235.716 410.051 235.522 409.924 234.427C409.858 233.834 410.389 232.824 409.779 232.401L400.601 232.31C399.907 232.54 400.118 233.496 400.106 234.082H403.729H403.735ZM400.118 174.218V175.73H403.741C401.984 178.937 405.057 181.823 408.336 180.486C411.416 179.227 409.707 176.589 410.075 174.218H400.118ZM401.066 475.151C401.446 476.566 403.131 475.665 402.829 474.606C402.618 473.862 400.728 473.892 401.066 475.151ZM401.024 388.115C401.235 388.86 403.125 388.829 402.787 387.571C402.406 386.155 400.722 387.057 401.024 388.115ZM401.06 322.406C400.365 323.526 401.935 324.966 402.696 323.895C403.53 322.727 401.609 321.529 401.06 322.406ZM401.024 231.057L402.702 230.779L402.545 229.382H401.295L401.018 231.064L401.024 231.057ZM401.024 213.222L402.702 212.944L402.545 211.546H401.295L401.018 213.228L401.024 213.222ZM404.943 430H410.069V428.79H404.943V427.58H403.433V428.796L401.621 428.947V430L403.391 430.048C403.505 431.706 404.967 431.651 404.943 430.006V430ZM404.943 371.95H410.069V370.74H404.943V369.53H403.433V370.746L401.621 370.897V371.95L403.391 371.998C403.505 373.656 404.967 373.602 404.943 371.956V371.95ZM404.943 342.021H410.069L409.616 340.508H404.943V339.298H403.433V340.514L401.621 340.683V342.021L403.421 342.051L403.602 342.946L404.925 342.886L404.949 342.021H404.943ZM404.943 209.592H410.069V208.08H404.943L404.641 206.573C406.217 206.555 408.27 204.891 409.653 204.758C410.625 204.661 411.15 205.321 412.032 205.375C412.913 205.43 412.533 204.323 412.195 203.996C411.857 203.669 403.753 200.481 403.439 200.832L403.475 202.308L407.358 203.554C407.485 204.244 407.316 204.032 406.972 204.226C404.918 205.363 402.787 204.631 403.439 208.086H401.628V209.598H403.439V210.808H404.949V209.598L404.943 209.592ZM410.075 315.11H404.798C404.713 315.11 403.747 316.12 403.62 316.344C402.714 317.923 403.94 319.121 403.445 320.858H410.081V319.345C408.777 319.291 404.417 319.914 404.635 317.7C404.665 317.373 405.214 316.623 405.402 316.623H410.075V315.11ZM407.358 300.596C401.984 299.834 401.778 307.445 407.207 306.961C409.81 306.725 411.09 304.093 409.9 301.83C409.248 300.596 407.612 300.197 407.732 301.661C407.775 302.145 410.715 304.184 407.358 305.436V300.596ZM403.433 299.689H412.485V298.176H409.767C412.303 293.778 405.504 291.019 403.499 295.073C402.702 296.688 403.94 297.952 403.427 299.689H403.433ZM407.358 286.391C404.423 285.973 402.038 288.611 403.789 291.328C405.927 294.649 412.159 292.168 409.834 287.691C409.127 286.33 407.618 285.985 407.738 287.456C407.793 288.091 410.643 290.045 407.358 291.231V286.391ZM410.075 279.736H405.1C404.973 279.736 404.031 280.432 403.874 280.625C402.431 282.355 403.958 283.553 403.439 285.483H410.075V283.971H405.703C404.81 283.971 404.025 281.248 405.703 281.248H410.075V279.736ZM407.358 265.222C404.423 264.804 402.038 267.442 403.789 270.159C405.927 273.48 412.159 271 409.834 266.523C409.127 265.161 407.618 264.816 407.738 266.287C407.793 266.922 410.643 268.876 407.358 270.062V265.222ZM410.075 258.573H405.1C404.973 258.573 404.031 259.269 403.874 259.462C402.431 261.193 403.958 262.39 403.439 264.32H410.075V262.808H405.703C404.81 262.808 404.025 260.085 405.703 260.085H410.075V258.573ZM408.493 255.778C407.4 256.867 404.526 256.213 404.701 254.531C404.792 253.666 406.452 253.031 404.792 251.924C401.585 254.199 403.632 258.397 407.364 257.847C410.383 257.405 411.41 253.793 408.97 251.942L407.974 252.71C407.914 253.043 409.755 254.519 408.487 255.778H408.493ZM407.358 249.806V245.42C407.358 244.24 403.01 245.584 403.149 248.421C403.355 252.632 410.365 252.674 410.377 248.143C410.377 246.709 408.511 243.938 407.678 246.285C409.164 247.362 409.52 249.57 407.352 249.8L407.358 249.806ZM403.433 221.686C403.94 223.428 402.708 224.681 403.505 226.302C405.492 230.344 412.255 227.434 409.767 223.199C411.893 223.592 411.186 225.861 411.277 227.427H412.479C412.388 226.036 412.847 223.428 411.796 222.37C411.724 222.297 410.595 221.68 410.522 221.68H403.433V221.686ZM410.075 214.735H404.798C404.713 214.735 403.747 215.745 403.62 215.969C402.714 217.548 403.94 218.746 403.445 220.482H410.081V218.97C408.777 218.915 404.417 219.538 404.635 217.324C404.665 216.997 405.214 216.247 405.402 216.247H410.075V214.735ZM403.185 192.434C403.656 195.405 408.161 196.137 409.773 193.723C410.903 192.029 409.725 190.601 409.949 188.714L403.723 188.562C403.119 188.986 403.644 189.996 403.578 190.589C403.512 191.182 403.047 191.563 403.185 192.434ZM410.075 181.774H404.798C404.604 181.774 403.946 182.337 403.777 182.567C402.6 184.224 403.922 185.701 403.439 187.522H410.075V186.009C408.656 185.931 404.58 186.638 404.653 184.339C404.665 184.001 405.232 183.287 405.402 183.287H410.075V181.774ZM407.056 489.864C400.921 490.046 403.348 498.522 408.735 495.612C410.77 494.511 410.486 491.365 408.711 490.167L407.962 490.627C409.061 492.23 409.743 494.68 407.056 494.704V489.864ZM403.433 488.957H410.069V487.747C408.487 487.674 404.248 488.406 404.629 485.799C404.677 485.472 405.184 484.722 405.389 484.722H410.063V483.512H404.786C403.862 483.512 402.702 486.845 404.031 487.602L403.427 487.94V488.957H403.433ZM407.962 479.888C407.092 479.991 402.256 481.273 403.439 482.61C404.87 481.933 408.499 481.273 409.598 480.469C410.003 480.172 410.13 479.948 410.099 479.434C410.118 478.896 410.015 479.065 409.701 478.902C409.17 478.63 403.662 476.627 403.439 476.869C402.926 479.126 406.929 478.345 407.962 479.888ZM403.433 474.449C403.312 474.8 403.566 475.659 403.886 475.659H410.069V474.449H403.433ZM403.886 472.634H410.069L409.574 471.164C407.183 470.952 404.598 472.005 404.49 468.701H403.433C403.312 470.202 404.278 470.74 403.433 472.174L403.886 472.634ZM403.499 466.372C404.369 470.135 411.458 468.968 409.936 464.152C409.049 461.339 402.394 461.587 403.499 466.372ZM410.075 455.7H405.1C404.604 455.7 403.632 456.862 403.505 457.43C403.131 459.076 404.369 459.505 403.433 460.697L403.735 461.308L409.586 461.411L410.081 459.941H405.71C404.429 459.941 404.218 456.916 405.71 456.916H410.081V455.706L410.075 455.7ZM410.075 445.421H405.402C404.804 445.421 403.578 446.389 403.445 447.097C403.125 448.785 404.296 449.293 404.296 449.499C404.296 449.614 403.524 450.328 403.439 451.042C403.324 451.949 403.819 453.147 403.439 454.188H410.075V452.978H405.703C404.309 452.978 404.52 450.558 405.402 450.558H410.075V449.348C408.783 449.317 404.435 449.825 404.623 447.69C404.647 447.424 404.912 446.928 405.1 446.928H409.622L410.075 445.415V445.421ZM407.056 438.47C402.159 438.203 401.966 444.895 407.219 444.532C410.546 444.302 411.084 440.327 408.711 438.47C407.122 438.954 408.65 439.994 408.807 440.49C409.266 441.93 408.572 443.164 407.056 443.304V438.464V438.47ZM410.075 431.815H405.402C402.823 431.815 403.729 435.572 403.463 437.066L403.892 437.556H410.075L410.039 436.534L409.58 436.086C407.449 435.959 403.173 436.764 405.1 433.321H409.622L410.075 431.809V431.815ZM405.245 421.838C402.986 422.159 402.684 426.527 404.864 426.926C407.183 427.35 406.972 424.851 407.418 423.562C407.865 422.274 409.224 423.23 408.862 425.002C408.723 425.68 407.11 426.775 408.705 427.271C411.217 425.952 410.148 420.338 407.183 422.116C405.957 422.855 406.404 424.24 405.987 425.154C405.353 426.551 404.091 425.335 404.798 423.653C405.039 423.072 405.897 423.048 405.238 421.832L405.245 421.838ZM407.358 413.368C406.211 413.695 402.225 414.124 403.886 415.782L410.033 413.634V412.503L406.15 411.105L410.033 409.708V408.577L403.886 406.429C402.274 408.093 405.879 408.329 406.935 408.813C407.292 408.976 407.479 408.667 407.358 409.442C406.482 409.684 403.016 410.053 403.445 411.396C403.62 411.952 406.283 412.443 406.935 412.739C407.292 412.902 407.479 412.594 407.358 413.368ZM407.056 400.07C403.693 399.623 401.875 404.293 404.967 405.939C408.916 408.05 412.346 402.514 408.409 400.07C407.418 401.171 408.596 401.425 408.807 402.097C409.236 403.452 408.705 405.146 407.056 404.91V400.07ZM403.499 394.414C404.146 397.227 409.387 397.215 410.009 394.414C410.275 393.228 409.792 391.661 409.949 390.378L403.729 390.239L403.427 390.85C404.327 392.066 403.101 392.677 403.499 394.42V394.414ZM410.075 387.069H403.892C403.572 387.069 403.318 387.928 403.439 388.279H410.075V387.069ZM410.075 376.487H405.402C404.804 376.487 403.578 377.455 403.445 378.163C403.125 379.851 404.296 380.359 404.296 380.565C404.296 380.68 403.524 381.394 403.439 382.108C403.324 383.015 403.819 384.213 403.439 385.254H410.075V384.044H405.703C404.309 384.044 404.52 381.624 405.402 381.624H410.075V380.414C408.783 380.384 404.435 380.892 404.623 378.756C404.647 378.49 404.912 377.994 405.1 377.994H409.622L410.075 376.481V376.487ZM403.499 366.898C404.369 370.661 411.458 369.494 409.936 364.678C409.049 361.865 402.394 362.113 403.499 366.898ZM404.133 350.279C401.253 353.546 406.658 357.847 409.471 354.49C412.346 351.065 406.821 347.23 404.133 350.279ZM405.245 343.231C402.316 343.944 403.022 349.619 406.15 348.21C407.328 347.677 407.032 345.929 407.533 345.064C408.771 342.94 409.707 347.054 407.95 347.647L408.711 348.669C412.376 346.431 408.107 340.454 406.434 344.568C406.15 345.263 406.241 347.647 405.1 347.157C403.469 346.455 406.126 343.969 405.245 343.231ZM407.056 332.649C400.921 332.831 403.348 341.307 408.735 338.397C410.77 337.295 410.486 334.149 408.711 332.952L407.962 333.411C409.061 335.015 409.743 337.465 407.056 337.489V332.649ZM403.433 331.742H410.069V330.532C407.557 330.471 404.478 331.239 404.49 327.803H403.439C402.968 328.801 404.037 329.878 404.055 330.374C404.055 330.459 402.998 330.665 403.439 331.736L403.433 331.742ZM403.433 322.364V323.877H410.069V322.364H403.433ZM403.433 231.057H410.069L410.051 229.563C407.835 229.115 405.655 229.121 403.445 229.563L403.427 231.057H403.433ZM403.433 213.222H410.069L410.051 211.728C407.835 211.28 405.655 211.286 403.445 211.728L403.427 213.222H403.433ZM411.579 420.931C411.531 419.485 408.729 418.293 408.306 419.926C407.829 421.778 410.063 420.447 410.232 420.435C410.625 420.404 411.035 421.106 411.579 420.937V420.931ZM411.881 244.361C410.897 242.081 406.929 241.621 408.747 244.646C409.55 244.906 409.912 244.168 410.281 244.113C410.619 244.065 411.204 244.821 411.881 244.361ZM411.881 200.517C411.802 199.101 408.753 197.867 408.306 199.204C407.503 201.588 409.701 200.323 410.275 200.269C410.558 200.245 411.398 201.013 411.881 200.517ZM416.41 326.599L418.088 326.321L417.931 324.923H416.681L416.404 326.605L416.41 326.599ZM420.329 322.969H425.455V321.457H420.329L420.027 319.95C421.603 319.932 423.656 318.268 425.039 318.135C426.077 318.032 426.705 318.861 427.72 318.74C428.432 317.615 427.279 317.288 426.518 316.925C425.757 316.562 419.097 313.9 418.825 314.203L418.861 315.679L422.744 316.925C422.871 317.615 422.702 317.403 422.358 317.597C420.304 318.734 418.173 318.002 418.825 321.457H417.014V322.969H418.825V324.179H420.335V322.969H420.329ZM420.425 354.502C420.576 354.32 421.204 354.181 421.228 353.963C421.246 353.794 420.649 352.886 420.184 352.886C418.342 352.886 417.732 357.799 420.474 358.065C422.641 358.277 422.424 356.71 422.756 355.185C423.143 353.401 425.081 354.822 423.964 356.625C423.795 356.897 423.07 357.067 423.052 357.285C422.992 357.926 424.085 358.918 424.996 357.732C428.088 353.715 421.252 349.583 421.234 356.534C419.882 356.813 419.707 355.385 420.425 354.502ZM422.744 345.947C417.37 345.185 417.164 352.796 422.593 352.312C425.196 352.076 426.476 349.444 425.286 347.181C424.634 345.947 422.998 345.548 423.118 347.012C423.161 347.496 426.101 349.535 422.744 350.787V345.947ZM420.329 340.811C417.068 340.569 419.616 343.001 418.819 345.046H425.455V343.533C423.97 343.364 420.437 344.259 420.081 342.105C419.997 341.597 420.335 341.167 420.329 340.811C421.319 340.883 421.887 341.301 423.124 341.04C426.222 340.399 426.657 336.025 423.807 334.761L423.118 335.825C424.682 337.126 424.851 338.856 422.744 339.601V334.761C420.926 334.428 419.139 335.335 418.656 337.174C418.034 339.564 420.323 340.478 420.329 340.811ZM425.461 328.112H420.184C420.099 328.112 419.133 329.122 419.006 329.346C418.1 330.925 419.326 332.123 418.831 333.859H425.467V332.347C424.163 332.292 419.803 332.915 420.021 330.701C420.051 330.374 420.6 329.624 420.788 329.624H425.461V328.112ZM418.825 326.599H425.461L425.443 325.105C423.227 324.657 421.047 324.663 418.837 325.105L418.819 326.599H418.825ZM423.68 313.416C424.048 314.578 426.246 313.688 425.328 312.376C424.809 311.631 423.263 312.109 423.68 313.416ZM454.204 390.463C457.163 409.333 483.382 409.103 486.063 390.209L486.094 280.196C483.612 260.932 456.934 260.727 454.156 279.923L454.204 390.463ZM512.741 360.527C513.345 365.386 517.113 365.337 521.268 365.011C526.859 364.569 526.992 360.993 526.533 356.087C526.026 350.72 522.276 350.66 517.644 351.096C512.113 351.622 512.162 355.808 512.747 360.527H512.741ZM520.199 336.576H526.533V334.156H520.199L520.156 332.08L517.783 331.736V334.156L515.362 333.708L515.072 331.729L513.152 331.778C512.107 332.117 513.007 335.051 513.556 335.735C514.571 336.987 516.395 336.491 517.783 336.569V338.687H520.199V336.569V336.576ZM522.765 309.369C521.225 309.115 519.106 309.556 517.487 309.369L518.091 306.041L516.02 306.084C515.628 308.007 514.71 309.151 512.699 309.405C512.657 310.675 512.222 311.625 513.701 311.807C515.821 312.061 522.493 311.153 523.743 312.472C525.066 313.876 522.741 316.961 520.815 315.261C519.8 314.366 520.652 312.69 517.789 313.301C517.747 321.729 530.223 317.355 525.331 311.038C524.824 310.379 523.568 309.508 522.771 309.375L522.765 309.369Z" fill="#BE9526"/>
</svg>
