<svg width="333" height="675" viewBox="0 0 333 675" fill="none" xmlns="http://www.w3.org/2000/svg">
<ellipse cx="90.145" cy="27.7769" rx="90.145" ry="27.7769" transform="matrix(0 -1 -1 0 86.6309 425.74)" fill="#BE9526"/>
<rect width="366.63" height="124.996" transform="matrix(0 -1 -1 0 17.1885 522.54)" fill="#BE9526"/>
<path d="M-212.844 335.063C-212.808 359.82 -210.67 384.976 -205.097 409.085C-201.305 425.48 -191.691 456.868 -177.519 466.711C-162.435 477.184 -147.109 469.198 -134.996 458.58C-126.609 451.229 -119.429 442.602 -111.47 434.84L-123.088 454.181C-139.447 483.826 -147.725 530.95 -117.165 554.382C-96.9841 569.851 -77.0391 578.872 -51.273 580.868C-17.7776 583.458 22.9035 570.438 42.9572 542.269C63.0291 514.076 50.6261 478.133 36.4236 450.358L29.4371 438.167C37.6615 448.936 46.3871 459.947 58.8927 465.943C71.8452 472.15 80.7036 474.219 93.7105 466.753C106.717 459.288 112.538 439.202 116.475 425.771C129.078 382.791 131.481 334.289 125.938 289.912C123.063 266.928 117.061 239.376 105.818 219.066C90.4739 191.345 69.9672 193.735 48.5851 213.519C41.043 220.494 34.2981 228.377 27.0217 235.595L36.4236 220.379C55.2998 189.325 64.8587 136.696 30.1315 112.901C-13.913 82.7175 -84.9978 77.9441 -124.755 117.82C-155.092 148.245 -145.401 184.684 -127.913 218.976L-120.516 231.971C-128.74 221.202 -137.466 210.191 -149.972 204.195C-163.54 197.692 -173.968 195.659 -186.981 204.813C-195.683 210.935 -200.689 223.537 -204.088 233.32C-215.404 265.881 -219.547 300.626 -219.77 335.063H-212.832H-212.844ZM67.6787 392.592C65.7585 404.705 45.7409 398.461 52.6067 386.561C57.2563 378.502 69.1279 383.427 67.6787 392.592ZM66.4408 324.584C70.1061 328.142 64.7017 334.083 60.9458 330.241C59.3396 328.596 59.877 324.717 57.0208 324.191C52.0934 323.284 51.2963 330.931 56.5679 330.84L56.58 332.643C48.2288 332.232 50.5415 320.126 58.0896 322.824C61.761 324.137 60.6378 329.43 63.482 329.775C66.7186 330.163 66.8575 324.881 63.2525 325.056L63.2223 323.574C64.2609 323.483 65.686 323.852 66.4408 324.584ZM63.2223 310.573C68.3007 310.161 69.3332 317.911 64.2851 318.444C58.8806 319.012 60.6258 312.739 57.6126 311.51C52.4618 309.417 50.9099 318.002 56.586 317.827V319.642C49.0017 319.345 49.6539 308.389 57.6246 309.683C61.5859 310.325 60.6197 316.635 63.4035 316.919C66.7488 317.258 66.936 312.14 63.2646 312.043L63.2223 310.573ZM67.6787 294.026C65.7585 306.138 45.7409 299.894 52.6067 287.994C57.2563 279.935 69.1279 284.86 67.6787 294.026ZM67.1473 377.395V378.907H53.1199C52.2142 378.907 51.4292 377.225 51.4292 376.336C51.4292 375.447 52.2142 373.462 53.1199 373.462H67.1473V375.277H53.7238C52.8784 375.277 52.7033 377.395 54.3276 377.395H67.1533H67.1473ZM67.1473 369.53H51.7613V367.715H58.0956L52.0511 365.755L51.7613 363.782C53.3796 364.115 57.1355 365.948 58.5606 365.87C59.0799 365.839 60.4205 364.726 61.3927 364.52C64.7923 363.807 67.8236 365.858 67.1413 369.524L67.1473 369.53ZM67.1473 348.367V351.694L51.7552 352.602C51.7673 352.015 51.556 351.059 52.2504 350.829L65.3358 350.031L52.0391 348.234C51.5862 347.925 51.5016 345.62 52.2504 345.384C56.103 344.906 60.1306 344.791 63.9469 344.102C64.273 344.041 65.0761 343.999 65.0338 343.533L51.7613 342.928V341.113L67.1533 342.021V345.348C63.2042 345.88 59.1705 346.014 55.2274 346.552C54.7745 346.612 54.2974 346.594 54.1767 347.163L67.1533 348.373L67.1473 348.367ZM67.1473 335.971V337.483H51.7613V335.971H67.1473ZM67.1473 304.226V306.041H51.7613V304.226H67.1473ZM67.1473 280.341H51.7613V278.828H65.0338L51.7734 276.396L51.7552 273.389H67.1413V275.204H53.8687L65.523 277.279L67.1473 277.316V280.341ZM4.9934 447.539C4.78205 447.399 0.639679 447.539 -0.133255 447.539V446.026H4.9934V444.514H6.50301V446.026C7.99451 446.214 8.35078 445.802 8.80367 444.495C10.6635 444.072 10.3314 445.469 9.5947 446.552C8.71912 447.829 7.82546 447.26 6.72043 447.551C6.45473 447.623 6.62379 448.095 6.06222 448.168C4.64318 448.355 5.05983 447.581 4.99944 447.539H4.9934ZM9.81812 458.725V460.238H-0.139297V458.725H9.81812ZM9.81812 411.257H-0.139297C0.259247 408.97 -1.46776 406.417 1.40051 405.092C4.7277 403.555 7.98243 406.411 6.19505 409.744H9.81812V411.257ZM9.81812 398.86V400.373H-0.139297V398.86H9.81812ZM9.81812 368.023H-0.139297V366.813C1.44278 366.741 5.68179 367.473 5.30136 364.865C5.25306 364.539 4.74582 363.788 4.54051 363.788H-0.133255V362.578H5.14436C6.15278 362.578 7.13101 365.954 5.89917 366.807H9.82417V368.017L9.81812 368.023ZM-0.133255 352.904H9.37128C9.69132 352.904 9.94494 353.764 9.82417 354.114H-0.133255V352.904ZM9.81812 321.463V322.673H5.89312C9.08143 329.406 -2.75395 329.491 0.464554 322.812L-0.139297 322.473V321.457H9.81812V321.463ZM9.36523 313.598H-0.139297L-0.103073 312.575L0.355865 312.127C2.48744 312 6.76266 312.805 4.83639 309.363H0.313583L-0.139297 307.85H4.53447C6.36412 307.85 6.94382 310.669 6.19505 312.079C6.56339 312.394 11.213 311.232 9.35923 313.592L9.36523 313.598ZM9.36523 278.526H0.313583C-0.254028 278.526 -0.254028 277.013 0.313583 277.013H9.36523C9.81812 277.013 10.0778 278.32 9.36523 278.526ZM4.9934 258.573C4.77602 258.434 0.639679 258.573 -0.133255 258.573V257.363H4.9934C4.8847 255.221 6.4668 255.312 6.6721 257.381C8.99692 257.817 8.41116 256.171 9.06936 255.85C10.3072 255.251 10.0234 257.817 8.84594 258.349C8.02471 258.718 7.35446 258.416 6.71438 258.567C6.37019 258.645 6.35809 259.378 6.04408 259.474C5.05378 259.795 5.07793 258.627 4.9934 258.573ZM9.36523 252.523H0.313583L-0.139297 251.01H4.23254C5.5127 251.01 5.72404 247.985 4.23254 247.985H-0.139297V246.775H4.83639C6.20108 246.775 7.2397 250.03 5.89312 251.004L9.31091 251.059L9.80607 251.47C9.9208 251.833 9.68531 252.432 9.35923 252.523H9.36523ZM9.81812 220.476C9.93889 220.827 9.68528 221.686 9.36523 221.686H-0.139297V220.476H9.81812ZM6.50301 472.023L7.55975 470.523C10.9896 472.422 9.25656 479.241 5.30741 476.706C3.86422 475.78 4.16008 474.007 3.32677 472.943C1.85943 471.055 0.223022 473.511 1.82925 475.659C2.18552 476.137 3.07316 476.179 2.87389 476.706L1.78093 477.752C-0.918259 476.651 -1.29265 470.934 2.11909 470.795C6.52716 470.613 4.18425 476.409 7.64429 475.296C8.01263 474.153 7.90393 472.295 6.49697 472.029L6.50301 472.023ZM8.82784 428.711C8.03077 429.679 6.19505 429.8 5.17455 429.062C3.70116 427.991 4.2386 424.543 2.13721 424.857C0.0358276 425.172 1.65415 428.239 2.86788 428.947C1.8655 430.351 1.21937 430.151 0.325684 428.784C-1.47983 426.013 0.39209 421.596 3.75552 423.532C5.50668 424.543 5.36781 428.07 6.94385 427.912C8.51988 427.755 7.73486 424.621 6.49697 424.113C7.58389 422.673 8.1334 422.855 8.9184 424.403C9.5162 425.583 9.69134 427.658 8.8218 428.717L8.82784 428.711ZM9.17204 496.864L9.21428 498.032L-0.109116 495.884V494.432L6.19505 492.738L-0.115112 491.05L-0.0124817 489.846L9.20827 487.45L9.03313 488.691L2.57197 490.324C2.55989 490.778 7.77112 491.716 8.45346 491.988C9.56454 492.436 9.54641 493.029 8.4776 493.519C7.17329 494.118 4.90886 494.311 3.41132 494.795C3.09732 494.898 2.4995 494.874 2.57197 495.309L9.16599 496.864H9.17204ZM8.87612 401.928C9.57055 403.047 8.00057 404.487 7.23972 403.416C6.40642 402.248 8.32662 401.05 8.87612 401.928ZM8.91235 397.348L7.23368 397.069V395.817L8.63461 395.66L8.91235 397.342V397.348ZM4.9934 469.609H-0.133255V468.096H4.9934L4.81225 466.245C3.40529 466.082 1.51524 464.654 0.241135 464.527C-0.82164 464.424 -1.57645 465.277 -2.55469 465.368C-2.53656 464.896 -2.68146 464.243 -2.41577 463.843C-2.06554 463.317 5.29531 461 6.49697 460.528L6.46074 461.998L2.28214 463.704C4.79414 464.872 7.2699 464.46 6.50301 468.09H8.31455V469.603L6.52115 469.633L6.47887 470.468H5.01153L4.98735 469.597L4.9934 469.609ZM4.9934 421.838H-0.133255V420.326H4.9934V419.116H6.50301V420.332H8.31455V421.669L6.50301 421.838V423.054H4.9934V421.844V421.838ZM4.9934 394.02H-0.133255V392.508H4.9934L5.29532 390.699C2.37875 390.185 0.39209 387.752 -2.54863 389.791C-2.5426 389.301 -2.66338 388.702 -2.40372 388.273C-2.07161 387.71 5.24701 385.248 6.50301 384.951L6.46678 386.428L2.58405 387.674C2.45725 388.364 2.62634 388.152 2.97053 388.345C3.65287 388.727 6.06222 389.283 6.36414 389.779L6.50906 392.508H8.32059V394.02L6.52719 394.051L6.48492 394.885H5.01758L4.9934 394.014V394.02ZM4.9934 381.321H-0.133255L0.319641 379.809H4.9934V378.599H6.50301V379.815L8.31455 379.984V381.321L6.5151 381.352L6.33395 382.247L5.01153 382.186L4.98735 381.321H4.9934ZM4.9934 316.925H-0.133255L0.319641 315.413H4.9934V314.203H6.50301V315.419L8.31455 315.588V316.925L6.5151 316.955L6.33395 317.851L5.01153 317.79L4.98735 316.925H4.9934ZM2.57801 456.305V451.465C6.24336 450.914 8.55007 455.664 4.90284 457.569C0.76046 459.735 -2.71771 453.849 1.52733 451.465C2.93429 453.359 1.95605 452.639 1.40051 453.443C0.265274 455.101 2.23986 456.68 2.57801 456.299V456.305ZM6.74457 441.87C6.06826 445.736 -0.725021 445.264 -0.429123 441.077C-0.0909729 436.322 7.52353 437.399 6.74457 441.87ZM6.50301 437.26H-0.133255V435.747C1.91379 435.832 6.1407 436.171 4.9934 433.031C7.30009 432.68 7.23971 434.301 5.89917 435.602C6.81097 435.85 6.49094 436.425 6.50301 437.266V437.26ZM6.50301 412.467C5.99578 414.209 7.22763 415.461 6.43056 417.083C5.16852 419.654 1.1952 419.648 -0.0668335 417.083C-0.863907 415.461 0.367935 414.209 -0.139297 412.467H6.49697H6.50301ZM2.87994 481.4C7.79524 480.868 7.87374 487.922 2.72897 487.463C-0.580109 487.166 -1.17186 483.264 1.2254 481.406C2.96448 481.951 1.32204 482.816 1.12881 483.427C0.675919 484.885 1.3522 486.095 2.87994 486.24V481.4ZM6.50301 401.885V403.398H-0.133255V401.885H6.50301ZM6.50301 397.348H-0.133255L-0.115112 395.853C2.101 395.406 4.28088 395.412 6.49096 395.853L6.50906 397.348H6.50301ZM5.80257 372.954C8.68291 376.221 3.27847 380.523 0.464554 377.165C-2.34937 373.807 3.11546 369.905 5.80257 372.954ZM2.87994 355.324C7.79524 354.792 7.87374 361.846 2.72897 361.387C-0.580109 361.09 -1.17186 357.188 1.2254 355.331C2.96448 355.875 1.32204 356.74 1.12881 357.351C0.675919 358.809 1.3522 360.019 2.87994 360.164V355.324ZM6.50301 351.392H-2.54863V350.182H0.168671C-2.26483 344.356 7.10688 343.333 6.52719 348.833C6.4185 349.885 5.76632 349.928 6.50301 351.392ZM2.87994 335.366C6.24336 334.918 8.06095 339.588 4.96925 341.234C1.0201 343.345 -2.40974 337.81 1.52733 335.366C2.51763 336.467 1.34015 336.721 1.12881 337.392C0.700073 338.747 1.23144 340.441 2.87994 340.206V335.366ZM6.50301 334.458H-0.133255V333.248C1.32202 333.188 5.68179 333.835 5.30741 331.3C5.2591 330.973 4.75186 330.223 4.54655 330.223H-0.127213L-0.0909729 329.201C0.223022 328.263 4.3473 328.704 5.27722 329.188C6.77477 329.969 6.93779 331.875 5.90521 333.103L6.50906 333.442V334.458H6.50301ZM2.87994 300.596C9.01501 300.778 6.58757 309.254 1.20126 306.344C-0.833694 305.243 -0.549911 302.097 1.2254 300.899L1.97417 301.358C0.875168 302.962 0.192825 305.412 2.87994 305.436V300.596ZM6.4366 294.939C5.98975 296.894 3.35697 297.535 1.67224 296.815C-1.3168 295.538 -0.0547638 291.255 1.21332 291.527C2.1372 292.138 1.17709 292.743 1.0684 293.518C0.549088 297.384 7.74695 296.004 4.43787 292.283L5.42818 291.533C6.4185 292.489 6.74455 293.572 6.43056 294.945L6.4366 294.939ZM1.97417 287.903C3.04298 289.428 6.86532 288.895 6.49697 291.225C3.34489 290.825 0.681946 287.619 -2.39767 289.718C-2.75394 289.718 -2.61504 288.29 -2.04138 288.26L6.50301 285.181L6.46074 286.348L1.98021 287.903H1.97417ZM6.4366 282.845C5.98975 284.8 3.35697 285.441 1.67224 284.721C-1.3168 283.444 -0.0547638 279.161 1.21332 279.433C2.1372 280.044 1.17709 280.649 1.0684 281.424C0.549088 285.29 7.74695 283.91 4.43787 280.19L5.42818 279.439C6.4185 280.395 6.74455 281.478 6.43056 282.852L6.4366 282.845ZM2.87994 269.759C9.01501 269.941 6.58757 278.417 1.20126 275.507C-0.833694 274.406 -0.549911 271.26 1.2254 270.062L1.97417 270.522C0.875168 272.125 0.192825 274.575 2.87994 274.599V269.759ZM6.4366 264.103C5.81464 266.837 0.796692 266.898 -0.00038147 264.332C-1.73946 258.712 7.74695 258.361 6.4366 264.103ZM6.4366 243.545C5.56706 247.308 -1.52208 246.14 -0.00038147 241.324C0.887268 238.511 7.54163 238.759 6.4366 243.545ZM-0.133255 229.847H5.14436C5.3074 229.847 6.03202 230.416 6.17091 230.634C7.32425 232.467 5.6516 233.387 5.64556 233.623C5.64556 233.738 6.41847 234.452 6.50301 235.165C6.61774 236.127 6.01995 237.077 6.47887 238.124L6.05013 238.614H0.319641L-0.133255 237.101H4.23859C5.63348 237.101 5.42213 234.681 4.54051 234.681H-0.133255V233.471C1.40656 233.314 5.85088 234.252 5.3195 231.554C5.28326 231.378 4.60693 231.051 4.54051 231.051H-0.133255V229.841V229.847ZM2.87994 222.594C6.24336 222.146 8.06095 226.816 4.96925 228.462C1.0201 230.573 -2.40974 225.038 1.52733 222.594C2.51763 223.695 1.34015 223.949 1.12881 224.62C0.700073 225.975 1.23144 227.669 2.87994 227.434V222.594ZM2.87994 213.222C7.79524 212.69 7.87374 219.744 2.72897 219.284C-0.580109 218.988 -1.17186 215.085 1.2254 213.228C2.96448 213.773 1.32204 214.638 1.12881 215.249C0.675919 216.707 1.3522 217.917 2.87994 218.062V213.222ZM5.80257 207.571C7.19141 208.806 6.47282 212.442 4.61902 212.26C2.18552 212.03 2.94635 208.654 2.11909 208.382C0.953659 207.995 0.881226 209.774 1.12881 210.584C1.19523 210.802 3.00072 212.811 0.965752 212.266C-1.06921 211.722 -0.543869 205.587 2.88598 207.317C3.95479 207.965 3.51397 210.905 4.53447 211.02C6.79285 210.584 3.70117 207.904 4.69752 207.166C4.86659 207.039 5.59727 207.378 5.80861 207.565L5.80257 207.571ZM5.80257 201.527C7.19141 202.762 6.47282 206.398 4.61902 206.216C2.18552 205.986 2.94635 202.61 2.11909 202.338C0.953659 201.951 0.881226 203.73 1.12881 204.54C1.19523 204.758 3.00072 206.767 0.965752 206.222C-1.06921 205.678 -0.543869 199.543 2.88598 201.273C3.95479 201.921 3.51397 204.861 4.53447 204.976C6.79285 204.54 3.70117 201.86 4.69752 201.122C4.86659 200.995 5.59727 201.334 5.80861 201.521L5.80257 201.527ZM6.50301 199.918H-0.133255V198.708C1.44883 198.636 5.68784 199.368 5.30741 196.76C5.2591 196.433 4.75186 195.683 4.54655 195.683H-0.127213V194.473H5.15041C6.07429 194.473 7.23367 197.807 5.90521 198.563L6.50906 198.902V199.918H6.50301ZM2.87994 187.219C7.79524 186.687 7.87374 193.741 2.72897 193.281C-0.580109 192.985 -1.17186 189.083 1.2254 187.225C2.96448 187.77 1.32204 188.635 1.12881 189.246C0.675919 190.704 1.3522 191.914 2.87994 192.059V187.219ZM4.69147 181.175C6.94986 181.496 7.25179 185.864 5.0719 186.263C2.75313 186.687 2.96449 184.188 2.51764 182.899C2.07079 181.611 0.712128 182.567 1.07444 184.339C1.21333 185.017 2.8256 186.112 1.23145 186.608C-1.28055 185.289 -0.211731 179.675 2.75315 181.454C3.97896 182.192 3.5321 183.577 3.94875 184.491C4.58279 185.888 5.84482 184.672 5.13831 182.99C4.89677 182.409 4.03933 182.385 4.69752 181.169L4.69147 181.175ZM4.69147 175.125C6.94986 175.446 7.25179 179.814 5.0719 180.213C2.75313 180.637 2.96449 178.138 2.51764 176.849C2.07079 175.561 0.712128 176.517 1.07444 178.289C1.21333 178.967 2.8256 180.062 1.23145 180.558C-1.28055 179.239 -0.211731 173.625 2.75315 175.404C3.97896 176.142 3.5321 177.527 3.94875 178.441C4.58279 179.838 5.84482 178.622 5.13831 176.94C4.89677 176.359 4.03933 176.335 4.69752 175.119L4.69147 175.125ZM1.62997 173.413C1.24955 174.829 -0.435181 173.927 -0.133255 172.869C0.0780945 172.124 1.96812 172.155 1.62997 173.413ZM-6.02075 492.284H-15.0724L-15.5253 490.772H-11.1534C-9.87329 490.772 -9.66194 487.747 -11.1534 487.747H-15.5253V486.537H-10.5496C-9.18491 486.537 -8.14629 489.792 -9.49287 490.766L-6.07507 490.82L-5.57996 491.232C-5.46523 491.595 -5.70071 492.194 -6.02679 492.284H-6.02075ZM-5.56787 459.633H-15.5253V458.423C-14.07 458.362 -9.71024 459.009 -10.0846 456.474C-10.1329 456.148 -10.6402 455.398 -10.8455 455.398H-15.5192L-15.483 454.375C-15.1811 453.468 -11.2319 453.867 -10.3201 454.266C-8.55086 455.047 -8.49652 456.94 -9.48682 458.416H-5.56183V459.626L-5.56787 459.633ZM-10.3926 394.625C-10.61 394.486 -14.7463 394.625 -15.5192 394.625V393.415H-10.3926C-10.5134 391.28 -8.90712 391.364 -8.72597 393.427L-6.81783 393.064L-6.77556 391.903C-5.21159 391.449 -5.27802 392.816 -5.8577 393.809C-6.43739 394.801 -7.92888 394.45 -8.67766 394.619C-9.02788 394.698 -9.02187 395.424 -9.3419 395.527C-10.3322 395.847 -10.3081 394.68 -10.3926 394.625ZM-5.56787 357.139V358.349H-9.49287C-6.30457 365.083 -18.1399 365.168 -14.9214 358.489L-15.5253 358.15V357.133H-5.56787V357.139ZM-5.56787 346.854V348.064H-9.49287C-6.30457 354.798 -18.1399 354.883 -14.9214 348.204L-15.5253 347.865V346.848H-5.56787V346.854ZM-10.3926 261.295H-15.5192V260.085H-10.3926V258.875H-8.88298V260.091L-7.05334 259.952L-6.60646 258.857L-5.57391 258.875C-5.30219 261.223 -6.90839 261.471 -8.8709 261.326L-9.05208 262.221L-10.3745 262.161L-10.3986 261.295H-10.3926ZM-5.56787 233.78H-15.5253V232.57C-14.07 232.509 -9.71024 233.157 -10.0846 230.622C-10.1329 230.295 -10.6402 229.545 -10.8455 229.545H-15.5192L-15.483 228.523C-15.1811 227.615 -11.2319 228.014 -10.3201 228.414C-8.55086 229.194 -8.49652 231.088 -9.48682 232.564H-5.56183V233.774L-5.56787 233.78ZM-6.17171 492.889V499.387C-6.17171 499.702 -7.02917 499.968 -7.37941 499.841C-7.59679 499.629 -6.95671 497.227 -7.83229 496.822H-15.5253V495.612H-7.37941V492.889H-6.17171ZM-6.47363 404.747C-6.68498 405.491 -8.57501 405.461 -8.23686 404.202C-7.85643 402.787 -6.17171 403.688 -6.47363 404.747ZM-6.47363 331.881C-6.68498 332.625 -8.57501 332.595 -8.23686 331.336C-7.85643 329.921 -6.17171 330.822 -6.47363 331.881ZM-6.47363 190.087C-6.71518 190.892 -8.64143 190.698 -8.27913 189.488C-8.0376 188.683 -6.11133 188.877 -6.47363 190.087ZM-10.3926 449.354H-15.5192V448.144H-10.3926C-10.6039 446.081 -8.70786 446.038 -8.8709 448.131L-7.07144 448.295V449.348L-8.86488 449.384L-9.04602 450.279L-10.3685 450.219L-10.3926 449.354ZM-10.3926 289.712H-15.5192V288.502H-10.3926V287.292H-8.88298V288.508L-7.07144 288.66V289.712L-8.8407 289.761C-8.95543 291.418 -10.4167 291.364 -10.3926 289.718V289.712ZM-10.3926 179.959H-15.5192V178.749H-10.3926V177.539H-8.88298V178.755L-7.07144 178.906V179.959L-8.8407 180.008C-8.95543 181.665 -10.4167 181.611 -10.3926 179.965V179.959ZM-8.88902 481.098C-8.53275 482.55 -9.87932 483.421 -8.88298 484.583L-9.18491 485.194L-15.3985 485.055L-15.5313 483.826C-13.1461 483.718 -9.57137 484.692 -10.0967 481.104H-8.89507L-8.88902 481.098ZM-8.94939 479.071C-9.52304 481.606 -14.3236 481.782 -15.2958 479.513C-16.7511 476.101 -12.8563 473.372 -10.0786 475.496C-8.94334 476.367 -8.63539 477.686 -8.94939 479.071ZM-8.88298 472.634V473.844H-13.8587C-15.2294 473.844 -16.3586 470.68 -14.9154 469.76C-15.8755 469.778 -15.5615 468.103 -15.0664 468.103H-9.33586C-9.08829 468.103 -8.73203 468.853 -8.88902 469.155C-9.22717 470.232 -13.4239 468.95 -14.1666 470.214C-14.6859 470.994 -14.1666 472.64 -13.2609 472.64H-8.88902L-8.88298 472.634ZM-15.6762 460.843C-14.2572 460.558 -11.0146 460.843 -9.3419 460.843C-8.91318 460.843 -8.51463 462.119 -9.49287 462.198C-6.21399 468.574 -17.6086 469.167 -15.2234 462.355L-16.576 462.96L-17.0108 466.451L-17.9286 466.584C-18.0071 464.473 -18.3694 461.387 -15.6702 460.843H-15.6762ZM-8.88298 446.026H-15.5192V444.816C-13.0072 444.756 -9.92763 445.524 -9.93971 442.088H-8.88902C-8.41801 443.086 -9.48685 444.163 -9.50496 444.659C-9.50496 444.743 -8.44821 444.949 -8.88902 446.02L-8.88298 446.026ZM-8.94939 439.764C-9.5955 442.578 -14.8369 442.565 -15.4589 439.764C-15.7246 438.579 -15.2415 437.012 -15.3985 435.729L-9.17885 435.59L-8.87694 436.201C-9.77666 437.417 -8.55086 438.028 -8.94939 439.77V439.764ZM-8.88298 433.025V434.235H-13.8587C-15.2294 434.235 -16.3586 431.07 -14.9154 430.151C-15.8755 430.169 -15.5615 428.493 -15.0664 428.493H-9.33586C-9.08829 428.493 -8.73203 429.243 -8.88902 429.546C-9.22717 430.623 -13.4239 429.34 -14.1666 430.605C-14.6859 431.385 -14.1666 433.031 -13.2609 433.031H-8.88902L-8.88298 433.025ZM-15.5253 418.511H-10.5496C-10.1511 418.511 -8.9796 419.642 -8.88902 420.193C-8.65956 421.602 -9.75252 422.395 -9.75252 422.6C-9.75252 422.776 -9.00375 423.163 -8.88902 423.817C-8.71994 424.809 -9.31171 426.152 -8.88902 427.283H-15.5253V426.073C-14.1848 425.976 -10.2839 426.642 -10.0846 424.7C-10.0484 424.343 -10.2537 423.653 -10.5496 423.653H-15.5253C-16.1593 420.459 -9.81291 423.708 -10.0726 420.785C-10.2115 419.243 -14.4504 419.83 -15.5253 419.721V418.511ZM-15.5253 411.257H-9.3419C-8.91318 411.257 -8.51463 412.533 -9.49287 412.612C-7.43375 415.843 -10.4711 418.638 -13.8345 417.276C-16.6726 416.127 -14.9033 413.483 -15.5253 411.263V411.257ZM-15.5253 403.7H-9.3419C-9.02187 403.7 -8.76825 404.559 -8.88902 404.91H-15.5253V403.7ZM-8.88298 401.885H-15.5192V400.675C-13.9372 400.603 -9.69815 401.335 -10.0786 398.727C-10.1269 398.4 -10.6341 397.65 -10.8394 397.65H-15.5132V396.44H-10.2356C-9.31171 396.44 -8.15231 399.774 -9.48077 400.53L-8.87694 400.869V401.885H-8.88298ZM-8.94939 389.574C-9.52304 392.108 -14.3236 392.284 -15.2958 390.015C-16.7511 386.603 -12.8563 383.874 -10.0786 385.998C-8.94334 386.869 -8.63539 388.188 -8.94939 389.574ZM-8.88298 384.346H-15.5192V383.136C-13.128 383.027 -9.55928 383.995 -10.0846 380.414H-8.88298C-8.41197 381.412 -9.48079 382.489 -9.49892 382.985C-9.49892 383.07 -8.44217 383.275 -8.88298 384.346ZM-15.5253 371.345H-10.2477C-10.0846 371.345 -9.36002 371.914 -9.22113 372.131C-8.06778 373.965 -9.74043 374.884 -9.74648 375.12C-9.74648 375.235 -8.97356 375.949 -8.88902 376.663C-8.77429 377.625 -9.37209 378.575 -8.91316 379.621L-9.3419 380.111H-15.0724L-15.5253 378.599H-11.1534C-9.75856 378.599 -9.96991 376.179 -10.8515 376.179H-15.5253V374.969C-13.9855 374.812 -9.54118 375.749 -10.0726 373.051C-10.1088 372.876 -10.7851 372.549 -10.8515 372.549H-15.5253V371.339V371.345ZM-12.5061 364.091C-9.14262 363.643 -7.32504 368.314 -10.4167 369.959C-14.3659 372.071 -17.7957 366.535 -13.8587 364.091C-12.8684 365.192 -14.0459 365.446 -14.2572 366.118C-14.686 367.473 -14.1546 369.167 -12.5061 368.931V364.091ZM-12.5061 339.601C-6.37097 339.782 -8.79846 348.258 -14.1848 345.348C-16.2197 344.247 -15.9359 341.101 -14.1606 339.903L-13.4118 340.363C-14.5108 341.966 -15.1932 344.416 -12.5061 344.441V339.601ZM-10.6885 333.865C-8.24289 333.75 -8.1946 338.566 -10.5435 338.723C-12.7717 338.868 -12.5544 337.017 -12.9469 335.359L-14.3176 335.069C-14.2753 336.333 -14.7584 337.404 -13.3937 337.979C-13.5387 339.794 -15.169 338.778 -15.4407 337.568C-16.262 333.956 -12.9892 332.274 -11.8781 334.894C-11.5882 335.583 -11.6969 337.979 -10.5435 337.483C-9.68005 337.108 -9.92162 335.093 -11.0146 334.882L-10.6824 333.865H-10.6885ZM-15.5253 330.834H-9.3419C-9.02187 330.834 -8.76825 331.693 -8.88902 332.044H-15.5253V330.834ZM-17.9346 328.717C-18.0554 325.111 -18.2124 323.302 -14.1727 322.957C-13.3213 322.884 -9.04602 322.751 -8.88298 323.429C-8.74409 323.992 -9.37813 324.385 -9.37813 324.627C-9.37813 324.814 -8.94337 325.165 -8.89507 325.546C-8.18253 331.409 -17.5965 330.302 -15.2173 324.482C-17.5059 324.022 -16.4371 328.438 -16.7269 328.717H-17.9286H-17.9346ZM-8.88298 321.765H-15.5192V320.555C-14.064 320.495 -9.70419 321.142 -10.0786 318.607C-10.1269 318.28 -10.6341 317.53 -10.8394 317.53H-15.5132L-15.477 316.508C-15.163 315.57 -11.0387 316.012 -10.1088 316.496C-8.61127 317.276 -8.4482 319.182 -9.48077 320.41L-8.87694 320.749V321.765H-8.88298ZM-13.1099 307.245C-12.2464 307.457 -9.77063 307.814 -9.18491 308.304C-8.85278 308.582 -8.75618 309.526 -8.88902 309.665C-9.12453 309.913 -15.1992 307.85 -15.3864 307.566C-15.5495 307.324 -15.6279 306.501 -15.5132 306.356C-15.3502 306.162 -11.8418 305.751 -11.6063 304.831C-12.7899 304.474 -15.5193 304.323 -15.5434 302.859C-15.5555 302.205 -15.4528 302.514 -15.1086 302.369C-14.3719 302.06 -9.13057 300.36 -8.89507 300.59C-8.76826 302.708 -12.1679 302 -13.116 303.307C-12.2343 303.391 -8.49049 304.014 -8.89507 305.267C-9.14264 306.029 -12.6993 306.217 -13.1099 307.233V307.245ZM-12.5061 294.25C-7.59074 293.717 -7.51225 300.772 -12.657 300.312C-15.9661 300.015 -16.5579 296.113 -14.1606 294.256C-12.4215 294.8 -14.064 295.665 -14.2572 296.276C-14.7101 297.734 -14.0338 298.945 -12.5061 299.09V294.25ZM-8.88902 282.458C-8.53275 283.91 -9.87932 284.781 -8.88298 285.943L-9.18491 286.554L-15.3985 286.415L-15.5313 285.187C-13.1461 285.078 -9.57137 286.052 -10.0967 282.464H-8.89507L-8.88902 282.458ZM-15.5253 276.106H-8.88902V277.122C-9.97594 277.485 -9.03395 277.709 -8.90111 278.695C-8.11008 284.431 -18.2366 283.094 -14.9214 277.461L-15.5253 277.122V276.106ZM-15.5253 269.154H-10.8515C-8.2731 269.154 -9.17885 272.911 -8.91316 274.406L-9.3419 274.896H-15.5253L-15.4891 273.873L-15.0301 273.426C-12.8985 273.299 -8.62332 274.103 -10.5496 270.661H-15.0724L-15.5253 269.148V269.154ZM-10.6945 262.808C-8.43613 263.129 -8.1342 267.497 -10.3141 267.896C-12.6329 268.319 -12.4215 265.821 -12.8683 264.532C-13.3152 263.243 -14.6739 264.199 -14.3116 265.972C-14.1727 266.65 -12.5604 267.745 -14.1545 268.241C-16.6665 266.922 -15.5978 261.307 -12.6329 263.086C-11.4071 263.824 -11.8539 265.21 -11.4372 266.123C-10.8032 267.521 -9.54117 266.305 -10.2477 264.623C-10.4892 264.042 -11.3467 264.018 -10.6885 262.802L-10.6945 262.808ZM-8.94939 256.244C-9.81892 260.007 -16.9081 258.839 -15.3864 254.023C-14.4988 251.21 -7.84435 251.458 -8.94939 256.244ZM-8.88902 247.084C-8.53275 248.536 -9.87932 249.407 -8.88298 250.569L-9.18491 251.18L-15.3985 251.041L-15.5313 249.812C-13.1461 249.704 -9.57137 250.678 -10.0967 247.09H-8.89507L-8.88902 247.084ZM-9.33586 246.781H-15.5192C-16.1533 243.587 -9.80687 246.836 -10.0665 243.914C-10.2054 242.371 -14.4444 242.958 -15.5192 242.849V241.639H-11.1414C-9.74648 241.639 -9.95781 239.219 -10.8394 239.219H-15.5132V238.009H-10.2356C-10.1692 238.009 -9.20906 238.753 -9.16077 238.826C-8.1161 240.562 -9.74042 241.79 -9.73439 242.099C-9.73439 242.292 -9.16075 242.577 -9.03394 242.855C-8.54482 243.908 -9.31169 245.13 -8.90712 246.285L-9.32982 246.781H-9.33586ZM-8.94939 225.098C-9.52304 227.633 -14.3236 227.809 -15.2958 225.54C-16.7511 222.128 -12.8563 219.399 -10.0786 221.523C-8.94334 222.394 -8.63539 223.713 -8.94939 225.098ZM-13.8647 218.359H-9.3419C-9.09433 218.359 -8.73807 219.109 -8.89507 219.411C-9.15472 220.24 -13.7258 219.968 -14.6074 219.399C-15.8212 218.619 -15.8514 216.477 -14.9275 215.479L-15.5313 215.14V214.124H-9.34795C-9.02791 214.124 -8.76826 214.995 -8.89507 215.334C-11.0146 215.327 -15.8997 214.964 -13.8708 218.359H-13.8647ZM-10.6885 208.086C-8.24289 207.971 -8.1946 212.786 -10.5435 212.944C-12.7717 213.089 -12.5544 211.238 -12.9469 209.58L-14.3176 209.29C-14.2753 210.554 -14.7584 211.625 -13.3937 212.2C-13.5387 214.015 -15.169 212.998 -15.4407 211.788C-16.262 208.176 -12.9892 206.494 -11.8781 209.114C-11.5882 209.804 -11.6969 212.2 -10.5435 211.704C-9.68005 211.328 -9.92162 209.314 -11.0146 209.102L-10.6824 208.086H-10.6885ZM-12.5061 200.826C-6.37097 201.007 -8.79846 209.483 -14.1848 206.573C-16.2197 205.472 -15.9359 202.326 -14.1606 201.128L-13.4118 201.588C-14.5108 203.191 -15.1932 205.641 -12.5061 205.666V200.826ZM-9.58342 195.477C-8.19458 196.712 -8.91316 200.348 -10.767 200.166C-13.2005 199.936 -12.4396 196.56 -13.2669 196.288C-14.4323 195.901 -14.5048 197.68 -14.2572 198.49C-14.1908 198.708 -12.3853 200.717 -14.4202 200.172C-16.4552 199.628 -15.9299 193.493 -12.5 195.223C-11.4312 195.871 -11.872 198.811 -10.8515 198.926C-8.59314 198.49 -11.6848 195.81 -10.6885 195.072C-10.5194 194.945 -9.78876 195.284 -9.57741 195.471L-9.58342 195.477ZM-15.5253 190.547L-15.0724 189.034H-9.3419C-8.77429 189.034 -8.77429 190.547 -9.3419 190.547H-15.5253ZM-15.5253 181.774H-10.8515C-8.2731 181.774 -9.17885 185.531 -8.91316 187.026L-9.3419 187.516H-15.5253L-15.4891 186.493L-15.0301 186.045C-12.8985 185.918 -8.62332 186.723 -10.5496 183.281H-15.0724L-15.5253 181.768V181.774ZM-8.94939 174.913C-9.81892 178.677 -16.9081 177.509 -15.3864 172.693C-14.4988 169.88 -7.84435 170.128 -8.94939 174.913ZM-11.6003 406.719V410.047H-12.5V406.719H-11.6003ZM-16.6364 313.991C-15.9661 313.235 -13.6835 312.811 -13.7017 314.051C-14.4082 316.278 -15.4891 313.567 -16.582 315.104C-17.1134 314.783 -17.0168 314.414 -16.6364 313.991ZM-21.4067 480.493H-30.9113L-30.875 479.47L-30.4161 479.023C-28.2845 478.896 -24.0093 479.7 -25.9356 476.258H-30.4584L-30.9113 474.745H-26.2375C-24.4079 474.745 -23.8282 477.565 -24.5769 478.974C-24.2086 479.289 -19.559 478.127 -21.4128 480.487L-21.4067 480.493ZM-25.7846 440.285H-30.9113V439.075H-25.7846V437.865H-24.275V439.081L-22.4454 438.942L-21.9985 437.846L-20.9659 437.865C-20.6942 440.212 -22.3005 440.46 -24.263 440.315L-24.4441 441.21L-25.7665 441.15L-25.7907 440.285H-25.7846ZM-30.9113 406.114H-21.4067C-21.0867 406.114 -20.827 406.985 -20.9539 407.324H-24.8728C-22.856 410.634 -25.7544 413.538 -29.2145 412.134C-32.0525 410.984 -30.2833 408.341 -30.9053 406.12L-30.9113 406.114ZM-20.9539 385.859V387.069H-24.8789C-21.6906 393.802 -33.5259 393.887 -30.3074 387.208L-30.9113 386.869V385.853H-20.9539V385.859ZM-20.9539 368.931V370.141H-30.9113V368.931H-20.9539ZM-30.4584 338.088H-21.4067C-21.1592 338.088 -20.8029 338.838 -20.9599 339.141L-21.4551 339.552L-24.8728 339.607C-22.7835 342.813 -26.0201 345.548 -29.3232 344.211C-31.66 343.267 -30.5429 340.671 -30.9113 338.844C-30.9354 338.572 -30.6758 338.155 -30.4584 338.088ZM-25.7846 333.557C-26.002 333.417 -30.1383 333.557 -30.9113 333.557V332.347H-25.7846C-25.8933 330.205 -24.3113 330.296 -24.106 332.365C-21.7811 332.8 -22.3669 331.155 -21.7087 330.834C-20.4708 330.235 -20.7546 332.8 -21.9321 333.333C-22.7533 333.702 -23.4236 333.399 -24.0637 333.551C-24.4079 333.629 -24.4199 334.361 -24.7339 334.458C-25.7242 334.779 -25.7001 333.611 -25.7846 333.557ZM-20.9539 308.159V309.369H-30.9113V308.159H-20.9539ZM-25.7846 212.92H-30.9113V211.71H-25.7846V210.5H-24.275V211.716L-22.4454 211.576L-21.9985 210.481L-20.9659 210.5C-20.6942 212.847 -22.3005 213.095 -24.263 212.95L-24.4441 213.845L-25.7665 213.785L-25.7907 212.92H-25.7846ZM-21.8596 421.983C-22.071 422.728 -23.961 422.697 -23.6228 421.439C-23.2424 420.023 -21.5577 420.925 -21.8596 421.983ZM-21.8838 404.118C-22.1555 404.959 -23.9368 404.801 -23.6228 403.597C-23.3089 402.393 -21.3826 402.569 -21.8838 404.118ZM-21.9019 394.426C-22.2823 395.841 -23.967 394.94 -23.6651 393.881C-23.4538 393.137 -21.5638 393.167 -21.9019 394.426ZM-21.8596 312.23C-22.071 312.974 -23.961 312.944 -23.6228 311.686C-23.2424 310.27 -21.5577 311.172 -21.8596 312.23ZM-21.8596 305.884C-22.1012 306.689 -24.0274 306.495 -23.6651 305.285C-23.4236 304.48 -21.4973 304.674 -21.8596 305.884ZM-21.8596 258.107C-22.071 258.851 -23.961 258.821 -23.6228 257.562C-23.2424 256.147 -21.5577 257.048 -21.8596 258.107ZM-21.8596 250.859C-22.1012 251.664 -24.0274 251.47 -23.6651 250.26C-23.4236 249.456 -21.4973 249.649 -21.8596 250.859ZM-21.8596 233.32C-22.1012 234.125 -24.0274 233.931 -23.6651 232.721C-23.4236 231.917 -21.4973 232.11 -21.8596 233.32ZM-25.7846 286.99H-30.9113V285.78H-25.7846C-25.996 283.717 -24.0999 283.674 -24.263 285.768L-22.4635 285.931V286.984L-24.2569 287.02L-24.4381 287.915L-25.7605 287.855L-25.7846 286.99ZM-25.7846 254.943H-30.9113V253.733H-25.7846C-25.996 251.67 -24.0999 251.627 -24.263 253.721L-22.4635 253.884V254.937L-24.2327 254.985C-24.3475 256.643 -25.8088 256.588 -25.7846 254.943ZM-24.9695 468.496C-22.0891 471.763 -27.4935 476.064 -30.3074 472.707C-33.1213 469.349 -27.6566 465.447 -24.9695 468.496ZM-30.9113 457.818H-25.9356C-25.537 457.818 -24.3656 458.949 -24.275 459.499C-24.0455 460.909 -25.1385 461.702 -25.1385 461.907C-25.1385 462.083 -24.3897 462.47 -24.275 463.123C-24.1059 464.116 -24.6977 465.459 -24.275 466.59H-30.9113V465.38C-29.5707 465.283 -25.6699 465.949 -25.4707 464.007C-25.4344 463.65 -25.6397 462.96 -25.9356 462.96H-30.9113C-31.5453 459.766 -25.1989 463.014 -25.4586 460.092C-25.5974 458.55 -29.8364 459.136 -30.9113 459.028V457.818ZM-27.892 450.866C-22.9767 450.334 -22.8982 457.388 -28.043 456.928C-31.3521 456.632 -31.9439 452.729 -29.5466 450.872C-27.8075 451.417 -29.45 452.282 -29.6432 452.893C-30.0961 454.351 -29.4198 455.561 -27.892 455.706V450.866ZM-24.9695 445.215C-23.5806 446.45 -24.2991 450.086 -26.153 449.904C-28.5865 449.674 -27.8256 446.298 -28.6529 446.026C-29.8183 445.639 -29.8908 447.418 -29.6432 448.228C-29.5768 448.446 -27.7713 450.455 -29.8063 449.91C-31.8412 449.366 -31.3159 443.231 -27.886 444.961C-26.8172 445.609 -27.258 448.549 -26.2375 448.664C-23.9791 448.228 -27.0708 445.548 -26.0745 444.81C-25.9054 444.683 -25.1747 445.022 -24.9634 445.209L-24.9695 445.215ZM-24.3354 435.233C-24.9574 437.967 -29.9753 438.028 -30.7724 435.463C-32.5115 429.842 -23.0251 429.491 -24.3354 435.233ZM-24.275 426.073C-23.9187 427.525 -25.2653 428.396 -24.269 429.558L-24.5709 430.169L-30.7845 430.03L-30.9173 428.802C-28.5321 428.693 -24.9574 429.667 -25.4827 426.079H-24.2811L-24.275 426.073ZM-30.9113 420.931H-24.7279C-24.4079 420.931 -24.1542 421.79 -24.275 422.141H-30.9113V420.931ZM-24.275 419.116H-30.9113V417.906C-29.3292 417.833 -25.0902 418.565 -25.4707 415.958C-25.519 415.631 -26.0262 414.881 -26.2315 414.881H-30.9053V413.671H-25.6276C-24.7037 413.671 -23.5444 417.004 -24.8728 417.76L-24.269 418.099V419.116H-24.275ZM-24.275 403.095V404.305H-30.9113V403.095H-24.275ZM-28.7978 399.157C-27.9041 399.598 -25.1808 400.016 -24.5709 400.518C-24.2388 400.796 -24.1422 401.74 -24.275 401.879C-24.4984 402.121 -29.8304 400.101 -30.4886 399.798C-31.2796 399.435 -31.0441 398.721 -30.4342 398.279C-30.1685 398.086 -24.4924 395.896 -24.2811 396.138L-24.5769 397.499L-28.8038 399.157H-28.7978ZM-24.275 393.718C-24.1542 394.069 -24.4079 394.928 -24.7279 394.928H-30.9113V393.718H-24.275ZM-24.275 383.136V384.346H-29.5526C-30.5188 384.346 -31.7446 380.989 -30.3074 380.263L-30.9113 379.924V378.907H-24.269C-24.0214 380.801 -26.63 379.972 -28.0128 380.148C-30.8932 380.517 -29.4922 383.142 -28.9488 383.142H-24.275V383.136ZM-24.275 371.647C-24.0576 372.222 -24.752 372.706 -24.7641 373.015C-24.7762 373.281 -24.2992 373.904 -24.2509 374.527C-23.8463 379.948 -33.4716 378.29 -30.3074 373.009L-30.9113 372.67V371.653H-24.275V371.647ZM-24.9695 362.978C-23.5806 364.212 -24.2991 367.848 -26.153 367.666C-28.5865 367.437 -27.8256 364.061 -28.6529 363.788C-29.8183 363.401 -29.8908 365.18 -29.6432 365.991C-29.5768 366.208 -27.7713 368.217 -29.8063 367.673C-31.8412 367.128 -31.3159 360.993 -27.886 362.724C-26.8172 363.371 -27.258 366.311 -26.2375 366.426C-23.9791 365.991 -27.0708 363.31 -26.0745 362.572C-25.9054 362.445 -25.1747 362.784 -24.9634 362.972L-24.9695 362.978ZM-24.275 352.602C-24.0576 353.177 -24.752 353.661 -24.7641 353.969C-24.7762 354.235 -24.2992 354.859 -24.2509 355.482C-23.8463 360.903 -33.4716 359.245 -30.3074 353.963L-30.9113 353.624V352.608H-24.275V352.602ZM-24.275 351.089H-30.9113V349.879C-29.3292 349.807 -25.0902 350.539 -25.4707 347.931C-25.519 347.605 -26.0262 346.854 -26.2315 346.854H-30.9053V345.644H-25.6276C-24.7037 345.644 -23.5444 348.978 -24.8728 349.734L-24.269 350.073V351.089H-24.275ZM-24.3414 328.505C-24.9875 331.318 -30.2289 331.306 -30.8509 328.505C-31.1166 327.319 -30.6335 325.752 -30.7905 324.469L-24.5709 324.33L-24.269 324.941C-25.1687 326.157 -23.9429 326.768 -24.3414 328.511V328.505ZM-30.9113 314.203H-25.9356C-25.537 314.203 -24.3656 315.334 -24.275 315.885C-24.0455 317.294 -25.1385 318.087 -25.1385 318.292C-25.1385 318.468 -24.3897 318.855 -24.275 319.508C-24.1059 320.501 -24.6977 321.844 -24.275 322.975H-30.9113V321.765C-29.5707 321.668 -25.6699 322.334 -25.4707 320.392C-25.4344 320.035 -25.6397 319.345 -25.9356 319.345H-30.9113C-31.5453 316.151 -25.1989 319.4 -25.4586 316.477C-25.5974 314.935 -29.8364 315.522 -30.9113 315.413V314.203ZM-30.9113 311.178H-24.7279C-24.4079 311.178 -24.1542 312.037 -24.275 312.388H-30.9113V311.178ZM-30.9113 306.344L-30.4584 304.831H-24.7279C-24.1603 304.831 -24.1603 306.344 -24.7279 306.344H-30.9113ZM-27.892 297.275C-24.5286 296.827 -22.7111 301.498 -25.8028 303.143C-29.7519 305.255 -33.1818 299.719 -29.2447 297.275C-28.2544 298.376 -29.4319 298.63 -29.6432 299.301C-30.0719 300.657 -29.5405 302.351 -27.892 302.115V297.275ZM-26.0805 291.225C-23.1518 291.939 -23.8583 297.613 -26.9863 296.204C-28.1638 295.671 -27.8679 293.923 -28.3691 293.058C-29.607 290.934 -30.5429 295.048 -28.7858 295.641L-29.5466 296.664C-33.2119 294.425 -28.9427 288.448 -27.2701 292.562C-26.9863 293.258 -27.0768 295.641 -25.9356 295.151C-24.3052 294.449 -26.9621 291.963 -26.0805 291.225ZM-24.275 283.668H-30.9113V282.458C-28.3993 282.398 -25.3197 283.166 -25.3317 279.73H-24.2811C-23.8101 280.728 -24.8789 281.805 -24.897 282.301C-24.897 282.386 -23.8402 282.591 -24.2811 283.662L-24.275 283.668ZM-24.3414 277.406C-24.9875 280.22 -30.2289 280.208 -30.8509 277.406C-31.1166 276.221 -30.6335 274.654 -30.7905 273.371L-24.5709 273.232L-24.269 273.843C-25.1687 275.059 -23.9429 275.67 -24.3414 277.413V277.406ZM-24.275 271.877H-30.9113V270.667C-29.456 270.606 -25.0963 271.254 -25.4707 268.719C-25.519 268.392 -26.0262 267.642 -26.2315 267.642H-30.9053L-30.869 266.619C-30.555 265.682 -26.4308 266.123 -25.5008 266.607C-24.0033 267.388 -23.8402 269.293 -24.8728 270.522L-24.269 270.86V271.877H-24.275ZM-26.0745 260.091C-23.6289 259.976 -23.5806 264.792 -25.9295 264.95C-28.1577 265.095 -27.9404 263.243 -28.3329 261.586L-29.7036 261.295C-29.6613 262.56 -30.1444 263.631 -28.7797 264.205C-28.9246 266.02 -30.555 265.004 -30.8268 263.794C-31.648 260.182 -28.3751 258.5 -27.2641 261.12C-26.9742 261.81 -27.0829 264.205 -25.9295 263.709C-25.066 263.334 -25.3076 261.32 -26.4006 261.108L-26.0684 260.091H-26.0745ZM-30.9113 257.06H-24.7279C-24.4079 257.06 -24.1542 257.919 -24.275 258.27H-30.9113V257.06ZM-30.9113 251.313L-30.4584 249.8H-24.7279C-24.1603 249.8 -24.1603 251.313 -24.7279 251.313H-30.9113ZM-24.3354 246.267C-25.205 250.03 -32.2941 248.863 -30.7724 244.047C-29.8847 241.234 -23.2304 241.482 -24.3354 246.267ZM-30.9113 235.595H-25.9356C-25.4404 235.595 -24.4682 236.757 -24.3414 237.325C-23.967 238.971 -25.2049 239.4 -24.269 240.592L-24.5709 241.203L-30.4221 241.306L-30.9173 239.836H-26.5455C-25.2653 239.836 -25.054 236.811 -26.5455 236.811H-30.9173V235.601L-30.9113 235.595ZM-30.9113 233.78L-30.4584 232.267H-24.7279C-24.1603 232.267 -24.1603 233.78 -24.7279 233.78H-30.9113ZM-30.9113 225.014H-26.2375C-23.6591 225.014 -24.5649 228.771 -24.2992 230.265L-24.7279 230.755H-30.9113L-30.875 229.733L-30.4161 229.285C-28.2845 229.158 -24.0093 229.962 -25.9356 226.52H-30.4584L-30.9113 225.007V225.014ZM-24.275 217.754C-24.0576 218.328 -24.752 218.812 -24.7641 219.121C-24.7762 219.387 -24.2992 220.01 -24.2509 220.633C-23.8403 226.066 -33.5199 224.415 -30.3074 218.97C-32.8194 218.824 -31.9982 221.474 -32.119 223.199H-33.3206C-33.218 221.553 -33.7675 219.98 -32.5839 218.649C-32.4028 218.449 -31.5091 217.754 -31.3642 217.754H-24.275ZM-24.275 205.66C-23.9187 207.112 -25.2653 207.983 -24.269 209.144L-24.5709 209.755L-30.7845 209.616L-30.9173 208.388C-28.5321 208.279 -24.9574 209.253 -25.4827 205.666H-24.2811L-24.275 205.66ZM-24.3354 203.633C-24.9574 206.367 -29.9753 206.428 -30.7724 203.863C-32.5115 198.242 -23.0251 197.891 -24.3354 203.633ZM-30.9113 189.639H-26.2375C-25.6397 189.639 -24.4139 190.607 -24.2811 191.315C-23.961 193.003 -25.1325 193.511 -25.1325 193.717C-25.1325 193.832 -24.3595 194.546 -24.275 195.26C-24.1603 196.167 -24.6554 197.365 -24.275 198.406H-30.9113V197.196H-26.5394C-25.1445 197.196 -25.3559 194.776 -26.2375 194.776H-30.9113V193.566C-29.619 193.535 -25.2714 194.044 -25.4586 191.908C-25.4827 191.642 -25.7484 191.146 -25.9356 191.146H-30.4584L-30.9113 189.633V189.639ZM-36.3399 482.913H-46.2973V481.703C-44.842 481.642 -40.4822 482.29 -40.8566 479.755C-40.9049 479.428 -41.4122 478.678 -41.6175 478.678H-46.2912L-46.255 477.655C-45.9531 476.748 -42.004 477.147 -41.0921 477.547C-39.3229 478.327 -39.2685 480.221 -40.2588 481.697H-36.3338V482.907L-36.3399 482.913ZM-36.3399 450.866V452.076H-46.2973V450.866H-36.3399ZM-36.7928 252.523H-46.2973L-46.2611 251.5L-45.8021 251.053C-43.6706 250.926 -39.3953 251.73 -41.3216 248.288H-45.8444L-46.2973 246.775H-41.6235C-39.7939 246.775 -39.2142 249.595 -39.963 251.004C-39.5946 251.319 -34.945 250.157 -36.7988 252.517L-36.7928 252.523ZM-37.3966 199.313H-45.8444C-46.8045 198.024 -46.3939 194.376 -45.0836 193.426C-44.0208 192.658 -41.7262 192.646 -41.4544 194.171C-37.6683 191.484 -35.9896 196.421 -37.3966 199.313ZM-37.2456 400.814C-37.457 401.559 -39.347 401.528 -39.0089 400.27C-38.6284 398.854 -36.9437 399.756 -37.2456 400.814ZM-37.2758 270.788C-37.5476 271.629 -39.3289 271.471 -39.0149 270.268C-38.7009 269.064 -36.7746 269.239 -37.2758 270.788ZM-37.2939 224.505C-37.6743 225.921 -39.3591 225.02 -39.0572 223.961C-38.8458 223.217 -36.9558 223.247 -37.2939 224.505ZM-41.1706 390.699H-46.2973V389.489H-41.1706C-41.382 387.426 -39.4859 387.383 -39.6489 389.477L-37.8495 389.64V390.693L-39.6429 390.729L-39.824 391.624L-41.1465 391.564L-41.1706 390.699ZM-41.1706 320.555H-46.2973L-45.8444 319.043H-41.1706V317.833H-39.661V319.049L-37.8495 319.218V320.555L-39.6489 320.585L-39.8301 321.481L-41.1525 321.42L-41.1767 320.555H-41.1706ZM-41.1706 274.896H-46.2973L-45.8444 273.383H-41.1706L-40.9955 272.167H-39.661V273.383H-37.8495V274.896H-39.661C-39.2142 276.499 -40.6151 277.763 -39.655 278.98L-39.7999 279.439C-40.0898 279.833 -44.8058 279.869 -45.5425 279.73C-46.2792 279.591 -46.2973 279.343 -46.3033 278.671C-46.3094 277.951 -46.1101 278.26 -45.5545 278.217C-42.8795 278.005 -39.9871 278.992 -41.1646 274.89L-41.1706 274.896ZM-39.7274 474.231C-40.3011 476.766 -45.1017 476.942 -46.0739 474.673C-47.5291 471.261 -43.6343 468.532 -40.8566 470.656C-39.7214 471.527 -39.4134 472.846 -39.7274 474.231ZM-46.2973 460.238H-41.3216C-40.9231 460.238 -39.7516 461.369 -39.661 461.919C-39.4316 463.329 -40.5245 464.122 -40.5245 464.327C-40.5245 464.503 -39.7758 464.89 -39.661 465.543C-39.4919 466.536 -40.0837 467.879 -39.661 469.01H-46.2973V467.8C-44.9568 467.703 -41.0559 468.369 -40.8566 466.427C-40.8204 466.07 -41.0257 465.38 -41.3216 465.38H-46.2973C-46.9313 462.186 -40.5849 465.434 -40.8445 462.512C-40.9834 460.97 -45.2224 461.556 -46.2973 461.448V460.238ZM-43.2841 453.28C-38.3688 452.748 -38.2903 459.802 -43.4351 459.342C-46.7441 459.046 -47.3359 455.143 -44.9386 453.286C-43.1996 453.831 -44.842 454.696 -45.0352 455.307C-45.4881 456.765 -44.8118 457.975 -43.2841 458.12V453.28ZM-43.2841 443.606C-39.9207 443.158 -38.1031 447.829 -41.1948 449.475C-45.1439 451.586 -48.5738 446.05 -44.6367 443.606C-43.6464 444.707 -44.8239 444.961 -45.0352 445.633C-45.464 446.988 -44.9326 448.682 -43.2841 448.446V443.606ZM-41.4665 437.562C-38.5379 438.276 -39.2444 443.951 -42.3723 442.541C-43.5498 442.009 -43.2539 440.26 -43.7551 439.395C-44.993 437.272 -45.9289 441.386 -44.1717 441.979L-44.9326 443.001C-48.5979 440.763 -44.3287 434.785 -42.6561 438.899C-42.3723 439.595 -42.4629 441.979 -41.3216 441.489C-39.6912 440.787 -42.3481 438.3 -41.4665 437.562ZM-41.4665 431.512C-38.5379 432.226 -39.2444 437.901 -42.3723 436.491C-43.5498 435.959 -43.2539 434.21 -43.7551 433.345C-44.993 431.222 -45.9289 435.336 -44.1717 435.929L-44.9326 436.951C-48.5979 434.713 -44.3287 428.735 -42.6561 432.849C-42.3723 433.545 -42.4629 435.929 -41.3216 435.439C-39.6912 434.737 -42.3481 432.25 -41.4665 431.512ZM-46.2973 424.863H-41.6235C-39.0451 424.863 -39.9509 428.62 -39.6852 430.115L-40.1139 430.605H-46.2973L-46.2611 429.582L-45.8021 429.134C-43.6706 429.007 -39.3953 429.812 -41.3216 426.37H-45.8444L-46.2973 424.857V424.863ZM-43.2841 417.603C-39.9207 417.155 -38.1031 421.826 -41.1948 423.472C-45.1439 425.583 -48.5738 420.047 -44.6367 417.603C-43.6464 418.704 -44.8239 418.958 -45.0352 419.63C-45.464 420.985 -44.9326 422.679 -43.2841 422.443V417.603ZM-41.4665 411.559C-38.5379 412.273 -39.2444 417.948 -42.3723 416.538C-43.5498 416.006 -43.2539 414.258 -43.7551 413.392C-44.993 411.269 -45.9289 415.383 -44.1717 415.976L-44.9326 416.998C-48.5979 414.76 -44.3287 408.782 -42.6561 412.896C-42.3723 413.592 -42.4629 415.976 -41.3216 415.486C-39.6912 414.784 -42.3481 412.297 -41.4665 411.559ZM-41.4665 405.515C-38.5379 406.229 -39.2444 411.904 -42.3723 410.494C-43.5498 409.962 -43.2539 408.214 -43.7551 407.348C-44.993 405.225 -45.9289 409.339 -44.1717 409.932L-44.9326 410.954C-48.5979 408.716 -44.3287 402.738 -42.6561 406.852C-42.3723 407.548 -42.4629 409.932 -41.3216 409.442C-39.6912 408.74 -42.3481 406.253 -41.4665 405.515ZM-46.2973 399.768H-40.1139C-39.7939 399.768 -39.5403 400.627 -39.661 400.978H-46.2973V399.768ZM-39.661 397.953H-46.2973V396.743C-44.7152 396.67 -40.4762 397.402 -40.8566 394.795C-40.9049 394.468 -41.4122 393.718 -41.6175 393.718H-46.2912V392.508H-41.0136C-40.0898 392.508 -38.9304 395.841 -40.2588 396.598L-39.655 396.936V397.953H-39.661ZM-39.7274 385.647C-40.3011 388.182 -45.1017 388.357 -46.0739 386.089C-47.5291 382.677 -43.6343 379.948 -40.8566 382.072C-39.7214 382.943 -39.4134 384.262 -39.7274 385.647ZM-39.661 377.395H-48.7127V376.185H-45.6935C-48.9421 369.518 -37.1913 369.379 -40.2649 376.046L-39.661 376.385V377.401V377.395ZM-43.2841 364.393C-38.3869 364.127 -38.1936 370.819 -43.4471 370.456C-46.7743 370.226 -47.3118 366.251 -44.9386 364.393C-43.3505 364.877 -44.8782 365.918 -45.0352 366.414C-45.4942 367.854 -44.7998 369.088 -43.2841 369.227V364.387V364.393ZM-39.661 359.251C-39.3048 360.703 -40.6513 361.574 -39.655 362.736L-39.9569 363.347L-46.1705 363.208L-46.3033 361.979C-43.9181 361.871 -40.3434 362.845 -40.8687 359.257H-39.667L-39.661 359.251ZM-40.1139 358.948H-46.2973C-46.9313 355.754 -40.5849 359.003 -40.8445 356.081C-40.9834 354.538 -45.2224 355.125 -46.2973 355.016V353.806H-41.9194C-40.5245 353.806 -40.7359 351.386 -41.6175 351.386H-46.2912V350.176H-41.0136C-40.9472 350.176 -39.9871 350.92 -39.9388 350.993C-38.8941 352.729 -40.5185 353.957 -40.5124 354.266C-40.5124 354.459 -39.9388 354.744 -39.812 355.022C-39.3229 356.075 -40.0897 357.297 -39.6852 358.452L-40.1079 358.948H-40.1139ZM-46.2973 342.928H-39.661V343.944C-40.748 344.307 -39.8059 344.531 -39.6731 345.517C-38.882 351.253 -49.0086 349.916 -45.6935 344.283L-46.2973 343.944V342.928ZM-46.2973 335.971H-41.3216C-40.8264 335.971 -39.8542 337.132 -39.7274 337.701C-39.3531 339.346 -40.5909 339.776 -39.655 340.968L-39.9569 341.579L-45.8082 341.682L-46.3033 340.212H-41.9315C-40.6513 340.212 -40.44 337.187 -41.9315 337.187H-46.3033V335.977L-46.2973 335.971ZM-43.2841 328.717C-39.9207 328.269 -38.1031 332.939 -41.1948 334.585C-45.1439 336.697 -48.5738 331.161 -44.6367 328.717C-43.6464 329.818 -44.8239 330.072 -45.0352 330.743C-45.464 332.099 -44.9326 333.792 -43.2841 333.557V328.717ZM-46.2973 322.062H-41.6235C-39.0451 322.062 -39.9509 325.819 -39.6852 327.313L-40.1139 327.803H-46.2973L-46.2611 326.781L-45.8021 326.333C-43.6706 326.206 -39.3953 327.01 -41.3216 323.568H-45.8444L-46.2973 322.056V322.062ZM-41.4665 309.066C-38.5379 309.78 -39.2444 315.455 -42.3723 314.045C-43.5498 313.513 -43.2539 311.764 -43.7551 310.899C-44.993 308.776 -45.9289 312.89 -44.1717 313.483L-44.9326 314.505C-48.5979 312.267 -44.3287 306.289 -42.6561 310.403C-42.3723 311.099 -42.4629 313.483 -41.3216 312.993C-39.6912 312.291 -42.3481 309.804 -41.4665 309.066ZM-44.6367 306.646H-40.1139C-39.7939 306.646 -39.5403 307.505 -39.661 307.856H-44.9386C-46.2369 307.856 -46.9494 304.535 -45.6935 303.772L-46.2973 303.434V302.417H-39.655V303.627C-41.9134 303.579 -46.563 303.059 -44.6307 306.652L-44.6367 306.646ZM-40.1139 301.201H-48.7127V299.689H-45.9954C-47.6257 296.034 -43.8094 293.385 -40.76 295.502C-38.7311 296.918 -40.2286 298.769 -39.6791 300.711L-40.1079 301.201H-40.1139ZM-39.661 293.645H-48.7127V292.435H-45.9954C-48.4289 286.609 -39.0572 285.586 -39.6369 291.086C-39.7455 292.138 -40.3977 292.181 -39.661 293.645ZM-39.7274 284.66C-40.3494 287.395 -45.3674 287.456 -46.1644 284.89C-47.9035 279.27 -38.4171 278.919 -39.7274 284.66ZM-39.661 269.759V270.969H-46.2973V269.759H-39.661ZM-44.1838 265.827C-43.3143 265.93 -38.4775 267.212 -39.661 268.549C-41.0921 267.872 -44.7212 267.212 -45.8202 266.408C-46.2248 266.111 -46.3516 265.887 -46.3214 265.373C-46.3396 264.835 -46.2369 265.004 -45.9229 264.841C-45.3915 264.568 -39.8844 262.566 -39.661 262.808C-39.1478 265.065 -43.1512 264.284 -44.1838 265.827ZM-43.2841 256.455C-38.3688 255.923 -38.2903 262.977 -43.4351 262.517C-46.7441 262.221 -47.3359 258.319 -44.9386 256.461C-43.1996 257.006 -44.842 257.871 -45.0352 258.482C-45.4881 259.94 -44.8118 261.15 -43.2841 261.295V256.455ZM-40.3554 240.526C-37.4751 243.793 -42.8795 248.094 -45.6935 244.737C-48.5074 241.379 -43.0425 237.477 -40.3554 240.526ZM-44.6367 237.107H-40.1139C-39.7939 237.107 -39.5403 237.967 -39.661 238.317H-44.9386C-46.2369 238.317 -46.9494 234.996 -45.6935 234.234L-46.2973 233.895V232.879H-39.655V234.089C-41.9134 234.04 -46.563 233.52 -44.6307 237.114L-44.6367 237.107ZM-41.4665 226.526C-39.2081 226.847 -38.9062 231.215 -41.0861 231.614C-43.4049 232.038 -43.1935 229.539 -43.6404 228.25C-44.0872 226.962 -45.4459 227.918 -45.0836 229.69C-44.9447 230.368 -43.3324 231.463 -44.9265 231.959C-47.4386 230.64 -46.3697 225.026 -43.4048 226.804C-42.179 227.542 -42.6259 228.928 -42.2092 229.841C-41.5752 231.239 -40.3132 230.023 -41.0197 228.341C-41.2612 227.76 -42.1187 227.736 -41.4605 226.52L-41.4665 226.526ZM-39.661 223.804C-39.5403 224.154 -39.7939 225.014 -40.1139 225.014H-46.2973V223.804H-39.661ZM-46.2973 216.241H-41.6235C-39.0451 216.241 -39.9509 219.998 -39.6852 221.492L-40.1139 221.982H-46.2973L-46.2611 220.96L-45.8021 220.512C-43.6706 220.385 -39.3953 221.19 -41.3216 217.747H-45.8444L-46.2973 216.235V216.241ZM-46.7502 208.987C-44.8722 208.582 -41.696 209.284 -39.661 208.987V210.003C-40.748 210.366 -39.8059 210.59 -39.6731 211.576C-38.882 217.318 -49.0569 216.005 -45.6995 210.197C-48.1149 210.451 -47.4688 212.635 -47.511 214.426H-48.7127C-48.8636 212.708 -48.9301 209.453 -46.7502 208.981V208.987ZM-44.1838 189.633C-43.4049 189.954 -38.4292 191.291 -39.661 192.658C-42.789 191.944 -45.5606 189.01 -48.7066 191.146L-48.7308 189.821L-39.661 186.614L-39.969 187.667L-44.1838 189.633ZM-46.2731 206.295C-45.8263 205.666 -44.1899 206.228 -44.4918 207.317C-44.8179 208.491 -47.0943 207.444 -46.2731 206.295ZM-61.6833 446.631H-52.1787C-51.8587 446.631 -51.5991 447.502 -51.7259 447.841H-55.6448C-53.628 451.15 -56.5264 454.054 -59.9865 452.651C-62.8246 451.501 -61.0553 448.857 -61.6772 446.637L-61.6833 446.631ZM-56.5566 398.255C-56.774 398.116 -60.9104 398.255 -61.6833 398.255V397.045H-56.5566C-56.6653 394.904 -55.0832 394.994 -54.8779 397.063C-52.5531 397.499 -53.1389 395.853 -52.4807 395.533C-51.2428 394.934 -51.5266 397.499 -52.7041 398.031C-53.5253 398.4 -54.1956 398.098 -54.8356 398.249C-55.1798 398.328 -55.1919 399.06 -55.506 399.157C-56.4962 399.477 -56.4721 398.31 -56.5566 398.255ZM-61.2304 327.809H-52.1787C-51.9312 327.809 -51.5749 328.559 -51.7319 328.862L-52.2271 329.273L-55.6448 329.328C-53.5555 332.534 -56.7921 335.269 -60.0952 333.932C-62.4321 332.988 -61.3149 330.392 -61.6833 328.565C-61.7074 328.293 -61.4478 327.876 -61.2304 327.809ZM-61.6833 276.408H-52.1787C-51.8587 276.408 -51.6051 277.267 -51.7259 277.618H-61.6833V276.408ZM-61.6833 253.128H-52.1787C-51.8587 253.128 -51.5991 253.999 -51.7259 254.338H-55.6448C-53.628 257.647 -56.5264 260.551 -59.9865 259.148C-62.8246 257.998 -61.0553 255.354 -61.6772 253.134L-61.6833 253.128ZM-61.2304 207.475H-52.1787C-51.9312 207.475 -51.5749 208.225 -51.7319 208.527L-52.2271 208.939L-55.6448 208.993C-53.5555 212.2 -56.7921 214.934 -60.0952 213.597C-62.4321 212.653 -61.3149 210.058 -61.6833 208.231C-61.7074 207.959 -61.4478 207.541 -61.2304 207.475ZM-52.6618 455.519C-52.9335 456.359 -54.7149 456.202 -54.4009 454.998C-54.0869 453.794 -52.1606 453.97 -52.6618 455.519ZM-52.6618 444.635C-52.9335 445.476 -54.7149 445.318 -54.4009 444.114C-54.0869 442.91 -52.1606 443.086 -52.6618 444.635ZM-52.6377 375.725C-52.8792 376.53 -54.8055 376.336 -54.4432 375.126C-54.2016 374.321 -52.2754 374.515 -52.6377 375.725ZM-52.6799 274.091C-53.0604 275.507 -54.7451 274.605 -54.4432 273.547C-54.2318 272.802 -52.3418 272.833 -52.6799 274.091ZM-52.6377 205.508C-52.8792 206.313 -54.8055 206.119 -54.4432 204.909C-54.2016 204.105 -52.2754 204.298 -52.6377 205.508ZM-56.5566 372.555H-61.6833V371.345H-56.5566V370.135H-55.047V371.351L-53.2355 371.502V372.555L-55.0047 372.603C-55.1195 374.261 -56.5808 374.207 -56.5566 372.561V372.555ZM-55.047 480.493H-64.0987V479.283H-61.0794C-64.4549 472.398 -52.4505 472.489 -55.6509 479.144L-55.047 479.483V480.499V480.493ZM-55.4999 473.239H-61.6833L-61.1881 471.769C-58.7969 471.557 -56.2124 472.61 -56.1037 469.306H-55.047C-54.9263 470.807 -55.8924 471.345 -55.047 472.779L-55.4999 473.239ZM-55.1134 466.977C-55.983 470.74 -63.0721 469.573 -61.5504 464.757C-60.6628 461.944 -54.0084 462.192 -55.1134 466.977ZM-59.5698 459.929C-58.6761 460.371 -55.9528 460.788 -55.3429 461.29C-55.0108 461.569 -54.9142 462.512 -55.047 462.651C-55.2704 462.893 -60.6024 460.873 -61.2606 460.57C-62.0516 460.207 -61.8161 459.493 -61.2063 459.052C-60.9406 458.858 -55.2644 456.668 -55.0531 456.91L-55.3489 458.271L-59.5759 459.929H-59.5698ZM-55.047 454.49V455.7H-61.6833V454.49H-55.047ZM-55.047 443.606V444.816H-61.6833V443.606H-55.047ZM-55.047 441.791H-61.6833V440.581C-60.228 440.521 -55.8682 441.168 -56.2426 438.633C-56.2909 438.306 -56.7982 437.556 -57.0035 437.556H-61.6772L-61.641 436.534C-61.327 435.596 -57.2027 436.038 -56.2728 436.522C-54.7753 437.302 -54.6122 439.208 -55.6448 440.436L-55.041 440.775V441.791H-55.047ZM-61.8342 428.79C-60.4152 428.505 -57.1726 428.79 -55.4999 428.79C-55.0712 428.79 -54.6726 430.066 -55.6509 430.145C-52.372 436.522 -63.7666 437.114 -61.3814 430.302L-62.734 430.907L-63.1688 434.398L-64.0866 434.531C-64.1651 432.42 -64.5274 429.334 -61.8282 428.79H-61.8342ZM-55.047 424.561H-61.6833V423.351C-60.228 423.29 -55.8682 423.938 -56.2426 421.403C-56.2909 421.076 -56.7982 420.326 -57.0035 420.326H-61.6772L-61.641 419.303C-61.327 418.365 -57.2027 418.807 -56.2728 419.291C-54.7753 420.072 -54.6122 421.977 -55.6448 423.205L-55.041 423.544V424.561H-55.047ZM-58.6701 411.559C-52.535 411.741 -54.9625 420.217 -60.3488 417.307C-62.3837 416.206 -62.0999 413.06 -60.3246 411.862L-59.5759 412.322C-60.6749 413.925 -61.3572 416.375 -58.6701 416.399V411.559ZM-59.2739 409.139C-58.4104 409.351 -55.9347 409.708 -55.3489 410.198C-55.0168 410.476 -54.9202 411.42 -55.0531 411.559C-55.2886 411.807 -61.3633 409.744 -61.5504 409.46C-61.7135 409.218 -61.792 408.395 -61.6772 408.25C-61.5142 408.056 -58.0059 407.645 -57.7704 406.725C-58.9539 406.368 -61.6833 406.217 -61.7074 404.753C-61.7195 404.1 -61.6169 404.408 -61.2727 404.263C-60.536 403.954 -55.2946 402.254 -55.0591 402.484C-54.9323 404.602 -58.3319 403.894 -59.28 405.201C-58.3984 405.285 -54.6545 405.909 -55.0591 407.161C-55.3067 407.923 -58.8633 408.111 -59.2739 409.127V409.139ZM-55.047 393.718V394.928H-60.0227C-61.3934 394.928 -62.5226 391.764 -61.0794 390.844C-62.0396 390.862 -61.7256 389.186 -61.2304 389.186H-55.4999C-55.2523 389.186 -54.8961 389.937 -55.0531 390.239C-55.3912 391.316 -59.5879 390.033 -60.3307 391.298C-60.85 392.078 -60.3307 393.724 -59.4249 393.724H-55.0531L-55.047 393.718ZM-55.047 387.976H-61.6833V386.766C-59.2921 386.657 -55.7233 387.625 -56.2487 384.044H-55.047C-54.576 385.042 -55.6448 386.119 -55.6629 386.615C-55.6629 386.7 -54.6062 386.905 -55.047 387.976ZM-61.6833 378H-56.7076C-56.2124 378 -55.2402 379.161 -55.1134 379.73C-54.739 381.376 -55.9769 381.805 -55.041 382.997L-55.3429 383.608L-61.1942 383.711L-61.6893 382.241H-57.3175C-56.0373 382.241 -55.826 379.216 -57.3175 379.216H-61.6893V378.006L-61.6833 378ZM-61.6833 376.185L-61.2304 374.672H-55.4999C-54.9323 374.672 -54.9323 376.185 -55.4999 376.185H-61.6833ZM-55.047 368.023V369.233H-60.3246C-61.2908 369.233 -62.5166 365.876 -61.0794 365.15L-61.6833 364.811V363.794H-55.041C-54.7934 365.688 -57.402 364.859 -58.7848 365.035C-61.6652 365.404 -60.2642 368.029 -59.7208 368.029H-55.047V368.023ZM-55.047 358.343C-54.6908 359.795 -56.0373 360.667 -55.041 361.828L-55.3429 362.439L-61.5565 362.3L-61.6893 361.072C-59.3041 360.963 -55.7294 361.937 -56.2547 358.349H-55.0531L-55.047 358.343ZM-58.6701 352.299C-53.7548 351.767 -53.6763 358.821 -58.8211 358.362C-62.1301 358.065 -62.7219 354.163 -60.3246 352.306C-58.5856 352.85 -60.228 353.715 -60.4212 354.326C-60.8741 355.784 -60.1978 356.994 -58.6701 357.139V352.299ZM-55.047 342.323C-54.8296 342.898 -55.524 343.382 -55.5361 343.69C-55.5482 343.956 -55.0712 344.58 -55.0228 345.203C-54.6183 350.624 -64.2436 348.966 -61.0794 343.684L-61.6833 343.345V342.329H-55.047V342.323ZM-61.6833 335.366H-56.7076C-56.2124 335.366 -55.2402 336.527 -55.1134 337.096C-54.739 338.741 -55.9769 339.171 -55.041 340.363L-55.3429 340.974L-61.1942 341.077L-61.6893 339.607H-57.3175C-56.0373 339.607 -55.826 336.582 -57.3175 336.582H-61.6893V335.372L-61.6833 335.366ZM-55.047 323.574H-64.0987V322.364H-61.0794C-64.3281 315.697 -52.5773 315.558 -55.6509 322.225L-55.047 322.564V323.58V323.574ZM-58.6701 310.573C-53.7729 310.306 -53.5797 316.998 -58.8331 316.635C-62.1603 316.405 -62.6977 312.43 -60.3246 310.573C-58.7365 311.057 -60.2642 312.097 -60.4212 312.593C-60.8801 314.033 -60.1857 315.267 -58.6701 315.407V310.567V310.573ZM-55.047 305.436C-54.6908 306.888 -56.0373 307.759 -55.041 308.921L-55.3429 309.532L-61.5565 309.393L-61.6893 308.165C-59.3041 308.056 -55.7294 309.03 -56.2547 305.442H-55.0531L-55.047 305.436ZM-56.8525 299.991C-53.9239 300.705 -54.6304 306.38 -57.7583 304.97C-58.9358 304.438 -58.6399 302.689 -59.1411 301.824C-60.379 299.701 -61.3149 303.815 -59.5577 304.408L-60.3186 305.43C-63.9839 303.192 -59.7147 297.214 -58.0421 301.328C-57.7583 302.024 -57.8489 304.408 -56.7076 303.918C-55.0772 303.216 -57.7341 300.729 -56.8525 299.991ZM-55.7475 294.038C-52.8671 297.305 -58.2716 301.607 -61.0855 298.249C-63.8994 294.891 -58.4346 290.989 -55.7475 294.038ZM-61.6833 286.391H-57.0095C-54.4311 286.391 -55.3369 290.148 -55.0712 291.642L-55.4999 292.132H-61.6833L-61.647 291.11L-61.1881 290.662C-59.0565 290.535 -54.7813 291.34 -56.7076 287.897H-61.2304L-61.6833 286.385V286.391ZM-61.6833 279.131H-55.047V280.147C-56.1339 280.51 -55.192 280.734 -55.0591 281.72C-54.2681 287.456 -64.3945 286.119 -61.0794 280.486L-61.6833 280.147V279.131ZM-55.047 273.389C-54.9263 273.74 -55.1799 274.599 -55.4999 274.599H-61.6833V273.389H-55.047ZM-55.047 267.037V271.423C-55.047 271.726 -55.989 272.204 -56.4117 271.58L-56.7016 268.852C-58.3259 269.814 -59.6846 271.955 -61.6833 271.871V267.031H-60.4756L-60.3186 270.056C-59.3826 270.032 -56.6593 266.323 -55.041 267.031L-55.047 267.037ZM-58.6701 260.085C-52.535 260.267 -54.9625 268.743 -60.3488 265.833C-62.3837 264.732 -62.0999 261.586 -60.3246 260.388L-59.5759 260.848C-60.6749 262.451 -61.3572 264.901 -58.6701 264.925V260.085ZM-61.8342 240.126C-60.4152 239.842 -57.1726 240.126 -55.4999 240.126C-55.0712 240.126 -54.6726 241.403 -55.6509 241.482C-52.372 247.858 -63.7666 248.451 -61.3814 241.639L-62.734 242.244L-63.1688 245.735L-64.0866 245.868C-64.1651 243.756 -64.5274 240.671 -61.8282 240.126H-61.8342ZM-55.4999 238.922H-61.6833L-61.1881 237.452C-58.7969 237.241 -56.2124 238.293 -56.1037 234.99H-55.047C-54.9263 236.49 -55.8924 237.029 -55.047 238.463L-55.4999 238.922ZM-55.1134 232.661C-55.983 236.424 -63.0721 235.256 -61.5504 230.44C-60.6628 227.627 -54.0084 227.875 -55.1134 232.661ZM-60.0287 226.224H-55.506C-55.1859 226.224 -54.9323 227.083 -55.0531 227.434H-60.3307C-61.6289 227.434 -62.3415 224.112 -61.0855 223.35L-61.6893 223.011V221.995H-55.047V223.205C-57.3054 223.156 -61.955 222.636 -60.0227 226.23L-60.0287 226.224ZM-61.6833 215.037H-56.7076C-56.2124 215.037 -55.2402 216.199 -55.1134 216.767C-54.739 218.413 -55.9769 218.843 -55.041 220.034L-55.3429 220.645L-61.1942 220.748L-61.6893 219.278H-57.3175C-56.0373 219.278 -55.826 216.253 -57.3175 216.253H-61.6893V215.043L-61.6833 215.037ZM-61.6833 205.962L-61.2304 204.45H-55.4999C-54.9323 204.45 -54.9323 205.962 -55.4999 205.962H-61.6833ZM-61.6833 197.196H-56.7076C-56.2124 197.196 -55.2402 198.357 -55.1134 198.926C-54.739 200.572 -55.9769 201.001 -55.041 202.193L-55.3429 202.804L-61.1942 202.907L-61.6893 201.437H-57.3175C-56.0373 201.437 -55.826 198.412 -57.3175 198.412H-61.6893V197.202L-61.6833 197.196ZM-64.0987 195.381C-64.2194 191.775 -64.3764 189.966 -60.3367 189.621C-59.4853 189.548 -55.2101 189.415 -55.047 190.093C-54.9081 190.656 -55.5422 191.049 -55.5422 191.291C-55.5422 191.478 -55.1074 191.829 -55.0591 192.21C-54.3466 198.073 -63.7605 196.966 -61.3814 191.146C-63.6699 190.686 -62.6011 195.102 -62.891 195.381H-64.0926H-64.0987ZM-63.1929 251.918C-63.8511 251.301 -60.4092 249.25 -59.9019 250.895C-59.3403 252.723 -61.7014 251.428 -61.8342 251.428C-62.0999 251.428 -62.6313 252.154 -63.1868 251.924L-63.1929 251.918ZM-71.9426 358.646C-72.311 358.404 -76.2239 358.827 -77.0693 358.646L-76.6164 357.133H-71.9426V355.923H-70.433V357.139H-68.3195V355.923H-67.1179C-66.822 358.567 -68.5913 358.162 -70.2096 358.664C-70.4813 358.749 -70.3243 359.203 -70.8799 359.275C-72.2989 359.463 -71.8822 358.688 -71.9426 358.646ZM-67.1179 307.554V309.066H-70.741C-68.9415 312.363 -72.0392 315.213 -75.3906 313.87C-78.7419 312.527 -76.6587 309.943 -77.0814 307.554H-67.1239H-67.1179ZM-70.7349 273.994C-68.2229 278.26 -75.1189 280.909 -76.9968 277.098C-77.7214 275.628 -77.0512 275.434 -76.9243 274.339C-76.8579 273.746 -77.3893 272.736 -76.7794 272.312L-67.601 272.222C-66.9065 272.452 -67.1179 273.407 -67.1058 273.994H-70.7289H-70.7349ZM-70.7349 234.082C-68.2229 238.348 -75.1189 240.998 -76.9968 237.186C-77.7214 235.716 -77.0512 235.522 -76.9243 234.427C-76.8579 233.834 -77.3893 232.824 -76.7794 232.401L-67.601 232.31C-66.9065 232.54 -67.1179 233.496 -67.1058 234.082H-70.7289H-70.7349ZM-67.1179 174.218V175.73H-70.741C-68.9838 178.937 -72.0573 181.823 -75.3362 180.486C-78.4158 179.227 -76.707 176.589 -77.0753 174.218H-67.1179ZM-68.0659 475.151C-68.4464 476.566 -70.1311 475.665 -69.8292 474.606C-69.6178 473.862 -67.7278 473.892 -68.0659 475.151ZM-68.0237 388.115C-68.235 388.86 -70.125 388.829 -69.7869 387.571C-69.4065 386.155 -67.7217 387.057 -68.0237 388.115ZM-68.0599 322.406C-67.3655 323.526 -68.9355 324.966 -69.6963 323.895C-70.5296 322.727 -68.6094 321.529 -68.0599 322.406ZM-68.0237 231.057L-69.7024 230.779L-69.5454 229.382H-68.2954L-68.0176 231.064L-68.0237 231.057ZM-68.0237 213.222L-69.7024 212.944L-69.5454 211.546H-68.2954L-68.0176 213.228L-68.0237 213.222ZM-71.9426 430H-77.0693V428.79H-71.9426V427.58H-70.433V428.796L-68.6215 428.947V430L-70.3907 430.048C-70.5055 431.706 -71.9668 431.651 -71.9426 430.006V430ZM-71.9426 371.95H-77.0693V370.74H-71.9426V369.53H-70.433V370.746L-68.6215 370.897V371.95L-70.3907 371.998C-70.5055 373.656 -71.9668 373.602 -71.9426 371.956V371.95ZM-71.9426 342.021H-77.0693L-76.6164 340.508H-71.9426V339.298H-70.433V340.514L-68.6215 340.683V342.021L-70.4209 342.051L-70.6021 342.946L-71.9245 342.886L-71.9487 342.021H-71.9426ZM-71.9426 209.592H-77.0693V208.08H-71.9426L-71.6407 206.573C-73.2167 206.555 -75.2698 204.891 -76.6526 204.758C-77.6248 204.661 -78.1501 205.321 -79.0318 205.375C-79.9134 205.43 -79.533 204.323 -79.1948 203.996C-78.8567 203.669 -70.7531 200.481 -70.4391 200.832L-70.4753 202.308L-74.358 203.554C-74.4848 204.244 -74.3157 204.032 -73.9715 204.226C-71.9185 205.363 -69.7869 204.631 -70.4391 208.086H-68.6275V209.598H-70.4391V210.808H-71.9487V209.598L-71.9426 209.592ZM-77.0753 315.11H-71.7977C-71.7132 315.11 -70.747 316.12 -70.6202 316.344C-69.7144 317.923 -70.9402 319.121 -70.4451 320.858H-77.0814V319.345C-75.7771 319.291 -71.4173 319.914 -71.6347 317.7C-71.6648 317.373 -72.2144 316.623 -72.4016 316.623H-77.0753V315.11ZM-74.358 300.596C-68.9838 299.834 -68.7785 307.445 -74.207 306.961C-76.8096 306.725 -78.0898 304.093 -76.9002 301.83C-76.2481 300.596 -74.6116 300.197 -74.7324 301.661C-74.7747 302.145 -77.7154 304.184 -74.358 305.436V300.596ZM-70.433 299.689H-79.4846V298.176H-76.7673C-79.3035 293.778 -72.5042 291.019 -70.4994 295.073C-69.7023 296.688 -70.9402 297.952 -70.427 299.689H-70.433ZM-74.358 286.391C-71.4233 285.973 -69.0381 288.611 -70.7893 291.328C-72.9269 294.649 -79.1586 292.168 -76.8338 287.691C-76.1273 286.33 -74.6177 285.985 -74.7384 287.456C-74.7928 288.091 -77.6429 290.045 -74.358 291.231V286.391ZM-77.0753 279.736H-72.0996C-71.9728 279.736 -71.0308 280.432 -70.8738 280.625C-69.4306 282.355 -70.9584 283.553 -70.4391 285.483H-77.0753V283.971H-72.7035C-71.8098 283.971 -71.0248 281.248 -72.7035 281.248H-77.0753V279.736ZM-74.358 265.222C-71.4233 264.804 -69.0381 267.442 -70.7893 270.159C-72.9269 273.48 -79.1586 271 -76.8338 266.523C-76.1273 265.161 -74.6177 264.816 -74.7384 266.287C-74.7928 266.922 -77.6429 268.876 -74.358 270.062V265.222ZM-77.0753 258.573H-72.0996C-71.9728 258.573 -71.0308 259.269 -70.8738 259.462C-69.4306 261.193 -70.9584 262.39 -70.4391 264.32H-77.0753V262.808H-72.7035C-71.8098 262.808 -71.0248 260.085 -72.7035 260.085H-77.0753V258.573ZM-75.4932 255.778C-74.4003 256.867 -71.526 256.213 -71.7011 254.531C-71.7917 253.666 -73.4522 253.031 -71.7917 251.924C-68.5852 254.199 -70.6323 258.397 -74.364 257.847C-77.3833 257.405 -78.4098 253.793 -75.9703 251.942L-74.9739 252.71C-74.9136 253.043 -76.7553 254.519 -75.4872 255.778H-75.4932ZM-74.358 249.806V245.42C-74.358 244.24 -70.0103 245.584 -70.1492 248.421C-70.3545 252.632 -77.3652 252.674 -77.3772 248.143C-77.3772 246.709 -75.5114 243.938 -74.6781 246.285C-76.1635 247.362 -76.5198 249.57 -74.352 249.8L-74.358 249.806ZM-70.433 221.686C-70.9402 223.428 -69.7084 224.681 -70.5055 226.302C-72.4921 230.344 -79.2552 227.434 -76.7673 223.199C-78.8929 223.592 -78.1864 225.861 -78.277 227.427H-79.4786C-79.388 226.036 -79.847 223.428 -78.7963 222.37C-78.7238 222.297 -77.5946 221.68 -77.5222 221.68H-70.433V221.686ZM-77.0753 214.735H-71.7977C-71.7132 214.735 -70.747 215.745 -70.6202 215.969C-69.7144 217.548 -70.9402 218.746 -70.4451 220.482H-77.0814V218.97C-75.7771 218.915 -71.4173 219.538 -71.6347 217.324C-71.6648 216.997 -72.2144 216.247 -72.4016 216.247H-77.0753V214.735ZM-70.1854 192.434C-70.6564 195.405 -75.1611 196.137 -76.7734 193.723C-77.9026 192.029 -76.7251 190.601 -76.9485 188.714L-70.7228 188.562C-70.119 188.986 -70.6443 189.996 -70.5779 190.589C-70.5115 191.182 -70.0466 191.563 -70.1854 192.434ZM-77.0753 181.774H-71.7977C-71.6045 181.774 -70.9463 182.337 -70.7772 182.567C-69.5997 184.224 -70.9221 185.701 -70.4391 187.522H-77.0753V186.009C-75.6563 185.931 -71.5803 186.638 -71.6528 184.339C-71.6649 184.001 -72.2325 183.287 -72.4016 183.287H-77.0753V181.774ZM-74.0561 489.864C-67.921 490.046 -70.3485 498.522 -75.7348 495.612C-77.7698 494.511 -77.4859 491.365 -75.7106 490.167L-74.9619 490.627C-76.0609 492.23 -76.7432 494.68 -74.0561 494.704V489.864ZM-70.433 488.957H-77.0693V487.747C-75.4872 487.674 -71.2482 488.406 -71.6286 485.799C-71.6769 485.472 -72.1842 484.722 -72.3895 484.722H-77.0632V483.512H-71.7856C-70.8617 483.512 -69.7023 486.845 -71.0308 487.602L-70.427 487.94V488.957H-70.433ZM-74.9619 479.888C-74.0923 479.991 -69.2555 481.273 -70.4391 482.61C-71.8702 481.933 -75.4993 481.273 -76.5983 480.469C-77.0029 480.172 -77.1297 479.948 -77.0995 479.434C-77.1176 478.896 -77.0149 479.065 -76.7009 478.902C-76.1695 478.63 -70.6625 476.627 -70.4391 476.869C-69.9258 479.126 -73.9293 478.345 -74.9619 479.888ZM-70.433 474.449C-70.3122 474.8 -70.5659 475.659 -70.8859 475.659H-77.0693V474.449H-70.433ZM-70.8859 472.634H-77.0693L-76.5741 471.164C-74.1829 470.952 -71.5984 472.005 -71.4897 468.701H-70.433C-70.3122 470.202 -71.2784 470.74 -70.433 472.174L-70.8859 472.634ZM-70.4994 466.372C-71.369 470.135 -78.4581 468.968 -76.9364 464.152C-76.0488 461.339 -69.3944 461.587 -70.4994 466.372ZM-77.0753 455.7H-72.0996C-71.6045 455.7 -70.6323 456.862 -70.5055 457.43C-70.1311 459.076 -71.369 459.505 -70.433 460.697L-70.7349 461.308L-76.5862 461.411L-77.0814 459.941H-72.7095C-71.4294 459.941 -71.218 456.916 -72.7095 456.916H-77.0814V455.706L-77.0753 455.7ZM-77.0753 445.421H-72.4016C-71.8037 445.421 -70.5779 446.389 -70.4451 447.097C-70.1251 448.785 -71.2965 449.293 -71.2965 449.499C-71.2965 449.614 -70.5236 450.328 -70.4391 451.042C-70.3243 451.949 -70.8195 453.147 -70.4391 454.188H-77.0753V452.978H-72.7035C-71.3086 452.978 -71.5199 450.558 -72.4016 450.558H-77.0753V449.348C-75.7831 449.317 -71.4354 449.825 -71.6226 447.69C-71.6468 447.424 -71.9124 446.928 -72.0996 446.928H-76.6224L-77.0753 445.415V445.421ZM-74.0561 438.47C-69.1589 438.203 -68.9657 444.895 -74.2191 444.532C-77.5463 444.302 -78.0837 440.327 -75.7106 438.47C-74.1225 438.954 -75.6503 439.994 -75.8073 440.49C-76.2662 441.93 -75.5717 443.164 -74.0561 443.304V438.464V438.47ZM-77.0753 431.815H-72.4016C-69.8231 431.815 -70.7289 435.572 -70.4632 437.066L-70.8919 437.556H-77.0753L-77.0391 436.534L-76.5802 436.086C-74.4486 435.959 -70.1734 436.764 -72.0996 433.321H-76.6224L-77.0753 431.809V431.815ZM-72.2445 421.838C-69.9862 422.159 -69.6842 426.527 -71.8641 426.926C-74.1829 427.35 -73.9716 424.851 -74.4184 423.562C-74.8653 422.274 -76.2239 423.23 -75.8616 425.002C-75.7227 425.68 -74.1104 426.775 -75.7046 427.271C-78.2166 425.952 -77.1478 420.338 -74.1829 422.116C-72.9571 422.855 -73.4039 424.24 -72.9873 425.154C-72.3532 426.551 -71.0912 425.335 -71.7977 423.653C-72.0392 423.072 -72.8967 423.048 -72.2385 421.832L-72.2445 421.838ZM-74.358 413.368C-73.2107 413.695 -69.2253 414.124 -70.8859 415.782L-77.033 413.634V412.503L-73.1503 411.105L-77.033 409.708V408.577L-70.8859 406.429C-69.2736 408.093 -72.8786 408.329 -73.9353 408.813C-74.2916 408.976 -74.4788 408.667 -74.358 409.442C-73.4824 409.684 -70.0164 410.053 -70.4451 411.396C-70.6202 411.952 -73.2832 412.443 -73.9353 412.739C-74.2916 412.902 -74.4788 412.594 -74.358 413.368ZM-74.0561 400.07C-70.6927 399.623 -68.8751 404.293 -71.9668 405.939C-75.916 408.05 -79.3458 402.514 -75.4087 400.07C-74.4184 401.171 -75.5959 401.425 -75.8073 402.097C-76.236 403.452 -75.7046 405.146 -74.0561 404.91V400.07ZM-70.4994 394.414C-71.1455 397.227 -76.3869 397.215 -77.0089 394.414C-77.2746 393.228 -76.7915 391.661 -76.9485 390.378L-70.7289 390.239L-70.427 390.85C-71.3267 392.066 -70.1009 392.677 -70.4994 394.42V394.414ZM-77.0753 387.069H-70.8919C-70.5719 387.069 -70.3183 387.928 -70.4391 388.279H-77.0753V387.069ZM-77.0753 376.487H-72.4016C-71.8037 376.487 -70.5779 377.455 -70.4451 378.163C-70.1251 379.851 -71.2965 380.359 -71.2965 380.565C-71.2965 380.68 -70.5236 381.394 -70.4391 382.108C-70.3243 383.015 -70.8195 384.213 -70.4391 385.254H-77.0753V384.044H-72.7035C-71.3086 384.044 -71.5199 381.624 -72.4016 381.624H-77.0753V380.414C-75.7831 380.384 -71.4354 380.892 -71.6226 378.756C-71.6468 378.49 -71.9124 377.994 -72.0996 377.994H-76.6224L-77.0753 376.481V376.487ZM-70.4994 366.898C-71.369 370.661 -78.4581 369.494 -76.9364 364.678C-76.0488 361.865 -69.3944 362.113 -70.4994 366.898ZM-71.1335 350.279C-68.2531 353.546 -73.6575 357.847 -76.4715 354.49C-79.3458 351.065 -73.8206 347.23 -71.1335 350.279ZM-72.2445 343.231C-69.3159 343.944 -70.0224 349.619 -73.1503 348.21C-74.3278 347.677 -74.032 345.929 -74.5331 345.064C-75.771 342.94 -76.707 347.054 -74.9498 347.647L-75.7106 348.669C-79.376 346.431 -75.1068 340.454 -73.4341 344.568C-73.1503 345.263 -73.2409 347.647 -72.0996 347.157C-70.4692 346.455 -73.1262 343.969 -72.2445 343.231ZM-74.0561 332.649C-67.921 332.831 -70.3485 341.307 -75.7348 338.397C-77.7698 337.295 -77.4859 334.149 -75.7106 332.952L-74.9619 333.411C-76.0609 335.015 -76.7432 337.465 -74.0561 337.489V332.649ZM-70.433 331.742H-77.0693V330.532C-74.5573 330.471 -71.4777 331.239 -71.4897 327.803H-70.4391C-69.968 328.801 -71.0369 329.878 -71.055 330.374C-71.055 330.459 -69.9982 330.665 -70.4391 331.736L-70.433 331.742ZM-70.433 322.364V323.877H-77.0693V322.364H-70.433ZM-70.433 231.057H-77.0693L-77.0512 229.563C-74.8351 229.115 -72.6552 229.121 -70.4451 229.563L-70.427 231.057H-70.433ZM-70.433 213.222H-77.0693L-77.0512 211.728C-74.8351 211.28 -72.6552 211.286 -70.4451 211.728L-70.427 213.222H-70.433ZM-78.5789 420.931C-78.5306 419.485 -75.7287 418.293 -75.306 419.926C-74.829 421.778 -77.0632 420.447 -77.2323 420.435C-77.6248 420.404 -78.0354 421.106 -78.5789 420.937V420.931ZM-78.8808 244.361C-77.8965 242.081 -73.9293 241.621 -75.7468 244.646C-76.55 244.906 -76.9123 244.168 -77.2806 244.113C-77.6188 244.065 -78.2045 244.821 -78.8808 244.361ZM-78.8808 200.517C-78.8023 199.101 -75.7529 197.867 -75.306 199.204C-74.5029 201.588 -76.7009 200.323 -77.2746 200.269C-77.5584 200.245 -78.3977 201.013 -78.8808 200.517ZM-83.4097 326.599L-85.0884 326.321L-84.9314 324.923H-83.6814L-83.4036 326.605L-83.4097 326.599ZM-87.3286 322.969H-92.4553V321.457H-87.3286L-87.0267 319.95C-88.6027 319.932 -90.6558 318.268 -92.0386 318.135C-93.0773 318.032 -93.7053 318.861 -94.7197 318.74C-95.4323 317.615 -94.2789 317.288 -93.518 316.925C-92.7572 316.562 -86.0968 313.9 -85.825 314.203L-85.8613 315.679L-89.744 316.925C-89.8708 317.615 -89.7018 317.403 -89.3576 317.597C-87.3045 318.734 -85.1729 318.002 -85.825 321.457H-84.0135V322.969H-85.825V324.179H-87.3347V322.969H-87.3286ZM-87.4252 354.502C-87.5762 354.32 -88.2042 354.181 -88.2284 353.963C-88.2465 353.794 -87.6487 352.886 -87.1837 352.886C-85.342 352.886 -84.7321 357.799 -87.4736 358.065C-89.6414 358.277 -89.424 356.71 -89.7561 355.185C-90.1425 353.401 -92.0809 354.822 -90.9638 356.625C-90.7947 356.897 -90.0701 357.067 -90.052 357.285C-89.9916 357.926 -91.0846 358.918 -91.9964 357.732C-95.0881 353.715 -88.2525 349.583 -88.2344 356.534C-86.8818 356.813 -86.7067 355.385 -87.4252 354.502ZM-89.744 345.947C-84.3698 345.185 -84.1645 352.796 -89.593 352.312C-92.1956 352.076 -93.4758 349.444 -92.2862 347.181C-91.634 345.947 -89.9977 345.548 -90.1184 347.012C-90.1607 347.496 -93.1014 349.535 -89.744 350.787L-89.744 345.947ZM-87.3286 340.811C-84.0678 340.569 -86.6161 343.001 -85.819 345.046H-92.4553V343.533C-90.9698 343.364 -87.4373 344.259 -87.0811 342.105C-86.9965 341.597 -87.3347 341.167 -87.3286 340.811C-88.3189 340.883 -88.8865 341.301 -90.1244 341.04C-93.2222 340.399 -93.6569 336.025 -90.8068 334.761L-90.1184 335.825C-91.6824 337.126 -91.8514 338.856 -89.744 339.601V334.761C-87.9264 334.428 -86.1391 335.335 -85.656 337.174C-85.034 339.564 -87.3226 340.478 -87.3286 340.811ZM-92.4613 328.112H-87.1837C-87.0992 328.112 -86.133 329.122 -86.0062 329.346C-85.1004 330.925 -86.3262 332.123 -85.8311 333.859H-92.4673V332.347C-91.163 332.292 -86.8033 332.915 -87.0207 330.701C-87.0509 330.374 -87.6003 329.624 -87.7875 329.624H-92.4613V328.112ZM-85.825 326.599H-92.4613L-92.4432 325.105C-90.2271 324.657 -88.0472 324.663 -85.8371 325.105L-85.819 326.599H-85.825ZM-90.68 313.416C-91.0483 314.578 -93.2463 313.688 -92.3285 312.376C-91.8092 311.631 -90.2633 312.109 -90.68 313.416ZM-121.204 390.463C-124.163 409.333 -150.382 409.103 -153.063 390.209L-153.094 280.196C-150.612 260.932 -123.934 260.727 -121.156 279.923L-121.204 390.463ZM-179.741 360.527C-180.345 365.386 -184.113 365.337 -188.268 365.011C-193.859 364.569 -193.992 360.993 -193.533 356.087C-193.026 350.72 -189.276 350.66 -184.644 351.096C-179.113 351.622 -179.162 355.808 -179.747 360.527H-179.741ZM-187.199 336.576H-193.533V334.156H-187.199L-187.156 332.08L-184.783 331.736V334.156L-182.362 333.708L-182.072 331.729L-180.152 331.778C-179.107 332.117 -180.007 335.051 -180.556 335.735C-181.571 336.987 -183.395 336.491 -184.783 336.569V338.687H-187.199V336.569V336.576ZM-189.765 309.369C-188.225 309.115 -186.106 309.556 -184.487 309.369L-185.091 306.041L-183.02 306.084C-182.628 308.007 -181.71 309.151 -179.699 309.405C-179.657 310.675 -179.222 311.625 -180.701 311.807C-182.821 312.061 -189.493 311.153 -190.743 312.472C-192.066 313.876 -189.741 316.961 -187.815 315.261C-186.8 314.366 -187.652 312.69 -184.789 313.301C-184.747 321.729 -197.223 317.355 -192.331 311.038C-191.824 310.379 -190.568 309.508 -189.771 309.375L-189.765 309.369Z" fill="#BE9526"/>
</svg>
