<svg width="836" height="260" viewBox="0 0 836 260" fill="none" xmlns="http://www.w3.org/2000/svg">
<path d="M667.555 29.7538C669.434 11.6516 649.115 7.05727 645.501 19.8171L635.805 59.3082L622.078 89.3637C617.312 102.556 600.31 135.174 589.527 131.171C578.743 127.168 575.113 123.561 573.429 116.987C572.358 109.707 568.859 91.0585 563.439 74.7054C558.018 58.3524 546.402 67.2771 541.272 73.7835C537.734 84.4798 535.89 112.121 556.814 137.115C582.968 168.357 567.146 180.243 534.717 196.51C508.774 209.523 460.204 171.899 440.359 159.477C420.515 147.054 360.752 165.626 414.141 203.448C483.52 252.597 515.638 242.971 558.915 235.927C593.232 230.341 709.971 188.485 735.547 167.61C752.218 147.444 786.31 101.095 789.309 77.0316C792.307 52.968 777.074 64.2986 769.083 72.9719C762.168 92.9664 746.051 133.598 736.906 136.17C727.76 138.742 728.113 131.291 729.433 127.244C746.087 107.398 769.921 61.0519 762.263 37.947C754.604 14.8421 742.843 25.6963 737.506 34.0098C737.001 53.7079 732.646 101.129 698.532 109.256C670.511 115.932 682.011 108.032 684.121 104.644C700.002 92.7627 720.172 54.1414 717.971 32.265C715.77 10.3886 688.303 -2.50855 691.923 27.0364C695.543 56.5814 663.325 99.3065 648.092 103.59C632.859 107.874 647.14 96.2259 649.115 89.2194C658.673 71.6963 665.586 48.7269 667.555 29.7538Z" fill="#BE9526"/>
<path d="M167.946 36.3232C166.068 18.2209 186.386 13.6266 190 26.3865L199.696 65.8775L213.424 95.9331C218.19 109.125 235.191 141.743 245.975 137.74C256.758 133.737 260.388 130.131 262.072 123.556C263.144 116.276 266.642 97.6278 272.063 81.2748C277.483 64.9218 289.099 73.8464 294.23 80.3529C297.767 91.0491 299.611 118.69 278.687 143.684C252.533 174.926 268.355 186.813 300.784 203.079C326.727 216.092 375.297 178.469 395.142 166.046C414.987 153.623 474.75 172.196 421.36 210.017C351.982 259.166 319.864 249.54 276.587 242.496C242.269 236.911 125.531 195.055 99.9548 174.179C83.2835 154.013 49.1911 107.665 46.1927 83.601C43.1943 59.5373 58.4271 70.8679 66.4183 79.5412C73.3335 99.5357 89.4502 140.168 98.5955 142.739C107.741 145.311 107.388 137.86 106.068 133.813C89.4144 113.968 65.5799 67.6212 73.2385 44.5163C80.8971 21.4115 92.6587 32.2656 97.9957 40.5791C98.5007 60.2772 102.856 107.698 136.969 115.826C164.991 122.502 153.49 114.602 151.38 111.213C135.5 99.332 115.329 60.7107 117.53 38.8343C119.731 16.9579 147.198 4.06079 143.578 33.6058C139.958 63.1508 172.176 105.876 187.409 110.159C202.642 114.443 188.362 102.795 186.386 95.7887C176.829 78.2656 169.915 55.2963 167.946 36.3232Z" fill="#BE9526"/>
</svg>
