<svg width="47" height="282" viewBox="0 0 47 282" fill="none" xmlns="http://www.w3.org/2000/svg">
<g clip-path="url(#clip0_23_2202)">
<path d="M22.9808 3.83301C12.4008 3.83301 3.83325 12.4197 3.83325 22.9997C3.83325 33.5797 12.4008 42.1663 22.9808 42.1663C33.5799 42.1663 42.1666 33.5797 42.1666 22.9997C42.1666 12.4197 33.5799 3.83301 22.9808 3.83301ZM22.9999 38.333C14.5283 38.333 7.66659 31.4713 7.66659 22.9997C7.66659 14.528 14.5283 7.66634 22.9999 7.66634C31.4716 7.66634 38.3333 14.528 38.3333 22.9997C38.3333 31.4713 31.4716 38.333 22.9999 38.333Z" fill="#640A09"/>
<path d="M23.9583 13.417H21.0833V24.917L31.1458 30.9545L32.5833 28.597L23.9583 23.4795V13.417Z" fill="#640A09"/>
</g>
<path d="M24.6745 94.612C26.2534 95.8126 26.2534 98.1874 24.6745 99.388L13.2697 108.06C11.2946 109.562 8.45383 108.154 8.45383 105.672L8.45383 88.3276C8.45383 85.8463 11.2946 84.4377 13.2697 85.9396L24.6745 94.612Z" fill="#640A09"/>
<path d="M39.8598 94.612C41.4387 95.8126 41.4387 98.1874 39.8598 99.388L28.455 108.06C26.4799 109.562 23.6391 108.154 23.6391 105.672L23.6391 88.3276C23.6391 85.8463 26.4799 84.4377 28.455 85.9396L39.8598 94.612Z" fill="#640A09"/>
<path d="M13.8807 164.536C13.8807 163.778 14.3927 163.166 15.4167 162.7C16.4406 162.233 17.7572 162 19.3663 162C22.5554 162 25.2546 163.1 27.4641 165.3C29.6724 167.502 30.7766 170.191 30.7766 173.368C30.7766 174.126 30.7034 174.876 30.5572 175.619C30.4109 176.363 30.1914 177.07 29.8989 177.74L41.9674 189.764C42.6403 190.435 42.9844 191.258 42.9996 192.234C43.0136 193.211 42.6842 194.035 42.0113 194.705L40.8264 195.929C40.1535 196.629 39.3266 196.986 38.346 197C37.3664 197.015 36.5256 196.672 35.8234 195.973L23.711 183.905C23.0381 184.197 22.3359 184.408 21.6045 184.54C20.8731 184.671 20.1417 184.736 19.4102 184.736C16.2212 184.736 13.5226 183.635 11.3142 181.434C9.10474 179.234 8 176.545 8 173.368C8 171.765 8.22703 170.453 8.6811 169.433C9.134 168.413 9.74079 167.903 10.5015 167.903C10.794 167.903 11.065 167.953 11.3142 168.055C11.5623 168.157 11.7888 168.311 11.9936 168.515L16.8649 173.368L19.3663 170.92L14.4951 166.066C14.2903 165.862 14.1369 165.629 14.0351 165.367C13.9322 165.104 13.8807 164.827 13.8807 164.536Z" fill="#640A09"/>
<g clip-path="url(#clip1_23_2202)">
<path d="M25.4999 277.252L22.902 274.887C13.6749 266.52 7.58325 261.002 7.58325 254.229C7.58325 248.711 11.9191 244.375 17.4374 244.375C20.5549 244.375 23.547 245.826 25.4999 248.12C27.4528 245.826 30.4449 244.375 33.5624 244.375C39.0808 244.375 43.4166 248.711 43.4166 254.229C43.4166 261.002 37.3249 266.52 28.0978 274.905L25.4999 277.252Z" fill="#640A09"/>
</g>
<defs>
<clipPath id="clip0_23_2202">
<rect width="46" height="46" fill="white"/>
</clipPath>
<clipPath id="clip1_23_2202">
<rect width="43" height="43" fill="white" transform="translate(4 239)"/>
</clipPath>
</defs>
</svg>
