<svg width="1134" height="746" viewBox="0 0 1134 746" fill="none" xmlns="http://www.w3.org/2000/svg">
<path d="M2090.76 687.073C2090.76 687.073 1844.2 573.941 1640.43 693.059C1436.67 812.177 1277.68 693.059 1277.68 693.059C1277.68 693.059 1098.9 588.307 908.203 693.059C717.51 797.811 507.834 693.059 507.834 693.059L507.834 326.199L2081.75 326.199" fill="#DDECE2"/>
<path d="M-704.756 686.902C-704.756 686.902 -458.199 586.047 -254.434 692.238C-50.6694 798.43 108.321 692.238 108.321 692.238C108.321 692.238 287.103 598.854 477.797 692.238C668.49 785.623 878.166 692.238 878.166 692.238V365.189L-695.749 365.189" fill="#DDECE2"/>
<path d="M642.244 52.7455C642.244 52.7455 888.801 153.601 1092.57 47.4092C1296.33 -58.7825 1455.32 47.4092 1455.32 47.4092C1455.32 47.4092 1634.1 140.794 1824.8 47.4092C2015.49 -45.9755 2225.17 47.4092 2225.17 47.4092V374.458H651.251" fill="#DDECE2"/>
<path d="M1173.76 52.7455C1173.76 52.7455 927.199 153.601 723.434 47.4092C519.669 -58.7825 360.679 47.4092 360.679 47.4092C360.679 47.4092 181.897 140.794 -8.7967 47.4092C-199.49 -45.9755 -409.166 47.4092 -409.166 47.4092V374.458H1164.75" fill="#DDECE2"/>
</svg>
