<svg width="1134" height="746" viewBox="0 0 1134 746" fill="none" xmlns="http://www.w3.org/2000/svg">
<path d="M2090.76 687.073C2090.76 687.073 1844.2 573.941 1640.43 693.059C1436.67 812.177 1277.68 693.059 1277.68 693.059C1277.68 693.059 1098.9 588.307 908.203 693.059C717.51 797.811 507.834 693.059 507.834 693.059L507.834 326.199L2081.75 326.199" fill="#DDECE2"/>
<path d="M-704.756 686.902C-704.756 686.902 -458.199 586.047 -254.434 692.238C-50.6694 798.43 108.321 692.238 108.321 692.238C108.321 692.238 287.103 598.854 477.797 692.238C668.49 785.623 878.166 692.238 878.166 692.238V365.189L-695.749 365.189" fill="#DDECE2"/>
<path d="M642.244 52.7455C642.244 52.7455 888.801 153.601 1092.57 47.4092C1296.33 -58.7825 1455.32 47.4092 1455.32 47.4092C1455.32 47.4092 1634.1 140.794 1824.8 47.4092C2015.49 -45.9755 2225.17 47.4092 2225.17 47.4092V374.458H651.251" fill="#DDECE2"/>
<path d="M1173.76 52.7455C1173.76 52.7455 927.199 153.601 723.434 47.4092C519.669 -58.7825 360.679 47.4092 360.679 47.4092C360.679 47.4092 181.897 140.794 -8.7967 47.4092C-199.49 -45.9755 -409.166 47.4092 -409.166 47.4092V374.458H1164.75" fill="#DDECE2"/>
<circle cx="1139.5" cy="234.5" r="118.5" stroke="#E1C2CF" stroke-width="40"/>
<path d="M1139.5 116C1173.81 116 1204.11 126.516 1225.39 142.572C1246.66 158.62 1258 179.298 1258 200.5C1258 221.702 1246.66 242.38 1225.39 258.428C1204.11 274.484 1173.81 285 1139.5 285C1105.19 285 1074.89 274.484 1053.61 258.428C1032.34 242.38 1021 221.702 1021 200.5C1021 179.298 1032.34 158.62 1053.61 142.572C1074.89 126.516 1105.19 116 1139.5 116Z" stroke="#E1C2CF" stroke-width="40"/>
<path d="M73.5 537C107.809 537 138.109 547.516 159.389 563.572C180.658 579.62 192 600.298 192 621.5C192 642.702 180.658 663.38 159.389 679.428C138.109 695.484 107.809 706 73.5 706C39.1914 706 8.89108 695.484 -12.3887 679.428C-33.6581 663.38 -45 642.702 -45 621.5C-45 600.298 -33.6581 579.62 -12.3887 563.572C8.89108 547.516 39.1914 537 73.5 537Z" stroke="#BE9526" stroke-width="40"/>
<path d="M206.991 372.775V414.011H97.8979C104.873 406.371 127.607 372.775 137.137 372.775H206.991Z" fill="#640A09"/>
<path d="M97.9247 289C106.443 312.08 116.426 334.548 121.298 358.88C117.598 364.178 94.3841 395.351 90.6039 395.43L71.3037 289H97.898H97.9247Z" fill="#640A09"/>
<path d="M218.97 451.255H214.977V366.786C214.977 364.39 206.112 355.712 202.385 356.777C176.989 361.116 144.192 354.035 122.655 368.916L57.3542 452.426L54 450.563L119.993 366.227C125.93 360.451 132.958 357.815 141.157 356.777C160.83 354.301 182.499 355.819 202.332 352.704C207.683 351.932 218.97 362.58 218.97 366.733V451.201V451.255Z" fill="#640A09"/>
<path d="M1000.16 329.929C999.737 333.905 1000.72 336.86 1002.82 339.01C1004.89 341.134 1007.88 342.277 1010.97 343.067C1014.03 343.85 1017.61 344.371 1020.76 345.011C1024.01 345.672 1026.97 346.481 1029.29 347.845V347.846C1037.84 352.881 1040.88 360.526 1039.6 367.117C1038.36 373.503 1032.99 379.298 1023.73 381.01L1022.83 381.162C1021.24 381.4 1019.57 381.394 1017.8 381.34C1016.08 381.287 1014.21 381.187 1012.46 381.284C1010.69 381.383 1008.88 381.687 1007.22 382.516C1005.54 383.359 1004.09 384.7 1002.97 386.723L1002.7 387.219L1002.82 387.772C1003.2 389.508 1004.06 390.771 1005.26 391.641C1006.42 392.475 1007.8 392.871 1009.12 393.105C1010.43 393.337 1011.89 393.436 1013.17 393.561C1014.34 393.674 1015.41 393.81 1016.38 394.063L1016.79 394.18C1023.78 396.352 1027.22 400.271 1028.52 404.981C1029.86 409.821 1029.02 415.749 1026.83 421.953C1024.65 428.135 1022.32 431.388 1019.2 433.291C1016 435.242 1011.72 435.93 1005.22 436.377L1004.14 436.451L1003.87 437.499L1002.4 443.214L979.645 441.938L978.508 435.198L978.314 434.049L977.152 433.953L976.016 433.844C970.353 433.227 965.06 431.501 960.626 428.028H960.625C953.309 422.293 950.366 416.4 950.948 411.328C951.51 406.433 955.437 401.627 963.485 397.988L964.277 397.64C966.739 396.585 969.925 395.823 973.232 394.992C976.444 394.186 979.806 393.306 982.286 391.992L982.285 391.991C984.046 391.061 984.945 389.552 984.916 387.855C984.891 386.381 984.17 384.984 983.182 383.893L982.98 383.679L982.975 383.673L982.85 383.552C982.21 382.96 981.353 382.569 980.505 382.279C979.569 381.96 978.459 381.705 977.269 381.476C976.074 381.245 974.74 381.03 973.353 380.804C971.956 380.576 970.491 380.334 968.995 380.046C963.107 378.913 957.156 377.122 953.595 373.146L953.258 372.754H953.257C951.652 370.812 950.359 368.123 949.769 365.317C949.213 362.68 949.304 360.075 950.193 357.947L950.382 357.528L950.383 357.526C952.822 352.46 955.978 349.461 959.797 347.634C963.43 345.896 967.762 345.17 972.87 344.885L973.902 344.833H973.908C974.903 344.785 975.981 345.08 977.503 345.472C978.933 345.84 980.66 346.259 982.565 346.145L982.564 346.144C984.616 346.027 986.316 345.547 987.689 344.697C989.076 343.84 990.039 342.664 990.692 341.311C991.8 339.018 992.033 336.168 992.049 333.365L995.86 332.413L995.62 330.114C997.44 330.205 998.917 330.081 1000.08 329.689L1000.16 329.929ZM937.942 329.843C937.857 329.844 937.771 329.846 937.686 329.848C937.771 329.845 937.856 329.844 937.942 329.843ZM917.002 329.489C916.928 329.496 916.858 329.502 916.792 329.509C916.926 329.389 917.083 329.254 917.26 329.109C917.329 329.053 917.402 328.996 917.476 328.938L917.002 329.489ZM994.184 328.493L994.138 329.415C993.945 329.41 993.752 329.407 993.559 329.403C993.783 329.13 993.979 328.821 994.152 328.489L994.184 328.493ZM963.396 328.811C963.56 329.032 963.751 329.217 963.954 329.368C963.55 329.367 963.146 329.365 962.741 329.365C962.968 329.211 963.188 329.019 963.396 328.811ZM1065.43 326.69C1065.79 327.023 1066.19 327.445 1066.58 327.906C1066.67 328.002 1066.75 328.099 1066.83 328.195H1065.18C1065.2 328.148 1065.21 328.102 1065.22 328.058C1065.33 327.592 1065.34 327.045 1065.33 326.608C1065.36 326.635 1065.4 326.661 1065.43 326.69ZM1055.26 327.333C1055.68 327.638 1056.11 327.927 1056.54 328.195H1055.23C1055.27 327.902 1055.28 327.614 1055.26 327.333ZM1022.72 327.608C1022.93 327.821 1023.13 328.015 1023.34 328.195H1022.95L1022.86 327.966L1022.72 327.608ZM1019.47 289.34C1020.79 290.385 1022.14 291.475 1023.49 292.568C1026.68 295.169 1029.77 297.768 1031.98 299.783C1032.73 300.46 1033.35 301.06 1033.85 301.561L1033.48 301.653L1032.39 301.924C1028.23 297.634 1023.94 293.372 1019.47 289.34ZM993.726 280.664C997.102 280.429 1000.56 280.451 1003.5 280.701C1006.5 280.956 1008.75 281.435 1009.87 281.993H1009.87C1009.88 282.003 1009.99 282.07 1010.24 282.243C1010.49 282.42 1010.83 282.665 1011.25 282.971C1012.07 283.581 1013.17 284.418 1014.46 285.408C1014.99 285.818 1015.55 286.254 1016.13 286.71L1014.16 288.632L1022.14 298.459L1013.98 289.171L1011.79 290.868L1011.58 290.563L1008.96 291.998C1009.28 292.756 1009.6 293.608 1009.93 294.537L1008.04 289.645L1005.49 290.334L1004.39 284.936L1002 285.177C1001.99 284.356 1001.97 283.536 1001.95 282.717L998.961 282.56L996.575 300.259L994.509 299.824L996.957 289.288L994.18 288.23L992.102 292.039C991.991 291.446 991.65 290.94 991.109 290.638C990.646 290.379 990.162 290.343 989.891 290.335C989.603 290.326 989.281 290.349 989.088 290.359C989.022 290.363 988.962 290.363 988.909 290.365C988.91 290.356 988.912 290.346 988.913 290.336L989.234 287.932L989.889 287.142L989.438 286.415L989.522 285.781L989.227 286.089C988.785 285.433 988.151 284.867 987.266 284.752C986.377 284.636 985.654 285.035 985.216 285.348C984.76 285.673 984.355 286.092 984.062 286.401C983.718 286.766 983.533 286.969 983.379 287.097C982.959 287.442 982.026 288.299 980.926 289.293C980.043 290.091 979.015 291.009 977.964 291.917C978.346 290.814 978.617 289.712 978.863 288.701C979.094 287.756 979.304 286.897 979.572 286.087L979.691 285.743C979.796 285.453 979.908 285.173 980.03 284.903L980.156 284.638L980.158 284.634C980.323 284.298 980.718 283.866 981.503 283.398C982.274 282.94 983.309 282.514 984.573 282.139C987.099 281.389 990.34 280.9 993.726 280.664Z" fill="#640A09" stroke="#640A09" stroke-width="3"/>
<path d="M1043.73 323.559L1048.68 329.747" stroke="#640A09" stroke-width="3"/>
<path d="M966.985 312.419L989.265 285.188" stroke="#640A09" stroke-width="3"/>
<path d="M918.159 328.172L981.838 283.952" stroke="#640A09" stroke-width="3"/>
<path d="M1064.77 326.033L1033.82 301.278" stroke="#640A09" stroke-width="3"/>
<path d="M981.838 288.902L945.944 318.608" stroke="#640A09" stroke-width="3"/>
<path d="M934.804 321.083L980.6 286.426" stroke="#640A09" stroke-width="3"/>
<path d="M974.412 312.418L991.74 286.426" stroke="#640A09" stroke-width="3"/>
</svg>
