<svg width="1134" height="1711" viewBox="0 0 1134 1711" fill="none" xmlns="http://www.w3.org/2000/svg">
<path d="M1201.95 160.883C813.247 402.374 191 260.497 -30.0001 183.497C-498.687 737.754 -210.539 1308.4 -54.2434 1560.5C110.717 1466.9 514.789 1372.3 885.5 1473C1348.89 1598.87 1297.93 1586.87 1524.22 1455.08C1750.51 1323.29 1687.84 -140.98 1201.95 160.883Z" fill="#E1C2CF"/>
<ellipse cx="568.65" cy="597.531" rx="196.183" ry="60.5431" fill="#DDECE2"/>
<ellipse cx="559.433" cy="1053.58" rx="196.183" ry="109.899" fill="#DDECE2"/>
<rect x="161.8" y="688.346" width="797.9" height="272.444" fill="#DDECE2"/>
<path d="M569.807 1189.73C515.929 1189.65 461.182 1184.99 408.713 1172.84C373.032 1164.58 304.723 1143.62 283.301 1112.73C260.509 1079.86 277.889 1046.45 300.997 1020.05C316.994 1001.77 335.77 986.119 352.663 968.773L310.569 994.095C246.052 1029.75 143.497 1047.79 92.5026 981.184C58.8354 937.198 39.2039 893.725 34.8589 837.565C29.2236 764.558 57.5583 675.889 118.862 632.179C180.219 588.43 258.442 615.464 318.89 646.42L345.421 661.648C321.984 643.722 298.021 624.704 284.973 597.446C271.464 569.215 266.961 549.907 283.209 521.557C299.456 493.207 343.17 480.519 372.4 471.938C465.936 444.469 571.493 439.231 668.07 451.313C718.09 457.578 778.051 470.661 822.252 495.168C882.582 528.611 877.381 573.308 834.326 619.913C819.145 636.352 801.988 651.053 786.281 666.913L819.395 646.42C886.979 605.277 1001.52 584.442 1053.3 660.134C1118.99 756.135 1129.38 911.072 1042.6 997.728C976.381 1063.85 897.078 1042.73 822.449 1004.61L794.167 988.488C817.604 1006.41 841.567 1025.43 854.616 1052.69C868.77 1082.26 873.194 1104.99 853.273 1133.36C839.948 1152.32 812.522 1163.23 791.231 1170.64C720.368 1195.31 644.752 1204.34 569.807 1204.82V1189.7V1189.73ZM444.606 578.296C418.246 582.481 431.834 626.112 457.733 611.147C475.271 601.013 464.553 575.137 444.606 578.296ZM592.612 580.994C584.87 573.005 571.94 584.785 580.301 592.971C583.883 596.472 592.322 595.301 593.468 601.526C595.443 612.266 578.8 614.003 578.998 602.513L575.074 602.487C575.969 620.689 602.316 615.648 596.444 599.197C593.586 591.194 582.066 593.642 581.315 587.443C580.472 580.389 591.967 580.086 591.585 587.943L594.811 588.009C595.008 585.745 594.205 582.639 592.612 580.994ZM623.106 588.009C624.001 576.94 607.135 574.69 605.976 585.693C604.739 597.472 618.392 593.669 621.065 600.236C625.621 611.463 606.937 614.846 607.319 602.474H603.369C604.014 619.005 627.859 617.583 625.042 600.21C623.646 591.576 609.913 593.682 609.294 587.614C608.557 580.323 619.696 579.915 619.907 587.917L623.106 588.009ZM659.117 578.296C632.757 582.481 646.345 626.112 672.244 611.147C689.782 601.013 679.064 575.137 659.117 578.296ZM477.68 579.454H474.389V610.028C474.389 612.003 478.049 613.714 479.984 613.714C481.92 613.714 486.239 612.003 486.239 610.028V579.454H482.289V608.712C482.289 610.555 477.68 610.937 477.68 607.396V579.441V579.454ZM494.797 579.454V612.99H498.747V599.183L503.013 612.358L507.305 612.99C506.581 609.463 502.592 601.276 502.763 598.17C502.829 597.038 505.251 594.116 505.699 591.997C507.253 584.587 502.789 577.98 494.81 579.467L494.797 579.454ZM540.854 579.454H533.612L531.637 613.003C532.914 612.977 534.995 613.437 535.495 611.924L537.233 583.403L541.144 612.384C541.815 613.372 546.832 613.556 547.345 611.924C548.385 603.527 548.635 594.748 550.136 586.43C550.268 585.719 550.36 583.969 551.374 584.061L552.691 612.99H556.641L554.666 579.441H547.424C546.265 588.049 545.976 596.841 544.804 605.435C544.672 606.422 544.712 607.462 543.474 607.725L540.841 579.441L540.854 579.454ZM567.832 579.454H564.541V612.99H567.832V579.454ZM636.918 579.454H632.968V612.99H636.918V579.454ZM688.9 579.454V612.99H692.192V584.061L697.485 612.963L704.028 613.003V579.467H700.078V608.396L695.562 582.995L695.483 579.454H688.9ZM325.026 714.926C325.329 715.387 325.026 724.415 325.026 726.1H328.318V714.926H331.609V711.636H328.318C327.909 708.385 328.805 707.608 331.649 706.621C332.57 702.567 329.529 703.291 327.172 704.897C324.394 706.805 325.632 708.753 325 711.162C324.842 711.741 323.815 711.372 323.657 712.596C323.248 715.689 324.934 714.781 325.026 714.913V714.926ZM300.681 704.41H297.389V726.113H300.681V704.41ZM403.986 704.41V726.113C408.963 725.245 414.52 729.009 417.403 722.757C420.748 715.505 414.533 708.411 407.278 712.307V704.41H403.986ZM430.965 704.41H427.673V726.113H430.965V704.41ZM498.075 704.41V726.113H500.709C500.867 722.665 499.274 713.426 504.948 714.255C505.659 714.36 507.292 715.466 507.292 715.913V726.1H509.925V714.597C509.925 712.399 502.578 710.267 500.722 712.952V704.397H498.089L498.075 704.41ZM530.979 726.1V705.384C530.979 704.686 529.109 704.133 528.346 704.397V726.1H530.979ZM599.406 704.41H596.773V712.965C582.118 706.016 581.934 731.812 596.47 724.797L597.207 726.113H599.419V704.41H599.406ZM616.523 705.397V726.113L618.748 726.034L619.722 725.034C619.999 720.388 618.248 711.07 625.739 715.268V725.126L629.031 726.113V715.926C629.031 711.938 622.895 710.675 619.828 712.307C619.143 711.504 621.671 701.37 616.536 705.41L616.523 705.397ZM692.85 705.397V725.126C692.85 726.363 696.142 726.363 696.142 725.126V705.397C696.142 704.41 693.298 703.844 692.85 705.397ZM736.274 714.926C736.576 715.4 736.274 724.415 736.274 726.1H738.907V714.926C743.568 715.163 743.37 711.715 738.867 711.267C737.919 706.2 741.501 707.477 742.199 706.042C743.502 703.344 737.919 703.962 736.761 706.529C735.958 708.319 736.616 709.78 736.287 711.175C736.116 711.925 734.522 711.951 734.312 712.636C733.614 714.794 736.155 714.742 736.274 714.926ZM749.44 705.397V725.126L752.732 726.113V716.584C752.732 713.794 759.315 713.333 759.315 716.584V726.113H761.949V715.268C761.949 712.294 754.865 710.03 752.745 712.965L752.627 705.515L751.731 704.436C750.941 704.186 749.638 704.699 749.44 705.41V705.397ZM819.184 704.41C818.42 704.147 816.551 704.699 816.551 705.397V726.113H819.184V704.41ZM271.74 711.636L275.006 709.332C270.871 701.857 256.033 705.634 261.549 714.242C263.564 717.387 267.422 716.742 269.739 718.559C273.847 721.757 268.501 725.324 263.827 721.823C262.787 721.046 262.695 719.111 261.549 719.546L259.272 721.928C261.668 727.811 274.11 728.627 274.413 721.191C274.808 711.583 262.195 716.69 264.617 709.148C267.106 708.345 271.148 708.582 271.727 711.649L271.74 711.636ZM366.001 706.568C363.894 708.306 363.631 712.307 365.237 714.531C367.567 717.743 375.072 716.571 374.388 721.151C373.703 725.732 367.028 722.204 365.487 719.559C362.432 721.744 362.867 723.152 365.843 725.1C371.873 729.035 381.485 724.955 377.271 717.624C375.072 713.807 367.396 714.11 367.739 710.675C368.081 707.24 374.901 708.951 376.007 711.649C379.141 709.28 378.746 708.082 375.375 706.371C372.808 705.068 368.292 704.686 365.987 706.582L366.001 706.568ZM217.678 705.818L215.137 705.726L219.811 726.047H222.971L226.658 712.307L230.331 726.061L232.951 725.837L238.165 705.739L235.466 706.121L231.911 720.204C230.924 720.23 228.883 708.872 228.29 707.384C227.316 704.963 226.026 705.002 224.959 707.332C223.656 710.175 223.234 715.11 222.181 718.374C221.957 719.059 222.01 720.362 221.062 720.204L217.678 705.831V705.818ZM424.289 706.463C421.854 704.95 418.72 708.371 421.05 710.03C423.592 711.846 426.199 707.661 424.289 706.463ZM434.257 706.384L434.862 710.043H437.588L437.93 706.99L434.27 706.384H434.257ZM276.994 714.926V726.1H280.286V714.926L284.315 715.321C284.67 718.387 287.777 722.507 288.054 725.284C288.278 727.6 286.421 729.246 286.224 731.378C287.251 731.338 288.673 731.654 289.542 731.075C290.687 730.312 295.73 714.268 296.757 711.649L293.558 711.728L289.845 720.835C287.303 715.36 288.199 709.964 280.299 711.636V707.687H277.007L276.941 711.596L275.124 711.688V714.886L277.02 714.939L276.994 714.926ZM380.958 714.926V726.1H384.25V714.926H386.883V711.636H384.236V707.687H381.327L380.958 711.636H378.311V714.926H380.945H380.958ZM441.498 714.926V726.1H444.79V714.926L448.727 714.268C449.846 720.625 455.139 724.955 450.702 731.365C451.768 731.352 453.072 731.615 454.007 731.049C455.231 730.325 460.59 714.373 461.235 711.636L458.022 711.715L455.31 720.177C453.809 720.454 454.27 720.085 453.849 719.335C453.019 717.848 451.808 712.596 450.728 711.938L444.79 711.622V707.674H441.498L441.432 711.583L439.615 711.675V714.873L441.511 714.926H441.498ZM469.135 714.926V726.1L472.427 725.113V714.926H475.06V711.636H472.414L472.045 707.687H469.135L469.069 711.609L467.121 712.004L467.252 714.886L469.135 714.939V714.926ZM609.281 714.926V726.1L612.573 725.113V714.926H615.206V711.636H612.56L612.191 707.687H609.281L609.215 711.609L607.267 712.004L607.398 714.886L609.281 714.939V714.926ZM305.947 720.191H316.481C317.679 712.202 307.343 707.174 303.196 715.123C298.482 724.152 311.293 731.733 316.481 722.481C312.36 719.414 313.926 721.546 312.175 722.757C308.568 725.231 305.131 720.928 305.961 720.191H305.947ZM337.363 711.109C328.95 712.583 329.977 727.39 339.088 726.745C349.437 726.008 347.093 709.411 337.363 711.109ZM347.396 711.636V726.1H350.688C350.503 721.638 349.766 712.425 356.6 714.926C357.363 709.898 353.835 710.03 351.004 712.952C350.464 710.964 349.213 711.662 347.383 711.636H347.396ZM401.353 711.636C397.561 712.741 394.836 710.056 391.307 711.793C385.711 714.544 385.724 723.205 391.307 725.955C394.836 727.693 397.561 725.008 401.353 726.113V711.649V711.636ZM251.332 719.533C252.491 708.819 237.138 708.648 238.139 719.862C238.784 727.074 247.277 728.364 251.319 723.139C250.134 719.348 248.251 722.928 246.921 723.349C243.748 724.336 241.115 722.862 240.799 719.533H251.332ZM424.382 711.636H421.09V726.1H424.382V711.636ZM434.257 711.636V726.1L437.509 726.061C438.483 721.23 438.47 716.479 437.509 711.662L434.257 711.622V711.636ZM487.345 713.162C480.235 706.884 470.873 718.664 478.181 724.797C485.488 730.93 493.981 719.019 487.345 713.162ZM525.712 719.533C526.871 708.819 511.519 708.648 512.519 719.862C513.164 727.074 521.657 728.364 525.699 723.139C524.514 719.348 522.631 722.928 521.301 723.349C518.128 724.336 515.495 722.862 515.179 719.533H525.712ZM534.271 711.636V731.365H536.904V725.442C549.583 730.746 551.809 710.319 539.84 711.583C537.549 711.82 537.457 713.241 534.271 711.636ZM569.149 719.533C570.123 712.202 559.959 708.24 556.377 714.979C551.782 723.586 563.83 731.062 569.149 722.481C566.753 720.322 566.2 722.889 564.738 723.349C561.789 724.284 558.102 723.126 558.616 719.533H569.149ZM571.124 711.636V726.1H573.757C573.889 722.928 572.48 713.426 577.997 714.242C578.708 714.347 580.341 715.452 580.341 715.9V726.087L582.566 726.008C584.607 725.324 583.646 716.334 582.592 714.307C580.894 711.043 576.746 710.688 574.073 712.939L573.336 711.622H571.124V711.636ZM644.818 719.533C644.423 706.16 625.976 711.451 632.31 723.191C634.706 727.627 641.553 727.008 644.16 723.139L643.159 721.507C639.67 723.902 634.337 725.389 634.285 719.533H644.818ZM657.129 711.78C652.876 712.754 651.48 718.493 653.047 722.165C655.825 728.68 665.147 725.929 664.555 723.165C663.225 721.151 661.908 723.244 660.223 723.481C651.809 724.613 654.811 708.924 662.909 716.137L664.542 713.978C662.461 711.82 660.104 711.109 657.116 711.793L657.129 711.78ZM672.442 721.507C669.124 719.177 670.282 710.846 665.213 711.649C666.082 718.519 673.06 724.323 668.492 731.036C668.492 731.812 671.599 731.509 671.665 730.259L678.367 711.636L675.825 711.728L672.442 721.494V721.507ZM683.449 711.78C679.196 712.754 677.8 718.493 679.367 722.165C682.145 728.68 691.467 725.929 690.875 723.165C689.545 721.151 688.228 723.244 686.543 723.481C678.13 724.613 681.132 708.924 689.229 716.137L690.862 713.978C688.781 711.82 686.425 711.109 683.436 711.793L683.449 711.78ZM711.928 719.533C711.533 706.16 693.087 711.451 699.42 723.191C701.816 727.627 708.663 727.008 711.27 723.139L710.269 721.507C706.78 723.902 701.448 725.389 701.395 719.533H711.928ZM724.239 711.78C718.288 713.136 718.156 724.073 723.739 725.81C735.971 729.601 736.734 708.924 724.239 711.78ZM768.98 711.78C760.79 713.676 763.331 729.127 773.812 725.81C779.934 723.876 779.394 709.372 768.98 711.78ZM798.789 726.1V714.597C798.789 714.242 797.551 712.662 797.077 712.359C793.088 709.846 791.086 713.491 790.573 713.504C790.323 713.504 788.769 711.82 787.215 711.636C785.122 711.385 783.055 712.688 780.777 711.688L779.71 712.623V725.113L783.002 726.1V716.571C783.002 713.531 788.269 713.991 788.269 715.913V726.1H790.902C791.244 722.744 789.204 713.057 795.076 714.215C795.458 714.294 796.169 715.768 796.169 715.913V726.1H798.802H798.789ZM814.576 719.533C815.55 712.202 805.385 708.24 801.804 714.979C797.209 723.586 809.256 731.062 814.576 722.481C812.179 720.322 811.626 722.889 810.165 723.349C807.216 724.284 803.529 723.126 804.042 719.533H814.576ZM834.971 719.533C836.13 708.819 820.777 708.648 821.778 719.862C822.423 727.074 830.916 728.364 834.958 723.139C833.773 719.348 831.89 722.928 830.56 723.349C827.387 724.336 824.754 722.862 824.438 719.533H834.971ZM847.269 713.162C844.583 710.135 836.669 711.701 837.064 715.742C837.565 721.046 844.912 719.388 845.504 721.191C846.347 723.731 842.476 723.889 840.712 723.349C840.238 723.204 835.866 719.269 837.051 723.705C838.236 728.14 851.587 726.995 847.822 719.519C846.413 717.19 840.014 718.151 839.764 715.926C840.712 711.004 846.544 717.743 848.151 715.571C848.427 715.202 847.69 713.61 847.282 713.149L847.269 713.162ZM860.422 713.162C857.736 710.135 849.823 711.701 850.218 715.742C850.718 721.046 858.065 719.388 858.658 721.191C859.5 723.731 855.629 723.889 853.865 723.349C853.391 723.204 849.02 719.269 850.205 723.705C851.39 728.14 864.741 726.995 860.975 719.519C859.566 717.19 853.167 718.151 852.917 715.926C853.865 711.004 859.698 717.743 861.304 715.571C861.581 715.202 860.843 713.61 860.435 713.149L860.422 713.162ZM863.924 711.636V726.1H866.558C866.716 722.652 865.123 713.412 870.797 714.242C871.508 714.347 873.141 715.452 873.141 715.9V726.087H875.774V714.584C875.774 712.57 868.52 710.043 866.874 712.939L866.136 711.622H863.924V711.636ZM891.561 719.533C892.72 708.819 877.368 708.648 878.368 719.862C879.013 727.074 887.506 728.364 891.548 723.139C890.363 719.348 888.48 722.928 887.15 723.349C883.977 724.336 881.344 722.862 881.028 719.533H891.561ZM904.715 715.584C904.017 710.662 894.511 710.004 893.642 714.755C892.72 719.809 898.158 719.348 900.962 720.322C903.767 721.296 901.686 724.257 897.829 723.468C896.354 723.165 893.971 719.651 892.891 723.126C895.761 728.601 907.98 726.271 904.109 719.809C902.503 717.137 899.488 718.111 897.499 717.203C894.458 715.821 897.104 713.07 900.765 714.61C902.029 715.137 902.081 717.005 904.728 715.571L904.715 715.584ZM917.881 715.584C917.184 710.662 907.677 710.004 906.808 714.755C905.887 719.809 911.324 719.348 914.129 720.322C916.933 721.296 914.853 724.257 910.995 723.468C909.521 723.165 907.137 719.651 906.058 723.126C908.928 728.601 921.147 726.271 917.276 719.809C915.669 717.137 912.654 718.111 910.666 717.203C907.625 715.821 910.271 713.07 913.931 714.61C915.195 715.137 915.248 717.005 917.895 715.571L917.881 715.584ZM921.608 722.257C918.527 723.086 920.488 726.758 922.793 726.1C924.412 725.639 924.346 721.52 921.608 722.257ZM227.645 738.933V758.662L230.937 759.649V750.12C230.937 747.33 237.52 746.869 237.52 750.12V759.649H240.154V748.804C240.154 745.829 233.07 743.565 230.95 746.5L230.832 739.051L229.936 737.972C229.146 737.722 227.843 738.235 227.645 738.946V738.933ZM298.706 737.945V759.649H301.339C301.471 756.477 300.062 746.974 305.579 747.79C306.29 747.896 307.922 749.001 307.922 749.449V759.636L310.148 759.557C312.123 758.899 311.254 750.291 310.385 748.304C308.686 744.447 304.565 744.329 301.352 746.487V737.932H298.719L298.706 737.945ZM440.182 748.462C440.484 748.935 440.182 757.951 440.182 759.636H442.815V748.462C447.463 748.725 447.278 745.224 442.789 744.829L443.579 740.67L446.107 740.578C447.094 737.169 444.118 737.314 441.959 738.577C439.8 739.841 440.563 743.092 440.195 744.724C440.024 745.487 438.444 745.474 438.22 746.171C437.522 748.33 440.063 748.277 440.182 748.462ZM521.762 737.945H519.129V746.5C504.474 739.551 504.29 765.348 518.826 758.333L519.563 759.649H521.775V737.945H521.762ZM544.146 737.945H541.512V746.5C526.858 739.551 526.673 765.348 541.209 758.333L541.947 759.649H544.159V737.945H544.146ZM730.349 748.462V759.636H732.982V748.462H735.615V745.171H732.969L733.272 741.183L735.655 740.209L735.615 737.959C730.507 737.366 729.967 740.867 730.283 745.145L728.334 745.54L728.466 748.422L730.349 748.475V748.462ZM790.231 737.945V759.649H792.864C792.996 756.477 791.587 746.974 797.104 747.79C797.815 747.896 799.447 749.001 799.447 749.449V759.636L801.672 759.557C803.647 758.899 802.778 750.291 801.909 748.304C800.211 744.447 796.09 744.329 792.877 746.487V737.932H790.244L790.231 737.945ZM226.329 739.262H212.188C211.503 739.262 210.924 741.131 211.2 741.894C211.661 742.368 216.888 740.973 217.77 742.881V759.649H220.404V741.894H226.329V739.262ZM418.154 739.92C416.534 740.38 416.6 744.5 419.339 743.763C422.42 742.934 420.458 739.262 418.154 739.92ZM576.733 739.92C575.114 740.38 575.179 744.5 577.918 743.763C580.999 742.934 579.037 739.262 576.733 739.92ZM885.32 739.92C883.569 740.446 883.99 744.645 886.624 743.855C888.375 743.329 887.954 739.13 885.32 739.92ZM321.076 748.462V759.636H323.709V748.462C328.199 748.922 328.291 744.789 323.736 745.145L323.38 741.223H321.089L321.01 745.132L319.061 745.527L319.193 748.409L321.076 748.462ZM668.505 748.462V759.636H671.138V748.462H673.771V745.171H671.125L670.796 741.223H668.505L668.399 745.079C664.792 745.329 664.91 748.514 668.492 748.462H668.505ZM907.361 748.462V759.636H909.995V748.462H912.628V745.171H909.981L909.652 741.223H907.361L907.256 745.079C903.648 745.329 903.767 748.514 907.348 748.462H907.361ZM251.99 745.184C248.83 744.408 246.934 747.343 244.406 745.171L243.077 745.829L243.379 759.372L246.052 759.662C246.289 754.463 244.169 746.672 251.977 747.817V745.197L251.99 745.184ZM256.401 745.316C250.884 746.566 250.503 757.03 255.44 759.149C262.866 762.321 268.804 753.831 264.183 747.777C262.287 745.303 259.416 744.632 256.401 745.316ZM270.411 745.171H267.777V756.016C267.777 759.004 274.663 761.465 276.665 758.32C276.625 760.412 280.272 759.728 280.272 758.649V746.158C280.272 745.619 278.64 744.842 277.981 745.184C275.638 745.921 278.429 755.069 275.677 756.688C273.979 757.819 270.397 756.688 270.397 754.713V745.184L270.411 745.171ZM296.072 759.978C296.691 756.885 296.072 749.817 296.072 746.171C296.072 745.237 293.294 744.368 293.123 746.5C279.245 739.354 277.955 764.19 292.781 758.991L291.464 761.939L283.867 762.887L283.577 764.887C288.172 765.058 294.887 765.848 296.072 759.965V759.978ZM328.318 745.171V759.636H330.951C331.083 754.16 329.41 747.448 336.889 747.474V745.184C334.717 744.158 332.373 746.487 331.293 746.527C331.109 746.527 330.661 744.224 328.331 745.184L328.318 745.171ZM341.945 745.316C335.823 746.724 335.849 758.148 341.945 759.504C344.526 760.083 347.936 759.03 350.727 759.372L351.03 745.816L349.7 745.158C347.054 747.119 345.724 744.447 341.932 745.316H341.945ZM356.613 745.171H353.979V756.016C353.979 759.004 360.866 761.465 362.867 758.32C362.827 760.412 366.475 759.728 366.475 758.649V746.158C366.475 745.619 364.842 744.842 364.184 745.184C361.84 745.921 364.631 755.069 361.879 756.688C360.181 757.819 356.6 756.688 356.6 754.713V745.184L356.613 745.171ZM388.2 759.649V748.804C388.2 747.935 385.737 745.382 384.539 745.184C381.471 744.684 379.747 747.066 379.299 747.066C378.917 747.066 378.074 745.434 376.652 745.184C374.493 744.816 371.57 746.106 369.108 745.184V759.649H371.741C371.952 756.727 370.504 748.225 374.73 747.79C375.507 747.711 377.008 748.159 377.008 748.804V759.649C383.96 761.031 376.889 747.198 383.249 747.764C386.606 748.067 385.329 757.306 385.566 759.649H388.2ZM403.986 759.649V746.171C403.986 745.237 401.208 744.368 401.037 746.5C394.006 742.012 387.923 748.633 390.886 755.964C393.387 762.15 399.141 758.293 403.973 759.649H403.986ZM420.432 759.649V746.171C420.432 745.474 418.562 744.921 417.798 745.184V759.649H420.432ZM424.382 745.171V759.636H427.015C427.173 756.187 425.58 746.948 431.255 747.777C431.966 747.882 433.598 748.988 433.598 749.435V759.622H436.232V748.119C436.232 746.106 428.977 743.579 427.331 746.474L426.594 745.158H424.382V745.171ZM451.176 745.316C445.659 746.566 445.277 757.03 450.215 759.149C457.641 762.321 463.579 753.831 458.957 747.777C457.061 745.303 454.191 744.632 451.176 745.316ZM462.552 745.171V759.636H465.185C465.422 754.424 463.315 746.645 471.11 747.79V745.171C468.938 744.145 466.594 746.474 465.514 746.514C465.33 746.514 464.882 744.21 462.552 745.171ZM490.847 759.649V748.146C490.847 747.79 489.609 746.211 489.135 745.908C485.146 743.394 483.144 747.04 482.631 747.053C482.381 747.053 480.827 745.369 479.273 745.184C477.18 744.934 475.113 746.237 472.835 745.237L471.768 746.171V758.662L475.06 759.649V750.12C475.06 747.08 480.327 747.54 480.327 749.462V759.649H482.96C483.302 756.293 481.262 746.606 487.134 747.764C487.516 747.843 488.227 749.317 488.227 749.462V759.649H490.86H490.847ZM506.634 753.068C507.608 745.737 497.443 741.775 493.862 748.514C489.267 757.122 501.314 764.598 506.634 756.016C504.237 753.858 503.684 756.424 502.223 756.885C499.274 757.819 495.587 756.661 496.1 753.068H506.634ZM559.932 753.068C559.537 739.696 541.091 744.987 547.424 756.727C549.82 761.162 556.667 760.544 559.274 756.674L558.273 755.042C554.784 757.438 549.452 758.925 549.399 753.068H559.932ZM572.414 749.106C572.665 743.776 562.184 743.671 561.842 748.791C561.526 753.647 565.555 753.173 569.162 754.029L569.794 757.017C567.042 756.924 564.712 757.977 563.461 755.003C559.511 755.319 561.723 758.872 564.356 759.465C572.217 761.255 575.877 754.121 570.176 751.699C568.675 751.068 563.461 751.304 564.541 748.791C565.357 746.908 569.742 747.435 570.202 749.817L572.414 749.093V749.106ZM579.011 759.649V746.171C579.011 745.474 577.141 744.921 576.378 745.184V759.649H579.011ZM583.619 764.9C591.467 765.164 595.403 765.506 596.154 756.701C596.312 754.845 596.602 745.526 595.127 745.171C593.902 744.868 593.047 746.25 592.52 746.25C592.112 746.25 591.348 745.303 590.519 745.197C577.76 743.644 580.17 764.163 592.836 758.978C593.837 763.966 584.225 761.636 583.619 762.268V764.887V764.9ZM598.748 745.171V759.636H601.381C601.513 756.464 600.104 746.961 605.621 747.777C606.332 747.882 607.964 748.988 607.964 749.435V759.622L610.19 759.544C612.23 758.859 611.269 749.87 610.216 747.843C608.517 744.579 604.37 744.224 601.697 746.474L600.96 745.158H598.748V745.171ZM630.348 754.384C629.887 752.502 629.11 747.106 628.044 745.829C627.438 745.105 625.384 744.895 625.081 745.184C624.541 745.698 629.031 758.938 629.65 759.346C630.177 759.702 631.967 759.873 632.283 759.622C632.705 759.267 633.6 751.62 635.601 751.107C636.378 753.687 636.707 759.636 639.894 759.688C641.316 759.715 640.644 759.491 640.96 758.741C641.632 757.135 645.331 745.711 644.831 745.197C640.223 744.921 641.763 752.331 638.919 754.397C638.735 752.476 637.379 744.316 634.653 745.197C632.994 745.737 632.586 753.489 630.374 754.384H630.348ZM658.63 753.068C659.788 742.355 644.436 742.183 645.437 753.397C646.082 760.61 654.574 761.899 658.617 756.674C657.432 752.884 655.549 756.464 654.219 756.885C651.046 757.872 648.412 756.398 648.096 753.068H658.63ZM684.292 745.184C681.132 744.408 679.236 747.343 676.708 745.171L675.378 745.829L675.681 759.372L678.353 759.662C678.59 754.463 676.471 746.672 684.278 747.817V745.197L684.292 745.184ZM698.117 759.649V745.184H695.905C695.115 747.553 694.627 745.5 692.481 745.211C679.999 743.487 682.909 765.558 695.167 758.333L695.905 759.649H698.117ZM713.245 759.649V749.462C713.245 743.842 705.069 745.816 701.816 745.237L700.75 746.171V759.649L702.975 759.57L703.949 758.57C704.226 753.924 702.475 744.605 709.967 748.804V758.662L713.258 759.649H713.245ZM727.057 749.12C726.359 744.197 716.853 743.539 715.984 748.29C715.062 753.344 720.5 752.884 723.304 753.858C726.109 754.832 724.029 757.793 720.171 757.003C718.696 756.701 716.313 753.186 715.233 756.661C718.104 762.136 730.322 759.807 726.451 753.344C724.845 750.673 721.83 751.647 719.842 750.738C716.8 749.356 719.447 746.606 723.107 748.146C724.371 748.672 724.424 750.541 727.07 749.106L727.057 749.12ZM741.343 745.316C733.153 747.211 735.694 762.663 746.175 759.346C752.297 757.411 751.758 742.907 741.343 745.316ZM761.277 745.184C758.117 744.408 756.221 747.343 753.693 745.171L752.363 745.829L752.666 759.372L755.339 759.662C755.576 754.463 753.456 746.672 761.264 747.817V745.197L761.277 745.184ZM761.935 746.158V759.636C768.887 761.018 761.817 747.185 768.176 747.751C771.534 748.054 770.257 757.293 770.494 759.636H773.127V750.094C773.127 747.053 778.394 747.514 778.394 749.435V759.622H781.027V748.119C781.027 747.975 779.408 745.882 779.25 745.777C775.471 743.5 772.798 747.04 772.126 747.027C771.705 747.027 771.086 745.777 770.481 745.5C768.19 744.434 765.53 746.106 763.015 745.224L761.935 746.145V746.158ZM809.125 745.316C803.608 746.566 803.226 757.03 808.164 759.149C815.59 762.321 821.528 753.831 816.906 747.777C815.01 745.303 812.14 744.632 809.125 745.316ZM823.792 756.029V746.171C823.792 745.632 822.16 744.855 821.501 745.197C819.698 745.763 820.29 755.727 821.528 757.648C823.226 760.294 827.887 760.36 830.06 758.346L830.797 759.662H833.009V746.185C833.009 745.487 831.113 744.921 830.376 745.197C830.389 749.817 831.179 760.465 823.792 756.043V756.029ZM846.149 749.106C846.4 743.776 835.919 743.671 835.577 748.791C835.261 753.647 839.29 753.173 842.897 754.029L843.529 757.017C840.777 756.924 838.447 757.977 837.196 755.003C833.246 755.319 835.458 758.872 838.091 759.465C845.952 761.255 849.612 754.121 843.911 751.699C842.41 751.068 837.196 751.304 838.276 748.791C839.092 746.908 843.477 747.435 843.937 749.817L846.149 749.093V749.106ZM861.949 753.068C861.554 739.696 843.108 744.987 849.441 756.727C851.837 761.162 858.684 760.544 861.291 756.674L860.29 755.042C856.801 757.438 851.469 758.925 851.416 753.068H861.949ZM873.589 746.698C870.903 743.671 862.99 745.237 863.385 749.278C863.885 754.582 871.232 752.923 871.824 754.726C872.667 757.267 868.796 757.425 867.032 756.885C866.558 756.74 862.186 752.805 863.371 757.24C864.556 761.676 877.907 760.531 874.142 753.055C872.733 750.725 866.334 751.686 866.084 749.462C867.032 744.539 872.865 751.278 874.471 749.106C874.747 748.738 874.01 747.145 873.602 746.685L873.589 746.698ZM884.32 759.649L887.611 758.662V746.171C887.611 744.934 884.32 744.934 884.32 746.171V759.649ZM903.411 759.649V749.462C903.411 743.842 895.235 745.816 891.983 745.237L890.916 746.171V759.649L893.141 759.57L894.116 758.57C894.392 753.924 892.641 744.605 900.133 748.804V758.662L903.424 759.649H903.411ZM918.342 745.316C910.153 747.211 912.694 762.663 923.174 759.346C929.297 757.411 928.757 742.907 918.342 745.316ZM413.861 751.094H406.62V753.055H413.861V751.094ZM615.667 762.071C617.313 760.61 618.234 755.635 615.535 755.674C610.69 757.214 616.589 759.57 613.244 761.952C613.942 763.11 614.745 762.9 615.667 762.071ZM253.307 772.468V793.184L255.532 793.105L256.507 792.105C256.783 787.459 255.032 778.141 262.524 782.339V792.197L265.815 793.184V782.997C265.815 779.009 259.68 777.746 256.612 779.378C255.927 778.575 258.455 768.441 253.32 772.481L253.307 772.468ZM340.813 782.01V793.184H343.446V782.01H346.079V778.72H343.433L343.736 774.732L346.119 773.758L346.079 771.507C340.971 770.915 340.431 774.416 340.747 778.694L338.798 779.088L338.93 781.971L340.813 782.023V782.01ZM415.178 793.184V772.468C415.178 771.771 413.282 771.205 412.545 771.481V780.023C405.343 775.627 399.023 781.944 402.077 789.486C404.579 795.672 410.333 791.816 415.165 793.171L415.178 793.184ZM459.26 771.481H456.627V780.036C441.972 773.087 441.788 798.883 456.324 791.868L457.061 793.184H459.273V771.481H459.26ZM496.1 771.481H493.467V793.184H496.1V771.481ZM563.224 792.197V772.468C563.224 771.929 561.591 771.152 560.933 771.494L560.038 772.573L559.919 780.023C552.941 775.469 546.99 782.524 549.899 789.723C551.953 794.816 557.602 792.382 561.578 793.184C562.171 793.237 563.079 792.671 563.224 792.197ZM573.086 782.01C573.389 782.484 573.086 791.5 573.086 793.184H575.719V782.01C580.38 782.247 580.183 778.799 575.68 778.351C574.732 773.284 578.313 774.561 579.011 773.126C580.314 770.428 574.732 771.047 573.573 773.613C572.77 775.403 573.428 776.864 573.099 778.259C572.928 779.009 571.335 779.036 571.124 779.72C570.426 781.879 572.967 781.826 573.086 782.01ZM628.36 771.481H625.726V793.184H628.36V771.481ZM835.629 782.01V793.184H838.263V782.01H840.896V778.72H838.249L838.552 774.732L840.935 773.758L840.896 771.507C835.787 770.915 835.247 774.416 835.563 778.694L833.615 779.088L833.746 781.971L835.629 782.023V782.01ZM380.642 773.455C379.022 773.916 379.088 778.035 381.827 777.298C384.908 776.469 382.946 772.797 380.642 773.455ZM419.523 773.508C417.693 774.1 418.035 777.983 420.655 777.298C423.276 776.614 422.894 772.416 419.523 773.508ZM440.616 773.547C437.535 774.377 439.497 778.049 441.801 777.391C443.421 776.93 443.355 772.81 440.616 773.547ZM619.498 773.455C617.879 773.916 617.945 778.035 620.683 777.298C623.764 776.469 621.803 772.797 619.498 773.455ZM633.31 773.455C631.559 773.982 631.98 778.18 634.614 777.391C636.365 776.864 635.944 772.666 633.31 773.455ZM737.287 773.455C735.668 773.916 735.734 778.035 738.472 777.298C741.553 776.469 739.592 772.797 737.287 773.455ZM753.061 773.455C751.31 773.982 751.731 778.18 754.365 777.391C756.116 776.864 755.694 772.666 753.061 773.455ZM791.231 773.455C789.48 773.982 789.901 778.18 792.535 777.391C794.286 776.864 793.865 772.666 791.231 773.455ZM674.43 782.01V793.184H677.063V782.01C681.553 782.471 681.645 778.338 677.089 778.694L676.734 774.771H674.443L674.364 778.68L672.415 779.075L672.547 781.958L674.43 782.01ZM744.174 782.01V793.184H746.807V782.01C751.297 782.471 751.389 778.338 746.833 778.694L746.478 774.771H744.187L744.081 778.628C740.474 778.878 740.592 782.063 744.174 782.01ZM279.417 780.233C272.307 773.955 262.945 785.735 270.253 791.868C277.56 798.002 286.053 786.09 279.417 780.233ZM302.656 793.184V782.339C302.656 781.471 300.194 778.917 298.995 778.72C295.928 778.22 294.203 780.602 293.755 780.602C293.373 780.602 292.531 778.97 291.109 778.72C288.949 778.351 286.026 779.641 283.564 778.72V793.184H286.197C286.408 790.263 284.96 781.76 289.186 781.326C289.963 781.247 291.464 781.694 291.464 782.339V793.184C298.416 794.566 291.346 780.734 297.705 781.3C301.063 781.602 299.785 790.842 300.022 793.184H302.656ZM317.784 786.604C318.943 775.89 303.591 775.719 304.591 786.933C305.236 794.145 313.729 795.435 317.771 790.21C316.586 786.419 314.703 789.999 313.373 790.421C310.2 791.408 307.567 789.934 307.251 786.604H317.784ZM330.082 780.233C327.396 777.206 319.483 778.772 319.878 782.813C320.378 788.117 327.725 786.459 328.318 788.262C329.16 790.802 325.289 790.96 323.525 790.421C323.051 790.276 318.68 786.34 319.865 790.776C321.05 795.211 334.401 794.066 330.635 786.591C329.226 784.261 322.827 785.222 322.577 782.997C323.525 778.075 329.358 784.814 330.964 782.642C331.241 782.274 330.503 780.681 330.095 780.22L330.082 780.233ZM351.807 778.852C345.856 780.207 345.724 791.144 351.307 792.882C363.538 796.672 364.302 775.996 351.807 778.852ZM371.741 778.72C368.581 777.943 366.685 780.878 364.157 778.707L362.827 779.365L363.13 792.908L365.803 793.198C366.04 787.999 363.92 780.207 371.728 781.352V778.733L371.741 778.72ZM382.933 793.184V779.707C382.933 779.009 381.063 778.457 380.3 778.72V793.184H382.933ZM386.883 778.72V793.184H389.516C389.674 789.736 388.081 780.497 393.756 781.326C394.467 781.431 396.1 782.537 396.1 782.984V793.171H398.733V781.668C398.733 779.654 391.478 777.127 389.832 780.023L389.095 778.707H386.883V778.72ZM421.748 778.72H419.115V793.184H421.748V778.72ZM430.32 788.578C429.359 786.63 428.45 780.694 427.357 779.365C426.752 778.641 424.698 778.43 424.395 778.72C423.868 779.207 428.266 790.829 428.924 792.263C429.714 793.987 431.268 793.474 432.229 792.145C432.65 791.566 437.417 779.194 436.89 778.733L433.927 779.378L430.32 788.591V788.578ZM442.157 778.72C441.393 778.457 439.523 779.009 439.523 779.707V793.184H442.157V778.72ZM465.185 778.72H462.552V790.223C462.552 792.329 469.859 795.001 471.439 791.868L472.177 793.184H474.389V778.707C470.267 778.167 472.071 783.853 471.689 786.867C470.886 793.145 465.172 790.091 465.172 788.907V778.72H465.185ZM490.189 778.72C488.938 778.246 487.884 779.76 487.213 779.786C486.634 779.812 485.277 778.773 483.921 778.667C472.124 777.785 475.732 798.765 487.226 791.868L487.963 793.184H490.175V778.72H490.189ZM509.056 780.233C506.37 777.206 498.457 778.772 498.852 782.813C499.353 788.117 506.7 786.459 507.292 788.262C508.135 790.802 504.264 790.96 502.499 790.421C502.025 790.276 497.654 786.34 498.839 790.776C500.024 795.211 513.375 794.066 509.609 786.591C508.201 784.261 501.802 785.222 501.551 782.997C502.499 778.075 508.332 784.814 509.939 782.642C510.215 782.274 509.478 780.681 509.07 780.22L509.056 780.233ZM531.637 778.72C530.386 778.246 529.333 779.76 528.662 779.786C528.082 779.812 526.726 778.773 525.37 778.667C513.573 777.785 517.18 798.765 528.675 791.868L529.412 793.184H531.624V778.72H531.637ZM534.929 778.72V793.184H537.562C537.72 789.736 536.127 780.497 541.802 781.326C542.513 781.431 544.146 782.537 544.146 782.984V793.171H546.779V781.668C546.779 779.654 539.524 777.127 537.878 780.023L537.141 778.707H534.929V778.72ZM584.08 778.865C577.958 780.273 577.984 791.697 584.08 793.053C586.661 793.632 590.071 792.579 592.862 792.921L593.165 779.365L591.835 778.707C589.189 780.668 587.859 777.996 584.067 778.865H584.08ZM615.206 793.184V782.339C615.206 781.471 612.744 778.917 611.546 778.72C608.478 778.22 606.753 780.602 606.305 780.602C605.924 780.602 605.081 778.97 603.659 778.72C601.5 778.351 598.577 779.641 596.114 778.72V793.184H598.748C598.958 790.263 597.51 781.76 601.737 781.326C602.513 781.247 604.014 781.694 604.014 782.339V793.184C610.966 794.566 603.896 780.734 610.255 781.3C613.613 781.602 612.336 790.842 612.573 793.184H615.206ZM621.789 793.184V779.707C621.789 779.009 619.92 778.457 619.156 778.72V793.184H621.789ZM632.31 793.184L635.601 792.197V779.707C635.601 778.47 632.31 778.47 632.31 779.707V793.184ZM652.046 786.604C653.021 779.273 642.856 775.311 639.275 782.05C634.68 790.657 646.727 798.133 652.046 789.552C649.65 787.393 649.097 789.96 647.636 790.421C644.686 791.355 641 790.197 641.513 786.604H652.046ZM665.213 782.655C663.659 776.272 651.309 777.812 654.377 784.629C655.536 787.196 659.341 786.551 661.224 787.643C665.845 790.342 656.892 792.382 655.601 788.552L653.376 790.21C658.248 798.199 671.257 788.894 662.303 785.248C660.789 784.629 655.601 784.827 656.668 782.339C658.195 778.786 663.607 784.577 665.213 782.655ZM681.658 778.72V793.184H684.292C684.423 787.709 682.751 780.997 690.23 781.023V778.733C688.057 777.706 685.714 780.036 684.634 780.076C684.45 780.076 684.002 777.772 681.671 778.733L681.658 778.72ZM695.286 778.865C689.163 780.273 689.19 791.697 695.286 793.053C697.866 793.632 701.277 792.579 704.068 792.921L704.371 779.365L703.041 778.707C700.394 780.668 699.065 777.996 695.273 778.865H695.286ZM707.32 778.72V793.184H709.953C710.085 790.012 708.676 780.51 714.193 781.326C714.904 781.431 716.537 782.537 716.537 782.984V793.171L718.762 793.092C720.803 792.408 719.842 783.419 718.788 781.392C717.09 778.128 712.942 777.772 710.269 780.023L709.532 778.707H707.32V778.72ZM732.969 782.642C733.219 777.312 722.738 777.206 722.396 782.326C722.08 787.183 726.109 786.709 729.717 787.564L730.349 790.552C727.597 790.46 725.266 791.513 724.015 788.538C720.065 788.854 722.277 792.408 724.911 793C732.771 794.79 736.432 787.657 730.73 785.235C729.229 784.603 724.015 784.84 725.095 782.326C725.911 780.444 730.296 780.971 730.757 783.353L732.969 782.629V782.642ZM739.565 793.184V779.707C739.565 779.009 737.696 778.457 736.932 778.72V793.184H739.565ZM752.074 793.184L755.365 792.197V779.707C755.365 778.47 752.074 778.47 752.074 779.707V793.184ZM763.055 778.852C754.865 780.747 757.406 796.198 767.887 792.882C774.009 790.947 773.469 776.443 763.055 778.852ZM786.281 793.184V782.339C786.281 781.26 783.753 779.141 782.515 778.865C778.934 778.049 777.999 780.747 775.405 778.707L774.075 779.365L773.851 792.118L777.051 793.198V783.669C777.051 780.878 783.634 780.418 783.634 783.669V793.198H786.267L786.281 793.184ZM790.231 793.184L793.522 792.197V779.707C793.522 778.47 790.231 778.47 790.231 779.707V793.184ZM809.309 793.184V782.997C809.309 777.377 801.133 779.352 797.88 778.773L796.814 779.707V793.184L799.039 793.105L800.013 792.105C800.29 787.459 798.539 778.141 806.031 782.339V792.197L809.322 793.184H809.309ZM825.109 778.72C823.858 778.246 822.805 779.76 822.133 779.786C821.554 779.812 820.198 778.773 818.842 778.667C807.018 777.772 810.613 798.87 822.463 791.868C822.779 797.343 817.012 795.553 813.259 795.817V798.436C816.84 798.212 820.264 799.41 823.16 796.83C823.595 796.435 825.109 794.487 825.109 794.172V778.72ZM851.429 778.72C848.269 777.943 846.373 780.878 843.845 778.707L842.515 779.365L842.818 792.908L845.491 793.198C845.728 787.999 843.608 780.207 851.416 781.352V778.733L851.429 778.72ZM855.84 778.852C849.889 780.207 849.757 791.144 855.34 792.882C867.572 796.672 868.335 775.996 855.84 778.852ZM886.295 793.184V782.997C886.295 781.694 884.188 779.023 882.647 778.733C878.974 778.035 877.868 780.589 877.42 780.589C877.17 780.589 875.616 778.904 874.063 778.72C872.088 778.47 869.481 779.549 867.216 778.72V793.184H869.849V783.655C869.849 780.615 875.116 781.076 875.116 782.997V793.184H877.749C877.815 790.368 876.709 780.892 881.357 781.3C881.936 781.352 883.016 781.931 883.016 782.339V792.197L886.308 793.184H886.295ZM248.04 805.017V826.72H250.674C250.805 823.548 249.397 814.045 254.913 814.861C255.624 814.967 257.257 816.072 257.257 816.52V826.707L259.482 826.628C261.457 825.97 260.588 817.362 259.719 815.375C258.021 811.518 253.9 811.4 250.687 813.559V805.004H248.054L248.04 805.017ZM317.784 805.017H315.151V826.72H317.784V805.017ZM749.44 806.004V826.72L751.665 826.641L752.64 825.641C752.916 820.995 751.165 811.676 758.657 815.875V825.733L761.949 826.72V816.533C761.949 812.545 755.813 811.282 752.745 812.914C752.06 812.111 754.588 801.976 749.453 806.017L749.44 806.004ZM865.241 807.32V825.733C868.046 827.826 875.985 826.931 878.052 824.075C879.724 821.758 879.751 816.757 876.433 816.164C882.279 807.912 871.535 804.253 865.241 807.32ZM426.712 806.991C425.093 807.452 425.158 811.571 427.897 810.834C430.978 810.005 429.016 806.333 426.712 806.991ZM709.69 807.057C707.86 807.649 708.202 811.532 710.822 810.847C713.443 810.163 713.061 805.964 709.69 807.057ZM810.415 807.096C807.334 807.925 809.296 811.597 811.6 810.939C813.22 810.479 813.154 806.359 810.415 807.096ZM448.727 815.546V826.72H451.36V815.546C455.85 816.007 455.942 811.874 451.386 812.229L451.031 808.307H448.74L448.661 812.216L446.712 812.611L446.844 815.493L448.727 815.546ZM601.381 815.546V826.72L604.673 825.733V815.546H607.306V812.256H604.66L604.291 808.307H601.381L601.315 812.229L599.367 812.624L599.498 815.506L601.381 815.559V815.546ZM700.75 815.546V826.72L704.042 825.733V815.546L706.688 815.164V812.256H704.042V808.307H700.75V812.256C697.261 811.282 694.509 814.335 691.862 812.242L690.862 812.558C690.006 813.19 689.927 823.469 690.23 825.075C690.533 826.681 691.072 826.72 692.534 826.733C694.101 826.746 693.429 826.312 693.521 825.101C693.982 819.271 691.836 812.966 700.763 815.533L700.75 815.546ZM266.935 812.4C261.418 813.651 261.036 824.114 265.973 826.233C273.399 829.405 279.338 820.916 274.716 814.861C272.82 812.387 269.95 811.716 266.935 812.4ZM297.389 826.72V815.875C297.389 815.006 294.927 812.453 293.729 812.256C290.661 811.755 288.936 814.138 288.488 814.138C288.107 814.138 287.264 812.506 285.842 812.256C283.683 811.887 280.76 813.177 278.297 812.256V826.72H280.931C281.141 823.798 279.693 815.296 283.92 814.861C284.696 814.783 286.197 815.23 286.197 815.875V826.72C293.149 828.102 286.079 814.269 292.438 814.835C295.796 815.138 294.519 824.377 294.756 826.72H297.389ZM312.531 820.152C313.689 809.439 298.337 809.268 299.338 820.481C299.983 827.694 308.475 828.984 312.518 823.759C311.333 819.968 309.45 823.548 308.12 823.969C304.947 824.956 302.313 823.482 301.997 820.152H312.531ZM333.584 820.152C334.559 812.821 324.394 808.86 320.813 815.599C316.217 824.206 328.265 831.682 333.584 823.101C331.188 820.942 330.635 823.509 329.173 823.969C326.224 824.904 322.537 823.746 323.051 820.152H333.584ZM346.738 816.191C345.184 809.807 332.834 811.347 335.902 818.165C337.06 820.732 340.865 820.087 342.748 821.179C347.37 823.877 338.416 825.917 337.126 822.087L334.901 823.746C339.773 831.735 352.781 822.429 343.828 818.784C342.314 818.165 337.126 818.362 338.193 815.875C339.72 812.321 345.131 818.112 346.738 816.191ZM359.904 816.191C358.351 809.807 346 811.347 349.068 818.165C350.227 820.732 354.032 820.087 355.915 821.179C360.536 823.877 351.583 825.917 350.293 822.087L348.068 823.746C352.939 831.735 365.948 822.429 356.995 818.784C355.48 818.165 350.293 818.362 351.359 815.875C352.887 812.321 358.298 818.112 359.904 816.191ZM374.375 826.72V816.533C374.375 810.913 366.198 812.887 362.946 812.308L361.879 813.243V826.72L364.105 826.641L365.079 825.641C365.355 820.995 363.604 811.676 371.096 815.875V825.733L374.388 826.72H374.375ZM390.175 820.152C391.149 812.821 380.984 808.86 377.403 815.599C372.808 824.206 384.855 831.682 390.175 823.101C387.778 820.942 387.225 823.509 385.764 823.969C382.814 824.904 379.128 823.746 379.641 820.152H390.175ZM403.328 816.191C401.774 809.807 389.424 811.347 392.492 818.165C393.651 820.732 397.456 820.087 399.339 821.179C403.96 823.877 395.007 825.917 393.716 822.087L391.491 823.746C396.363 831.735 409.372 822.429 400.418 818.784C398.904 818.165 393.716 818.362 394.783 815.875C396.31 812.321 401.722 818.112 403.328 816.191ZM416.482 816.191C414.928 809.807 402.578 811.347 405.645 818.165C406.804 820.732 410.609 820.087 412.492 821.179C417.114 823.877 408.16 825.917 406.87 822.087L404.645 823.746C409.516 831.735 422.525 822.429 413.572 818.784C412.058 818.165 406.87 818.362 407.936 815.875C409.464 812.321 414.875 818.112 416.482 816.191ZM428.99 826.72V813.243C428.99 812.545 427.12 811.992 426.357 812.256V826.72H428.99ZM432.94 812.256V826.72H435.573C435.731 823.272 434.138 814.032 439.813 814.861C440.524 814.967 442.157 816.072 442.157 816.52V826.707H444.79V815.204C444.79 813.19 437.535 810.663 435.889 813.559L435.152 812.242H432.94V812.256ZM459.721 812.4C454.204 813.651 453.822 824.114 458.76 826.233C466.186 829.405 472.124 820.916 467.502 814.861C465.606 812.387 462.736 811.716 459.721 812.4ZM477.68 812.256V831.985H480.314V825.404C494.823 832.485 495.126 806.872 480.616 813.572L479.879 812.256H477.667H477.68ZM505.975 820.152C506.555 809.478 491.992 809.057 492.782 820.508C493.283 827.76 501.933 828.931 505.975 823.759C504.922 820.297 502.657 823.627 501.578 823.969C498.444 824.97 495.758 823.456 495.455 820.152H505.989H505.975ZM517.167 812.256C514.007 811.479 512.111 814.414 509.583 812.242L508.253 812.9L508.556 826.444L511.229 826.733C511.466 821.534 509.346 813.743 517.154 814.888V812.269L517.167 812.256ZM517.825 813.243V826.72C524.777 828.102 517.707 814.269 524.066 814.835C527.424 815.138 526.147 824.377 526.384 826.72H529.017V817.178C529.017 814.138 534.284 814.598 534.284 816.52V826.707H536.917V815.204C536.917 815.059 535.298 812.966 535.14 812.861C531.361 810.584 528.688 814.124 528.016 814.111C527.595 814.111 526.976 812.861 526.371 812.585C524.08 811.518 521.42 813.19 518.905 812.308L517.825 813.229V813.243ZM552.691 826.72V812.256H550.479C549.689 814.625 549.202 812.571 547.055 812.282C534.573 810.558 537.483 832.63 549.741 825.404L550.479 826.72H552.691ZM567.832 826.72V815.875C567.832 814.796 565.304 812.677 564.067 812.4C560.485 811.584 559.551 814.282 556.957 812.242L555.627 812.9L555.403 825.654L558.603 826.733V817.204C558.603 814.414 565.186 813.953 565.186 817.204V826.733H567.819L567.832 826.72ZM583.619 820.152C584.594 812.821 574.429 808.86 570.848 815.599C566.252 824.206 578.3 831.682 583.619 823.101C581.223 820.942 580.67 823.509 579.208 823.969C576.259 824.904 572.572 823.746 573.086 820.152H583.619ZM598.103 826.72V816.533C598.103 810.913 589.926 812.887 586.674 812.308L585.607 813.243V826.72L587.833 826.641L588.807 825.641C589.083 820.995 587.332 811.676 594.824 815.875V825.733L598.116 826.72H598.103ZM626.385 816.191C624.831 809.807 612.481 811.347 615.548 818.165C616.707 820.732 620.512 820.087 622.395 821.179C627.017 823.877 618.063 825.917 616.773 822.087L614.548 823.746C619.419 831.735 632.428 822.429 623.475 818.784C621.961 818.165 616.773 818.362 617.839 815.875C619.367 812.321 624.778 818.112 626.385 816.191ZM631.651 823.101V813.243C631.651 812.545 629.782 811.992 629.018 812.256V823.759C629.018 826.588 636.246 828.141 637.905 825.404L638.643 826.72H640.855V812.242H638.221C638.327 817.165 639.459 827.299 631.638 823.087L631.651 823.101ZM643.501 813.243V831.985H646.793V826.062C654.746 829.616 660.513 821.297 655.904 814.651C652.823 810.229 648.794 813.493 644.568 812.295L643.501 813.229V813.243ZM659.946 812.256V831.985H662.58V826.062C675.259 831.366 677.484 810.939 665.516 812.203C663.225 812.44 663.133 813.861 659.946 812.256ZM679.499 812.4C673.548 813.756 673.416 824.693 678.999 826.43C691.23 830.221 691.994 809.544 679.499 812.4ZM711.928 812.256H709.295V826.72H711.928V812.256ZM720.487 822.113C720.263 820.218 717.472 809.676 714.562 812.256C716.036 815.375 717.472 823.285 719.223 825.68C719.868 826.562 720.355 826.838 721.474 826.773C722.646 826.812 722.277 826.588 722.633 825.904C723.225 824.746 727.584 812.742 727.057 812.256C722.146 811.137 723.844 819.863 720.487 822.113ZM740.882 820.152C742.041 809.439 726.688 809.268 727.689 820.481C728.334 827.694 736.827 828.984 740.869 823.759C739.684 819.968 737.801 823.548 736.471 823.969C733.298 824.956 730.665 823.482 730.349 820.152H740.882ZM775.55 813.769C768.44 807.491 759.078 819.271 766.386 825.404C773.693 831.537 782.186 819.626 775.55 813.769ZM782.989 823.101V813.243C782.989 812.545 781.119 811.992 780.356 812.256V823.759C780.356 826.588 787.584 828.141 789.243 825.404L789.98 826.72H792.192V812.242H789.559C789.664 817.165 790.797 827.299 782.976 823.087L782.989 823.101ZM806.017 816.191C805.32 811.268 795.813 810.61 794.944 815.362C794.023 820.416 799.46 819.955 802.265 820.929C805.069 821.903 802.989 824.864 799.131 824.075C797.657 823.772 795.273 820.258 794.194 823.732C797.064 829.208 809.283 826.878 805.412 820.416C803.805 817.744 800.79 818.718 798.802 817.81C795.761 816.428 798.407 813.677 802.067 815.217C803.331 815.743 803.384 817.612 806.031 816.178L806.017 816.191ZM811.942 812.256C811.179 811.992 809.309 812.545 809.309 813.243V826.72H811.942V812.256ZM828.401 826.72V816.533C828.401 810.913 820.224 812.887 816.972 812.308L815.906 813.243V826.72L818.131 826.641L819.105 825.641C819.382 820.995 817.63 811.676 825.122 815.875V825.733L828.414 826.72H828.401ZM844.188 827.707C845.07 823.614 843.542 816.691 844.188 812.256H841.976C841.186 814.625 840.698 812.571 838.552 812.282C826.057 810.558 828.914 832.735 841.554 825.417C841.001 830.682 836.248 829.273 832.351 829.366V831.985C836.09 832.314 843.174 832.458 844.201 827.707H844.188ZM886.308 822.113C885.61 820.416 882.7 809.571 879.724 812.256C881.278 819.073 887.664 825.114 883.016 831.971L885.9 832.024L892.878 812.256L890.587 812.927L886.308 822.113ZM850.047 826.667C851.416 825.693 850.192 822.127 847.822 822.785C845.267 823.495 847.545 828.457 850.047 826.667ZM327.001 860.256V839.539C327.001 838.842 325.105 838.276 324.368 838.552V847.094C317.165 842.698 310.845 849.016 313.9 856.557C316.402 862.743 322.156 858.887 326.988 860.242L327.001 860.256ZM432.282 849.081C432.584 849.555 432.282 858.571 432.282 860.256H434.915V849.081C439.576 849.318 439.378 845.87 434.875 845.423C433.927 840.355 437.509 841.632 438.207 840.197C439.51 837.499 433.927 838.118 432.769 840.684C431.966 842.474 432.624 843.935 432.295 845.33C432.124 846.081 430.53 846.107 430.32 846.791C429.622 848.95 432.163 848.897 432.282 849.081ZM585.594 859.268V839.539C585.594 839 583.962 838.223 583.303 838.565L582.408 839.645L582.289 847.094C575.311 842.54 569.36 849.595 572.27 856.794C574.324 861.888 579.972 859.453 583.948 860.256C584.541 860.308 585.449 859.742 585.594 859.268ZM697.458 860.256V839.539C697.458 838.842 695.589 838.289 694.825 838.552V860.256H697.458ZM748.124 860.256V839.539C748.124 838.842 746.228 838.276 745.49 838.552V847.094C738.288 842.698 731.968 849.016 735.023 856.557C737.524 862.743 743.278 858.887 748.11 860.242L748.124 860.256ZM847.479 859.268V839.539C847.479 839 845.847 838.223 845.188 838.565L844.293 839.645L844.174 847.094C837.196 842.54 831.245 849.595 834.155 856.794C836.209 861.888 841.857 859.453 845.833 860.256C846.426 860.308 847.334 859.742 847.479 859.268ZM307.659 840.592C305.829 841.185 306.171 845.067 308.791 844.383C311.412 843.698 311.03 839.5 307.659 840.592ZM331.346 840.592C329.516 841.185 329.858 845.067 332.478 844.383C335.098 843.698 334.717 839.5 331.346 840.592ZM481.314 840.54C479.563 841.066 479.984 845.265 482.618 844.475C484.369 843.948 483.948 839.75 481.314 840.54ZM702.501 840.632C699.42 841.461 701.382 845.133 703.686 844.475C705.306 844.014 705.24 839.895 702.501 840.632ZM851.758 840.54C850.007 841.066 850.429 845.265 853.062 844.475C854.813 843.948 854.392 839.75 851.758 840.54ZM488.214 849.081V860.256H490.847V849.081H493.48V845.791H490.834L490.505 841.843H488.214L488.108 845.699C484.501 845.949 484.619 849.134 488.2 849.081H488.214ZM253.307 845.791V865.52H255.94V858.939C270.924 866.297 270.727 840.132 256.243 847.107L255.506 845.791H253.294H253.307ZM269.094 846.778V860.256L272.293 859.176C272.754 853.964 270.463 848.331 277.652 848.094V845.791C274.387 845.528 273.215 847.634 270.095 845.791L269.094 846.778ZM282.721 845.936C274.532 847.831 277.073 863.283 287.554 859.966C293.676 858.031 293.136 843.527 282.721 845.936ZM298.061 855.649C297.099 853.701 296.191 847.765 295.098 846.436C294.492 845.712 292.438 845.502 292.136 845.791C291.609 846.278 296.007 857.9 296.665 859.334C297.455 861.058 299.009 860.545 299.97 859.216C300.391 858.637 305.157 846.265 304.631 845.804L301.668 846.449L298.061 855.662V855.649ZM309.897 845.791H307.264V860.256H309.897V845.791ZM333.584 845.791H330.951V860.256H333.584V845.791ZM337.534 845.791V860.256H340.168C340.299 857.084 338.89 847.581 344.407 848.397C345.118 848.502 346.751 849.608 346.751 850.055V860.242L348.976 860.163C351.017 859.479 350.056 850.49 349.002 848.463C347.304 845.199 343.156 844.843 340.484 847.094L339.746 845.778H337.534V845.791ZM365.829 860.585C366.448 857.492 365.829 850.424 365.829 846.778C365.829 845.844 363.051 844.975 362.88 847.107C349.002 839.961 347.712 864.796 362.538 859.598L361.221 862.546L353.624 863.493L353.334 865.494C357.929 865.665 364.644 866.455 365.829 860.571V860.585ZM375.033 845.791V860.256H377.666C377.798 857.084 376.389 847.581 381.906 848.397C382.617 848.502 384.25 849.608 384.25 850.055V860.242L386.475 860.163C388.516 859.479 387.554 850.49 386.501 848.463C384.803 845.199 380.655 844.843 377.982 847.094L377.245 845.778H375.033V845.791ZM403.328 853.688C402.933 840.316 384.487 845.607 390.82 857.347C393.216 861.782 400.063 861.164 402.67 857.294L401.669 855.662C398.18 858.058 392.847 859.545 392.795 853.688H403.328ZM408.595 855.004C408.134 853.122 407.357 847.726 406.291 846.449C405.685 845.725 403.631 845.515 403.328 845.804C402.788 846.318 407.278 859.558 407.897 859.966C408.424 860.321 410.214 860.493 410.53 860.242C410.952 859.887 411.847 852.24 413.848 851.727C414.625 854.307 414.954 860.256 418.141 860.308C419.563 860.335 418.891 860.111 419.207 859.361C419.879 857.755 423.578 846.331 423.078 845.817C418.47 845.541 420.01 852.951 417.166 855.017C416.982 853.096 415.626 844.936 412.9 845.817C411.241 846.357 410.833 854.109 408.621 855.004H408.595ZM442.157 845.791H439.523V856.636C439.523 859.624 446.409 862.085 448.411 858.939C448.371 861.032 452.018 860.348 452.018 859.268V846.778C452.018 846.239 450.386 845.462 449.727 845.804C447.384 846.541 450.175 855.689 447.423 857.307C445.725 858.439 442.143 857.307 442.143 855.333V845.804L442.157 845.791ZM454.652 845.791V860.256H457.285C457.522 855.044 455.415 847.265 463.21 848.41V845.791C461.038 844.764 458.694 847.094 457.614 847.134C457.43 847.134 456.982 844.83 454.652 845.791ZM476.364 860.256V849.411C476.364 848.331 473.836 846.212 472.598 845.936C469.017 845.12 468.082 847.818 465.488 845.778L464.158 846.436L463.934 859.19L467.134 860.269V850.74C467.134 847.95 473.717 847.489 473.717 850.74V860.269H476.35L476.364 860.256ZM480.314 860.256L483.605 859.268V846.778C483.605 845.541 480.314 845.541 480.314 846.778V860.256ZM498.075 845.791H495.442V857.294C495.442 859.4 502.75 862.072 504.33 858.939L505.067 860.256H507.279V845.778C503.158 845.238 504.962 850.924 504.58 853.938C503.777 860.216 498.062 857.163 498.062 855.978V845.791H498.075ZM519.142 845.791C515.982 845.015 514.086 847.95 511.558 845.778L510.228 846.436L510.531 859.979L513.204 860.269C513.441 855.07 511.321 847.278 519.129 848.423V845.804L519.142 845.791ZM532.296 853.688C533.454 842.975 518.102 842.803 519.103 854.017C519.748 861.23 528.24 862.519 532.282 857.294C531.097 853.504 529.215 857.084 527.885 857.505C524.712 858.492 522.078 857.018 521.762 853.688H532.296ZM554.007 845.791C552.757 845.317 551.703 846.831 551.032 846.857C550.452 846.884 549.096 845.844 547.74 845.738C535.943 844.857 539.55 865.836 551.045 858.939L551.782 860.256H553.994V845.791H554.007ZM569.149 860.256V849.411C569.149 848.331 566.621 846.212 565.383 845.936C561.802 845.12 560.867 847.818 558.273 845.778L556.944 846.436L556.72 859.19L559.919 860.269V850.74C559.919 847.95 566.503 847.489 566.503 850.74V860.269H569.136L569.149 860.256ZM594.811 845.791V865.52H597.444V858.939C611.954 866.02 612.257 840.408 597.747 847.107L597.01 845.791H594.798H594.811ZM623.106 853.688C623.685 843.014 609.123 842.593 609.913 854.043C610.413 861.295 619.064 862.467 623.106 857.294C622.053 853.833 619.788 857.163 618.708 857.505C615.575 858.505 612.889 856.992 612.586 853.688H623.119H623.106ZM634.285 845.791C631.125 845.015 629.229 847.95 626.701 845.778L625.371 846.436L625.674 859.979L628.346 860.269C628.583 855.07 626.464 847.278 634.271 848.423V845.804L634.285 845.791ZM646.135 849.726C644.581 843.343 632.231 844.883 635.298 851.701C636.457 854.267 640.262 853.622 642.145 854.715C646.767 857.413 637.813 859.453 636.523 855.623L634.298 857.281C639.169 865.27 652.178 855.965 643.225 852.319C641.711 851.701 636.523 851.898 637.589 849.411C639.117 845.857 644.528 851.648 646.135 849.726ZM659.091 847.318C651.981 841.04 642.619 852.819 649.927 858.953C657.234 865.086 665.727 853.175 659.091 847.318ZM675.733 860.256V850.069C675.733 844.449 667.557 846.423 664.305 845.844L663.238 846.778V860.256L665.463 860.177L666.438 859.176C666.714 854.53 664.963 845.212 672.455 849.411V859.268L675.746 860.256H675.733ZM691.533 860.256V845.791H689.321C688.531 848.16 688.044 846.107 685.898 845.817C673.416 844.093 676.326 866.165 688.584 858.939L689.321 860.256H691.533ZM704.028 845.791C703.265 845.528 701.395 846.081 701.395 846.778V860.256H704.028V845.791ZM717.853 845.791H708.308C707.649 845.791 706.609 847.844 707.965 848.766L713.903 849.397C711.81 852.938 707.149 855.899 707.333 860.256H717.867V857.623L711.283 857.281C711.336 855.241 719.407 849.305 717.867 845.778L717.853 845.791ZM732.982 853.688C732.587 840.316 714.14 845.607 720.474 857.347C722.87 861.782 729.717 861.164 732.324 857.294L731.323 855.662C727.834 858.058 722.501 859.545 722.449 853.688H732.982ZM776.419 860.585C777.038 857.492 776.419 850.424 776.419 846.778C776.419 845.844 773.641 844.975 773.469 847.107C759.592 839.961 758.301 864.796 773.127 859.598L771.81 862.546L764.213 863.493L763.924 865.494C768.519 865.665 775.234 866.455 776.419 860.571V860.585ZM779.039 846.778V860.256L782.238 859.176C782.699 853.964 780.408 848.331 787.597 848.094V845.791C784.332 845.528 783.16 847.634 780.04 845.791L779.039 846.778ZM792.666 845.936C784.477 847.831 787.018 863.283 797.499 859.966C803.621 858.031 803.081 843.527 792.666 845.936ZM806.676 856.649V846.791C806.676 846.094 804.806 845.541 804.042 845.804V857.307C804.042 860.137 811.271 861.69 812.93 858.953L813.667 860.269H815.879V845.791H813.246C813.351 850.714 814.484 860.848 806.663 856.636L806.676 856.649ZM831.021 860.256V849.411C831.021 848.331 828.493 846.212 827.255 845.936C823.674 845.12 822.739 847.818 820.145 845.778L818.815 846.436L818.592 859.19L821.791 860.269V850.74C821.791 847.95 828.374 847.489 828.374 850.74V860.269H831.008L831.021 860.256ZM850.771 860.256L854.063 859.268V846.778C854.063 845.541 850.771 845.541 850.771 846.778V860.256ZM869.849 860.256V849.411C869.849 848.331 867.321 846.212 866.084 845.936C862.502 845.12 861.568 847.818 858.974 845.778L857.644 846.436L857.42 859.19L860.62 860.269V850.74C860.62 847.95 867.203 847.489 867.203 850.74V860.269H869.836L869.849 860.256ZM873.799 865.52C881.647 865.783 885.584 866.126 886.334 857.321C886.492 855.465 886.782 846.146 885.307 845.791C884.083 845.488 883.227 846.87 882.7 846.87C882.292 846.87 881.528 845.923 880.699 845.817C867.94 844.264 870.35 864.783 883.016 859.598C884.017 864.586 874.405 862.256 873.799 862.888V865.507V865.52ZM750.757 863.546C752.1 864.981 756.563 857.479 752.982 856.373C749.006 855.149 751.823 860.295 751.823 860.585C751.823 861.164 750.243 862.322 750.744 863.533L750.757 863.546ZM518.484 882.617C519.01 883.42 518.089 891.949 518.484 893.791L521.775 892.804V882.617H524.409V879.327H521.762V874.72H524.409V872.101C518.655 871.456 519.537 875.312 518.444 878.84C518.26 879.432 517.272 879.09 517.114 880.301C516.706 883.394 518.392 882.485 518.484 882.617ZM629.676 872.101H626.385V879.998C619.209 876.076 613.007 882.828 615.93 890.132C618.853 897.437 624.475 892.896 629.676 893.818V872.114V872.101ZM702.712 879.985C693.429 874.51 687.662 889.54 695.957 893.633C699.157 895.213 699.578 893.752 701.961 893.475C703.252 893.331 705.45 894.489 706.372 893.159L706.57 873.154C706.069 871.64 703.989 872.101 702.712 872.075V879.972V879.985ZM789.572 879.985C780.29 874.51 774.523 889.54 782.818 893.633C786.017 895.213 786.439 893.752 788.822 893.475C790.112 893.331 792.311 894.489 793.233 893.159L793.43 873.154C792.93 871.64 790.849 872.101 789.572 872.075V879.972V879.985ZM919.856 872.101H916.565V879.998C909.586 876.168 903.306 882.867 906.216 890.014C908.954 896.726 914.695 893.002 919.856 893.804V872.101ZM264.933 874.167C261.852 874.997 263.814 878.669 266.118 878.011C267.738 877.55 267.672 873.43 264.933 874.167ZM454.349 874.075C452.729 874.536 452.795 878.655 455.534 877.918C458.615 877.089 456.653 873.417 454.349 874.075ZM597.352 874.154C594.916 872.641 591.783 876.063 594.113 877.721C596.654 879.537 599.261 875.352 597.352 874.154ZM796.156 874.075L796.761 877.734L799.803 877.392V874.668L796.142 874.062L796.156 874.075ZM834.971 874.075L835.577 877.734L838.618 877.392V874.668L834.958 874.062L834.971 874.075ZM363.196 882.617V893.791H365.829V882.617H368.463V879.327H365.816L365.487 875.378H363.196L363.091 879.235C359.483 879.485 359.602 882.67 363.183 882.617H363.196ZM489.53 882.617V893.791H492.164V882.617H494.797V879.327H492.15L491.821 875.378H489.53L489.425 879.235C485.817 879.485 485.936 882.67 489.517 882.617H489.53ZM554.666 882.617V893.791L557.957 892.804V882.617H560.591V879.327H557.944L557.576 875.378H554.666L554.6 879.3L552.651 879.695L552.783 882.578L554.666 882.63V882.617ZM842.871 882.617V893.791H846.163V882.617L849.441 881.959C849.481 885.394 853.101 889.869 853.391 892.883C853.602 895.002 852.167 896.147 852.048 898.069C851.93 899.99 854.339 899.161 855.05 898.424C855.761 897.687 862.7 880.024 861.936 879.34L858.724 879.419L856.011 887.882C854.51 888.158 854.971 887.79 854.55 887.039C852.074 882.564 853.668 877.918 846.149 879.34V875.391H842.858V879.34H840.224V882.63H842.858L842.871 882.617ZM613.231 893.804V882.301C613.231 882.117 611.032 880.011 610.545 879.735C607.109 877.76 604.502 880.432 600.723 879.353V893.818H604.014C604.133 890.975 602.777 881.472 607.596 881.946C608.307 882.012 609.939 883.209 609.939 883.617V893.804H613.231ZM644.818 887.882C646.477 876.168 629.913 875.72 630.967 887.553C631.48 893.225 637.208 896.016 642.132 893.423C644.818 892.001 645.687 888.434 642.501 888.698C641.447 888.79 637.01 895.199 634.285 887.882H644.818ZM646.793 879.327V899.056H650.085V893.133C659.657 898.661 665.661 883.841 656.839 879.471C653.324 877.734 650.572 880.432 646.793 879.314V879.327ZM675.733 887.882C676.642 881.485 670.901 876.286 664.989 880.103C657.761 884.762 663.159 898.345 672.902 893.278C675.865 891.738 676.615 888.448 673.416 888.711C672.033 888.829 667.781 895.042 665.2 887.882H675.733ZM690.217 893.804V882.959C690.217 882.683 688.702 880.63 688.281 880.287C684.515 877.142 681.908 880.472 677.708 879.34V893.804H681V884.275C681 882.328 686.925 880.617 686.925 884.275V893.804H690.217ZM721.803 887.882C722.712 881.485 716.971 876.286 711.059 880.103C703.831 884.762 709.229 898.345 718.973 893.278C721.935 891.738 722.686 888.448 719.486 888.711C718.104 888.829 713.851 895.042 711.27 887.882H721.803ZM736.274 893.804V882.959C736.274 882.683 734.759 880.63 734.338 880.287C730.572 877.142 727.965 880.472 723.765 879.34V893.804H727.057V884.275C727.057 882.328 732.982 880.617 732.982 884.275V893.804H736.274ZM742.357 890.356C739.987 887.974 741.409 881.709 745.069 882.091C746.952 882.288 748.334 885.907 750.744 882.288C745.793 875.299 736.655 879.761 737.854 887.895C738.815 894.476 746.675 896.713 750.704 891.396L749.032 889.224C748.308 889.093 745.095 893.107 742.357 890.343V890.356ZM755.352 887.882H764.898C767.465 887.882 764.542 878.405 758.367 878.708C749.203 879.156 749.111 894.436 758.973 894.462C762.093 894.462 768.124 890.396 763.015 888.579C760.671 891.817 755.866 892.594 755.365 887.868L755.352 887.882ZM816.551 879.327C812.759 880.432 810.033 877.747 806.505 879.485C797.709 883.815 804.042 898.556 813.259 893.133C812.403 897.766 807.466 896.226 804.056 896.423V899.043C807.084 898.845 812.759 899.846 815.063 897.555C815.221 897.398 816.564 894.936 816.564 894.778V879.327H816.551ZM831.679 893.804V882.301C831.679 882.117 829.48 880.011 828.993 879.735C825.557 877.76 822.95 880.432 819.171 879.353V893.818H822.463C822.581 890.975 821.225 881.472 826.044 881.946C826.755 882.012 828.388 883.209 828.388 883.617V893.804H831.679ZM880.212 878.787C873.747 879.814 872.154 889.632 877.407 893.146C881.094 895.608 884.201 893.041 888.309 893.528L888.638 879.958C887.717 878.642 885.518 879.787 884.227 879.643C882.937 879.498 882.108 878.484 880.212 878.787ZM903.411 893.804V882.301C903.411 881.88 902.187 880.445 901.686 880.077C898.079 877.51 894.866 880.393 890.903 879.34V893.804H894.195C894.366 890.711 892.825 881.827 897.829 881.985C898.566 882.012 900.12 883.249 900.12 883.617V893.804H903.411ZM232.912 887.224C232.517 873.851 214.07 879.142 220.404 890.883C222.8 895.318 229.647 894.699 232.254 890.83L231.253 889.198C227.764 891.593 222.431 893.08 222.379 887.224H232.912ZM234.887 879.327V893.791H237.52C237.678 890.343 236.085 881.103 241.76 881.933C242.471 882.038 244.104 883.144 244.104 883.591V893.778H246.737V882.275C246.737 880.261 239.482 877.734 237.836 880.63L237.099 879.314H234.887V879.327ZM254.624 889.198C254.4 887.303 251.609 876.76 248.699 879.34C250.173 882.459 251.609 890.369 253.36 892.765C254.005 893.646 254.492 893.923 255.611 893.857C256.783 893.897 256.414 893.673 256.77 892.988C257.362 891.83 261.721 879.827 261.194 879.34C256.283 878.221 257.981 886.947 254.624 889.198ZM266.461 879.327C265.697 879.063 263.827 879.616 263.827 880.314V893.791H266.461V879.327ZM270.411 880.314V893.791L273.61 892.712C274.071 887.5 271.78 881.867 278.969 881.63V879.327C275.704 879.063 274.532 881.169 271.411 879.327L270.411 880.314ZM284.038 879.471C275.848 881.367 278.39 896.818 288.87 893.502C294.993 891.567 294.453 877.063 284.038 879.471ZM307.264 893.804V882.959C307.264 881.88 304.736 879.761 303.498 879.485C299.917 878.669 298.982 881.367 296.388 879.327L295.059 879.985L294.835 892.738L298.034 893.818V884.289C298.034 881.498 304.618 881.038 304.618 884.289V893.818H307.251L307.264 893.804ZM329.634 893.804V883.617C329.634 882.314 327.528 879.643 325.987 879.353C322.314 878.655 321.208 881.209 320.76 881.209C320.51 881.209 318.956 879.524 317.402 879.34C315.427 879.09 312.82 880.169 310.556 879.34V893.804H313.189V884.275C313.189 881.235 318.456 881.696 318.456 883.617V893.804H321.089C321.155 890.988 320.049 881.512 324.697 881.92C325.276 881.972 326.356 882.551 326.356 882.959V892.817L329.647 893.804H329.634ZM344.763 887.224C345.342 876.55 330.78 876.128 331.57 887.579C332.07 894.831 340.721 896.002 344.763 890.83C343.709 887.368 341.445 890.698 340.365 891.04C337.231 892.041 334.545 890.527 334.243 887.224H344.776H344.763ZM359.246 893.804V883.617C359.246 877.997 351.07 879.972 347.817 879.392L346.751 880.327V893.804L348.976 893.725L349.95 892.725C350.227 888.079 348.476 878.761 355.968 882.959V892.817L359.259 893.804H359.246ZM380.958 883.275C380.26 878.353 370.754 877.695 369.885 882.446C368.963 887.5 374.401 887.039 377.205 888.013C380.01 888.987 377.93 891.949 374.072 891.159C372.597 890.856 370.214 887.342 369.134 890.817C372.005 896.292 384.223 893.962 380.352 887.5C378.746 884.828 375.731 885.802 373.743 884.894C370.701 883.512 373.348 880.761 377.008 882.301C378.272 882.828 378.325 884.697 380.971 883.262L380.958 883.275ZM399.391 887.882C398.68 885.381 397.745 876.694 394.138 880.314L398.812 893.712H401.274L404.316 885.249L407.357 893.712H409.819L414.493 880.314C410.873 876.8 410.359 884.657 409.306 886.96C408.95 887.737 409.622 888.145 407.936 887.882C407.41 885.973 406.607 878.419 403.684 879.353C402.472 879.735 401.406 885.539 400.761 886.96C400.405 887.737 401.077 888.145 399.391 887.882ZM428.332 887.224C429.306 879.893 419.141 875.931 415.56 882.67C410.965 891.277 423.012 898.753 428.332 890.172C425.935 888.013 425.382 890.58 423.921 891.04C420.971 891.975 417.285 890.817 417.798 887.224H428.332ZM440.642 879.471C434.52 880.88 434.546 892.304 440.642 893.66C443.223 894.239 446.633 893.186 449.425 893.528L449.727 879.972L448.398 879.314C445.751 881.275 444.421 878.603 440.629 879.471H440.642ZM456.627 893.804V880.327C456.627 879.629 454.757 879.077 453.993 879.34V893.804H456.627ZM479.655 893.804V883.617C479.655 882.314 477.549 879.643 476.008 879.353C472.335 878.655 471.229 881.209 470.781 881.209C470.531 881.209 468.977 879.524 467.423 879.34C465.448 879.09 462.841 880.169 460.577 879.34V893.804H463.21V884.275C463.21 881.235 468.477 881.696 468.477 883.617V893.804H471.11C471.176 890.988 470.07 881.512 474.718 881.92C475.297 881.972 476.377 882.551 476.377 882.959V892.817L479.668 893.804H479.655ZM500.524 879.471C492.335 881.367 494.876 896.818 505.357 893.502C511.479 891.567 510.939 877.063 500.524 879.471ZM536.693 880.853C529.583 874.575 520.222 886.355 527.529 892.488C534.982 898.753 543.329 886.71 536.693 880.853ZM552.032 883.275C550.479 876.892 538.128 878.432 541.196 885.249C542.355 887.816 546.16 887.171 548.043 888.263C552.664 890.962 543.711 893.001 542.421 889.171L540.196 890.83C545.067 898.819 558.076 889.514 549.123 885.868C547.608 885.249 542.421 885.447 543.487 882.959C545.015 879.406 550.426 885.197 552.032 883.275ZM575.061 887.224C574.666 873.851 556.219 879.142 562.553 890.883C564.949 895.318 571.796 894.699 574.403 890.83L573.402 889.198C569.913 891.593 564.58 893.08 564.528 887.224H575.061ZM577.036 879.327V893.791H579.669C579.801 888.316 578.129 881.604 585.607 881.63V879.34C583.435 878.313 581.091 880.643 580.012 880.682C579.827 880.682 579.38 878.379 577.049 879.34L577.036 879.327ZM597.444 879.327H594.153V893.791H597.444V879.327ZM796.156 879.327V893.791L799.408 893.752C800.382 888.921 800.369 884.17 799.408 879.353L796.156 879.314V879.327ZM834.971 879.327V893.791L838.223 893.752C839.197 888.921 839.184 884.17 838.223 879.353L834.971 879.314V879.327ZM382.933 897.082C386.08 896.976 388.674 890.869 385.119 889.948C381.09 888.908 383.986 893.778 384.013 894.147C384.078 895.002 382.551 895.897 382.92 897.082H382.933ZM767.202 897.74C772.166 895.594 773.167 886.947 766.583 890.909C766.017 892.659 767.623 893.449 767.742 894.252C767.847 894.989 766.201 896.266 767.202 897.74ZM862.621 897.74C865.702 897.569 868.388 890.922 865.478 889.948C860.29 888.198 863.042 892.988 863.161 894.239C863.213 894.857 861.541 896.687 862.621 897.74ZM588.228 907.611L588.833 911.27L591.875 910.928V908.203L588.214 907.598L588.228 907.611ZM596.128 916.153V927.327H599.419V916.153L602.698 915.495C602.737 918.93 606.358 923.405 606.648 926.419C606.872 928.682 605.068 930.051 605.331 932.262C607.78 933.815 608.491 931.302 609.281 929.643C610.071 927.985 615.864 913.468 615.206 912.875L611.993 912.954L609.281 921.417C607.78 921.694 608.241 921.325 607.82 920.575C605.344 916.1 606.937 911.454 599.419 912.875V908.927H596.128V912.875H593.494V916.166H596.128V916.153ZM527.503 916.363C527.898 916.692 528.201 918.061 528.675 918.114C529.043 918.153 531.018 916.85 531.018 915.837C531.018 911.823 520.327 910.493 519.748 916.469C519.287 921.194 522.697 920.72 526.015 921.444C529.899 922.286 526.805 926.511 522.881 924.076C522.289 923.707 521.92 922.128 521.446 922.089C520.051 921.957 517.891 924.339 520.472 926.327C529.215 933.065 538.207 918.166 523.079 918.127C522.473 915.179 525.581 914.797 527.503 916.363ZM546.121 921.417C547.78 909.703 531.216 909.256 532.269 921.088C532.783 926.761 538.51 929.551 543.435 926.958C546.121 925.537 546.99 921.97 543.803 922.233C542.75 922.325 538.313 928.735 535.587 921.417H546.121ZM557.299 916.153C557.826 909.045 552.533 914.6 548.082 912.862V927.327H551.374C551.743 924.089 549.794 916.39 554.481 915.613C555.587 915.429 556.522 916.166 557.299 916.153C557.141 918.311 556.233 919.548 556.799 922.246C558.194 928.998 567.714 929.946 570.466 923.734L568.148 922.233C565.318 925.642 561.552 926.011 559.932 921.417H570.466C571.19 917.456 569.215 913.56 565.212 912.507C560.011 911.151 558.023 916.139 557.299 916.153ZM584.936 927.34V915.837C584.936 915.653 582.737 913.547 582.25 913.27C578.813 911.296 576.206 913.968 572.428 912.889V927.353H575.719C575.838 924.51 574.482 915.008 579.301 915.481C580.012 915.547 581.644 916.745 581.644 917.153V927.34H584.936ZM588.228 912.875V927.34L591.48 927.301C592.454 922.47 592.441 917.719 591.48 912.902L588.228 912.862V912.875ZM616.918 923.457C614.39 924.26 616.325 929.051 619.182 927.05C620.802 925.919 619.762 922.549 616.918 923.457ZM449.24 989.989C408.173 996.438 408.674 1053.59 449.793 1059.43L689.216 1059.49C731.139 1054.09 731.586 995.938 689.808 989.884L449.24 989.989ZM514.389 1117.58C503.816 1118.89 503.921 1127.11 504.632 1136.16C505.594 1148.35 513.375 1148.64 524.053 1147.64C535.732 1146.53 535.864 1138.36 534.916 1128.26C533.77 1116.21 524.659 1116.31 514.389 1117.59V1117.58ZM566.516 1133.83V1147.64H571.782V1133.83L576.299 1133.74L577.049 1128.57H571.782L572.757 1123.29L577.062 1122.66L576.957 1118.47C576.22 1116.19 569.834 1118.16 568.346 1119.35C565.62 1121.56 566.7 1125.54 566.529 1128.57H561.921V1133.83H566.529H566.516ZM625.726 1139.42C626.279 1136.07 625.318 1131.45 625.726 1127.92L632.968 1129.24L632.876 1124.72C628.689 1123.87 626.2 1121.87 625.647 1117.48C622.882 1117.39 620.815 1116.44 620.42 1119.67C619.867 1124.29 621.842 1138.83 618.972 1141.56C615.917 1144.44 609.202 1139.37 612.902 1135.17C614.851 1132.96 618.498 1134.82 617.168 1128.58C598.827 1128.49 608.346 1155.68 622.092 1145.02C623.527 1143.91 625.423 1141.18 625.713 1139.44L625.726 1139.42Z" fill="#DDECE2"/>
<path d="M678.918 307.415C585.553 350.294 448.882 288.034 355.364 263.535C339.941 259.004 240.926 264.381 294.806 317.836C335.528 358.236 704.539 374.104 845.444 337.491C986.35 300.878 824.832 240.403 678.918 307.415Z" fill="#F9F0E3"/>
<mask id="mask0_16_2105" style="mask-type:alpha" maskUnits="userSpaceOnUse" x="-439" y="135" width="2000" height="1387">
<path d="M1112.33 174.002C723.528 398.476 112.661 267.533 -144.172 174.002C-612.972 689.203 -417.506 1286.67 -261.172 1521C-96.1723 1434 326.528 1283.4 697.328 1377C1160.83 1494 1208.33 1499.5 1434.67 1377C1661.01 1254.5 1598.33 -106.59 1112.33 174.002Z" fill="#E1C2CF" stroke="black"/>
</mask>
<g mask="url(#mask0_16_2105)">
<path d="M818.555 1104.75C820.434 1086.65 800.115 1082.06 796.501 1094.82L786.805 1134.31L773.078 1164.36C768.312 1177.56 751.31 1210.17 740.527 1206.17C729.743 1202.17 726.113 1198.56 724.429 1191.99C723.358 1184.71 719.859 1166.06 714.439 1149.71C709.018 1133.35 697.402 1142.28 692.272 1148.78C688.734 1159.48 686.89 1187.12 707.814 1212.11C733.968 1243.36 718.146 1255.24 685.717 1271.51C659.774 1284.52 611.204 1246.9 591.359 1234.48C571.515 1222.05 511.752 1240.63 565.141 1278.45C634.52 1327.6 666.638 1317.97 709.915 1310.93C744.232 1305.34 860.971 1263.49 886.547 1242.61C903.218 1222.44 937.31 1176.1 940.309 1152.03C943.307 1127.97 928.074 1139.3 920.083 1147.97C913.168 1167.97 897.051 1208.6 887.906 1211.17C878.76 1213.74 879.113 1206.29 880.433 1202.24C897.087 1182.4 920.921 1136.05 913.263 1112.95C905.604 1089.84 893.843 1100.7 888.506 1109.01C888.001 1128.71 883.646 1176.13 849.532 1184.26C821.511 1190.93 833.011 1183.03 835.121 1179.64C851.002 1167.76 871.172 1129.14 868.971 1107.26C866.77 1085.39 839.303 1072.49 842.923 1102.04C846.543 1131.58 814.325 1174.31 799.092 1178.59C783.859 1182.87 798.14 1171.23 800.115 1164.22C809.673 1146.7 816.586 1123.73 818.555 1104.75Z" fill="#BE9526"/>
<path d="M318.946 1111.32C317.068 1093.22 337.386 1088.63 341 1101.39L350.696 1140.88L364.424 1170.93C369.19 1184.13 386.191 1216.74 396.975 1212.74C407.758 1208.74 411.388 1205.13 413.072 1198.56C414.144 1191.28 417.642 1172.63 423.063 1156.27C428.483 1139.92 440.099 1148.85 445.23 1155.35C448.767 1166.05 450.611 1193.69 429.687 1218.68C403.533 1249.93 419.355 1261.81 451.784 1278.08C477.727 1291.09 526.297 1253.47 546.142 1241.05C565.987 1228.62 625.75 1247.2 572.36 1285.02C502.982 1334.17 470.864 1324.54 427.587 1317.5C393.269 1311.91 276.531 1270.05 250.955 1249.18C234.283 1229.01 200.191 1182.66 197.193 1158.6C194.194 1134.54 209.427 1145.87 217.418 1154.54C224.333 1174.54 240.45 1215.17 249.596 1217.74C258.741 1220.31 258.388 1212.86 257.068 1208.81C240.414 1188.97 216.58 1142.62 224.238 1119.52C231.897 1096.41 243.659 1107.27 248.996 1115.58C249.501 1135.28 253.856 1182.7 287.969 1190.83C315.991 1197.5 304.49 1189.6 302.38 1186.21C286.5 1174.33 266.329 1135.71 268.53 1113.83C270.731 1091.96 298.198 1079.06 294.578 1108.61C290.958 1138.15 323.176 1180.88 338.409 1185.16C353.642 1189.44 339.362 1177.8 337.386 1170.79C327.829 1153.27 320.915 1130.3 318.946 1111.32Z" fill="#BE9526"/>
</g>
</svg>
