<svg width="46" height="46" viewBox="0 0 46 46" fill="none" xmlns="http://www.w3.org/2000/svg">
<g clip-path="url(#clip0_23_2179)">
<path d="M22.9808 3.83301C12.4008 3.83301 3.83325 12.4197 3.83325 22.9997C3.83325 33.5797 12.4008 42.1663 22.9808 42.1663C33.5799 42.1663 42.1666 33.5797 42.1666 22.9997C42.1666 12.4197 33.5799 3.83301 22.9808 3.83301ZM22.9999 38.333C14.5283 38.333 7.66659 31.4713 7.66659 22.9997C7.66659 14.528 14.5283 7.66634 22.9999 7.66634C31.4716 7.66634 38.3333 14.528 38.3333 22.9997C38.3333 31.4713 31.4716 38.333 22.9999 38.333Z" fill="#640A09"/>
<path d="M23.9583 13.417H21.0833V24.917L31.1458 30.9545L32.5833 28.597L23.9583 23.4795V13.417Z" fill="#640A09"/>
</g>
<defs>
<clipPath id="clip0_23_2179">
<rect width="46" height="46" fill="white"/>
</clipPath>
</defs>
</svg>
