<svg width="35" height="35" viewBox="0 0 35 35" fill="none" xmlns="http://www.w3.org/2000/svg">
<path d="M5.88066 2.53594C5.88066 1.77808 6.39266 1.16595 7.41665 0.699571C8.44065 0.23319 9.75721 0 11.3663 0C14.5554 0 17.2546 1.10007 19.4641 3.30022C21.6724 5.50154 22.7766 8.19081 22.7766 11.368C22.7766 12.1259 22.7034 12.8762 22.5572 13.6189C22.4109 14.3628 22.1914 15.0699 21.8989 15.7403L33.9674 27.7642C34.6403 28.4346 34.9844 29.2578 34.9996 30.2337C35.0136 31.2108 34.6842 32.0345 34.0113 32.7049L32.8264 33.9292C32.1535 34.6287 31.3266 34.9855 30.346 34.9995C29.3664 35.0147 28.5256 34.6725 27.8234 33.9729L15.711 21.9053C15.0381 22.1968 14.3359 22.4084 13.6045 22.5402C12.8731 22.6708 12.1417 22.736 11.4102 22.736C8.22122 22.736 5.52255 21.6354 3.31423 19.4341C1.10474 17.2339 0 14.5452 0 11.368C0 9.76484 0.227034 8.45314 0.681103 7.43294C1.134 6.41273 1.74079 5.90263 2.50147 5.90263C2.79404 5.90263 3.06496 5.95335 3.31423 6.05478C3.56233 6.15739 3.78878 6.31071 3.99358 6.51475L8.86487 11.368L11.3663 8.91953L6.49506 4.06625C6.29026 3.86221 6.13695 3.62902 6.03514 3.36668C5.93215 3.10434 5.88066 2.82743 5.88066 2.53594Z" fill="#640A09"/>
</svg>
